URWPalladioL-BoldItal.ufo
<glyph name="exclam" format="1">
  <advance width="333"/>
  <unicode hex="0021"/>
  <outline>
    <contour>
      <point x="179" y="218" type="line"/>
      <point x="192" y="273"/>
      <point x="201" y="304"/>
      <point x="212" y="340" type="curve" smooth="yes"/>
      <point x="322" y="686" type="line"/>
      <point x="310" y="695" type="line"/>
      <point x="183" y="666" type="line"/>
      <point x="170" y="666" type="line"/>
      <point x="170" y="633" type="line"/>
      <point x="127" y="203" type="line"/>
      <point x="140" y="194" type="line"/>
    </contour>
    <contour>
      <point x="135" y="135" type="curve" smooth="yes"/>
      <point x="91" y="135"/>
      <point x="58" y="99"/>
      <point x="58" y="49" type="curve" smooth="yes"/>
      <point x="58" y="9"/>
      <point x="84" y="-17"/>
      <point x="123" y="-17" type="curve" smooth="yes"/>
      <point x="166" y="-17"/>
      <point x="197" y="20"/>
      <point x="197" y="71" type="curve" smooth="yes"/>
      <point x="197" y="110"/>
      <point x="173" y="135"/>
    </contour>
  </outline>
</glyph>
<glyph name="quotedbl" format="1">
  <advance width="500"/>
  <unicode hex="0022"/>
  <outline>
    <contour>
      <point x="171" y="467" type="line"/>
      <point x="293" y="639" type="line" smooth="yes"/>
      <point x="299" y="647"/>
      <point x="303" y="662"/>
      <point x="303" y="675" type="curve" smooth="yes"/>
      <point x="303" y="701"/>
      <point x="284" y="720"/>
      <point x="257" y="720" type="curve" smooth="yes"/>
      <point x="234" y="720"/>
      <point x="216" y="705"/>
      <point x="207" y="677" type="curve" smooth="yes"/>
      <point x="137" y="467" type="line"/>
    </contour>
    <contour>
      <point x="361" y="467" type="line"/>
      <point x="483" y="639" type="line" smooth="yes"/>
      <point x="489" y="647"/>
      <point x="493" y="662"/>
      <point x="493" y="675" type="curve" smooth="yes"/>
      <point x="493" y="701"/>
      <point x="474" y="720"/>
      <point x="447" y="720" type="curve" smooth="yes"/>
      <point x="424" y="720"/>
      <point x="406" y="705"/>
      <point x="397" y="677" type="curve" smooth="yes"/>
      <point x="327" y="467" type="line"/>
    </contour>
  </outline>
</glyph>
<glyph name="dollar" format="1">
  <advance width="500"/>
  <unicode hex="0024"/>
  <outline>
    <contour>
      <point x="46" y="183" type="line"/>
      <point x="40" y="121"/>
      <point x="34" y="87"/>
      <point x="20" y="40" type="curve"/>
      <point x="58" y="15"/>
      <point x="90" y="5"/>
      <point x="174" y="-7" type="curve"/>
      <point x="155" y="-108" type="line"/>
      <point x="198" y="-108" type="line"/>
      <point x="215" y="-8" type="line"/>
      <point x="269" y="-2"/>
      <point x="296" y="6"/>
      <point x="334" y="28" type="curve" smooth="yes"/>
      <point x="413" y="74"/>
      <point x="460" y="148"/>
      <point x="460" y="228" type="curve" smooth="yes"/>
      <point x="460" y="269"/>
      <point x="448" y="304"/>
      <point x="423" y="329" type="curve"/>
      <point x="397" y="358"/>
      <point x="361" y="373"/>
      <point x="286" y="389" type="curve"/>
      <point x="326" y="620" type="line"/>
      <point x="381" y="608"/>
      <point x="420" y="585"/>
      <point x="420" y="566" type="curve" smooth="yes"/>
      <point x="420" y="495" type="line"/>
      <point x="450" y="495" type="line"/>
      <point x="459" y="564"/>
      <point x="466" y="597"/>
      <point x="477" y="630" type="curve"/>
      <point x="470" y="633"/>
      <point x="468" y="634"/>
      <point x="456" y="640" type="curve" smooth="yes"/>
      <point x="407" y="665"/>
      <point x="383" y="671"/>
      <point x="334" y="672" type="curve"/>
      <point x="344" y="737" type="line"/>
      <point x="306" y="737" type="line"/>
      <point x="295" y="669" type="line"/>
      <point x="236" y="659"/>
      <point x="208" y="649"/>
      <point x="173" y="626" type="curve" smooth="yes"/>
      <point x="107" y="584"/>
      <point x="69" y="515"/>
      <point x="69" y="439" type="curve" smooth="yes"/>
      <point x="69" y="351"/>
      <point x="117" y="304"/>
      <point x="227" y="285" type="curve"/>
      <point x="183" y="41" type="line"/>
      <point x="142" y="53"/>
      <point x="127" y="59"/>
      <point x="98" y="77" type="curve" smooth="yes"/>
      <point x="79" y="89"/>
      <point x="77" y="94"/>
      <point x="77" y="123" type="curve" smooth="yes"/>
      <point x="80" y="183" type="line"/>
    </contour>
    <contour>
      <point x="265" y="275" type="line"/>
      <point x="335" y="256"/>
      <point x="361" y="228"/>
      <point x="361" y="174" type="curve" smooth="yes"/>
      <point x="361" y="124"/>
      <point x="335" y="79"/>
      <point x="294" y="56" type="curve" smooth="yes"/>
      <point x="272" y="43"/>
      <point x="255" y="39"/>
      <point x="223" y="39" type="curve"/>
    </contour>
    <contour>
      <point x="247" y="399" type="line"/>
      <point x="185" y="417"/>
      <point x="157" y="445"/>
      <point x="157" y="490" type="curve" smooth="yes"/>
      <point x="157" y="535"/>
      <point x="182" y="580"/>
      <point x="218" y="602" type="curve" smooth="yes"/>
      <point x="239" y="614"/>
      <point x="255" y="618"/>
      <point x="287" y="620" type="curve"/>
    </contour>
  </outline>
</glyph>
<glyph name="percent" format="1">
  <advance width="889"/>
  <unicode hex="0025"/>
  <outline>
    <contour>
      <point x="244" y="672" type="curve" smooth="yes"/>
      <point x="133" y="672"/>
      <point x="56" y="601"/>
      <point x="56" y="498" type="curve" smooth="yes"/>
      <point x="56" y="406"/>
      <point x="109" y="350"/>
      <point x="198" y="350" type="curve" smooth="yes"/>
      <point x="303" y="350"/>
      <point x="378" y="422"/>
      <point x="378" y="525" type="curve" smooth="yes"/>
      <point x="378" y="615"/>
      <point x="326" y="672"/>
    </contour>
    <contour>
      <point x="239" y="644" type="curve" smooth="yes"/>
      <point x="270" y="644"/>
      <point x="292" y="616"/>
      <point x="292" y="576" type="curve" smooth="yes"/>
      <point x="292" y="527"/>
      <point x="276" y="459"/>
      <point x="255" y="422" type="curve" smooth="yes"/>
      <point x="239" y="393"/>
      <point x="218" y="378"/>
      <point x="195" y="378" type="curve" smooth="yes"/>
      <point x="164" y="378"/>
      <point x="142" y="406"/>
      <point x="142" y="446" type="curve" smooth="yes"/>
      <point x="142" y="495"/>
      <point x="159" y="566"/>
      <point x="179" y="600" type="curve" smooth="yes"/>
      <point x="196" y="629"/>
      <point x="216" y="644"/>
    </contour>
    <contour>
      <point x="656" y="318" type="curve" smooth="yes"/>
      <point x="545" y="318"/>
      <point x="468" y="247"/>
      <point x="468" y="144" type="curve" smooth="yes"/>
      <point x="468" y="52"/>
      <point x="521" y="-4"/>
      <point x="610" y="-4" type="curve" smooth="yes"/>
      <point x="715" y="-4"/>
      <point x="790" y="68"/>
      <point x="790" y="171" type="curve" smooth="yes"/>
      <point x="790" y="261"/>
      <point x="738" y="318"/>
    </contour>
    <contour>
      <point x="651" y="290" type="curve" smooth="yes"/>
      <point x="682" y="290"/>
      <point x="704" y="262"/>
      <point x="704" y="222" type="curve" smooth="yes"/>
      <point x="704" y="173"/>
      <point x="688" y="105"/>
      <point x="667" y="68" type="curve" smooth="yes"/>
      <point x="651" y="39"/>
      <point x="630" y="24"/>
      <point x="607" y="24" type="curve" smooth="yes"/>
      <point x="576" y="24"/>
      <point x="554" y="52"/>
      <point x="554" y="92" type="curve" smooth="yes"/>
      <point x="554" y="141"/>
      <point x="571" y="212"/>
      <point x="591" y="246" type="curve" smooth="yes"/>
      <point x="608" y="275"/>
      <point x="628" y="290"/>
    </contour>
    <contour>
      <point x="229" y="-17" type="line"/>
      <point x="671" y="697" type="line"/>
      <point x="620" y="697" type="line"/>
      <point x="176" y="-17" type="line"/>
    </contour>
  </outline>
</glyph>
<glyph name="ampersand" format="1">
  <advance width="833"/>
  <unicode hex="0026"/>
  <outline>
    <contour>
      <point x="531" y="539" type="line"/>
      <point x="532" y="581"/>
      <point x="537" y="610"/>
      <point x="552" y="667" type="curve"/>
      <point x="516" y="687"/>
      <point x="482" y="695"/>
      <point x="438" y="695" type="curve" smooth="yes"/>
      <point x="384" y="695"/>
      <point x="334" y="676"/>
      <point x="275" y="633" type="curve" smooth="yes"/>
      <point x="213" y="586"/>
      <point x="184" y="542"/>
      <point x="184" y="492" type="curve" smooth="yes"/>
      <point x="184" y="434"/>
      <point x="219" y="396"/>
      <point x="280" y="386" type="curve"/>
      <point x="199" y="359"/>
      <point x="166" y="341"/>
      <point x="128" y="304" type="curve" smooth="yes"/>
      <point x="92" y="269"/>
      <point x="74" y="225"/>
      <point x="74" y="174" type="curve" smooth="yes"/>
      <point x="74" y="57"/>
      <point x="166" y="-17"/>
      <point x="314" y="-17" type="curve" smooth="yes"/>
      <point x="409" y="-17"/>
      <point x="515" y="14"/>
      <point x="584" y="63" type="curve" smooth="yes"/>
      <point x="645" y="105"/>
      <point x="678" y="160"/>
      <point x="678" y="220" type="curve" smooth="yes"/>
      <point x="678" y="261"/>
      <point x="656" y="287"/>
      <point x="615" y="297" type="curve"/>
      <point x="695" y="312" type="line" smooth="yes"/>
      <point x="768" y="325"/>
      <point x="811" y="373"/>
      <point x="811" y="439" type="curve" smooth="yes"/>
      <point x="811" y="480"/>
      <point x="794" y="505"/>
      <point x="751" y="526" type="curve"/>
      <point x="737" y="501" type="line"/>
      <point x="762" y="491"/>
      <point x="773" y="476"/>
      <point x="773" y="454" type="curve" smooth="yes"/>
      <point x="773" y="412"/>
      <point x="740" y="391"/>
      <point x="657" y="378" type="curve" smooth="yes"/>
      <point x="537" y="360" type="line" smooth="yes"/>
      <point x="488" y="353"/>
      <point x="434" y="328"/>
      <point x="413" y="304" type="curve"/>
      <point x="403" y="199" type="line"/>
      <point x="427" y="199" type="line"/>
      <point x="431" y="214" type="line" smooth="yes"/>
      <point x="443" y="259"/>
      <point x="465" y="278"/>
      <point x="502" y="278" type="curve" smooth="yes"/>
      <point x="553" y="278"/>
      <point x="587" y="245"/>
      <point x="587" y="195" type="curve" smooth="yes"/>
      <point x="587" y="104"/>
      <point x="501" y="36"/>
      <point x="385" y="36" type="curve" smooth="yes"/>
      <point x="268" y="36"/>
      <point x="191" y="103"/>
      <point x="191" y="203" type="curve" smooth="yes"/>
      <point x="191" y="303"/>
      <point x="268" y="371"/>
      <point x="379" y="371" type="curve" smooth="yes"/>
      <point x="391" y="371"/>
      <point x="397" y="370"/>
      <point x="406" y="368" type="curve"/>
      <point x="420" y="425" type="line"/>
      <point x="406" y="425" type="line"/>
      <point x="399" y="424"/>
      <point x="394" y="424"/>
      <point x="393" y="424" type="curve" smooth="yes"/>
      <point x="329" y="424"/>
      <point x="282" y="468"/>
      <point x="282" y="526" type="curve" smooth="yes"/>
      <point x="282" y="592"/>
      <point x="331" y="640"/>
      <point x="397" y="640" type="curve" smooth="yes"/>
      <point x="435" y="640"/>
      <point x="463" y="629"/>
      <point x="501" y="599" type="curve"/>
      <point x="501" y="539" type="line"/>
    </contour>
  </outline>
</glyph>
<glyph name="quotesingle" format="1">
  <advance width="250"/>
  <unicode hex="0027"/>
  <outline>
    <contour>
      <point x="161" y="467" type="line"/>
      <point x="283" y="639" type="line" smooth="yes"/>
      <point x="289" y="647"/>
      <point x="293" y="662"/>
      <point x="293" y="675" type="curve" smooth="yes"/>
      <point x="293" y="701"/>
      <point x="274" y="720"/>
      <point x="247" y="720" type="curve" smooth="yes"/>
      <point x="224" y="720"/>
      <point x="206" y="705"/>
      <point x="197" y="677" type="curve" smooth="yes"/>
      <point x="127" y="467" type="line"/>
    </contour>
  </outline>
</glyph>
<glyph name="parenleft" format="1">
  <advance width="333"/>
  <unicode hex="0028"/>
  <outline>
    <contour>
      <point x="344" y="723" type="line"/>
      <point x="260" y="651" type="line" smooth="yes"/>
      <point x="130" y="540"/>
      <point x="58" y="397"/>
      <point x="58" y="251" type="curve" smooth="yes"/>
      <point x="58" y="177"/>
      <point x="77" y="105"/>
      <point x="114" y="33" type="curve" smooth="yes"/>
      <point x="139" y="-15"/>
      <point x="165" y="-52"/>
      <point x="226" y="-129" type="curve"/>
      <point x="252" y="-108" type="line"/>
      <point x="189" y="-10"/>
      <point x="168" y="61"/>
      <point x="168" y="185" type="curve" smooth="yes"/>
      <point x="168" y="272"/>
      <point x="180" y="350"/>
      <point x="206" y="430" type="curve" smooth="yes"/>
      <point x="241" y="540"/>
      <point x="276" y="598"/>
      <point x="368" y="698" type="curve"/>
    </contour>
  </outline>
</glyph>
<glyph name="parenright" format="1">
  <advance width="333"/>
  <unicode hex="0029"/>
  <outline>
    <contour>
      <point x="12" y="-129" type="line"/>
      <point x="96" y="-57" type="line" smooth="yes"/>
      <point x="225" y="54"/>
      <point x="298" y="197"/>
      <point x="298" y="342" type="curve" smooth="yes"/>
      <point x="298" y="416"/>
      <point x="279" y="489"/>
      <point x="242" y="561" type="curve" smooth="yes"/>
      <point x="216" y="609"/>
      <point x="191" y="646"/>
      <point x="130" y="723" type="curve"/>
      <point x="104" y="702" type="line"/>
      <point x="167" y="604"/>
      <point x="188" y="532"/>
      <point x="188" y="409" type="curve" smooth="yes"/>
      <point x="188" y="323"/>
      <point x="176" y="243"/>
      <point x="150" y="164" type="curve" smooth="yes"/>
      <point x="115" y="54"/>
      <point x="80" y="-4"/>
      <point x="-12" y="-104" type="curve"/>
    </contour>
  </outline>
</glyph>
<glyph name="asterisk" format="1">
  <advance width="444"/>
  <unicode hex="002A"/>
  <outline>
    <contour>
      <point x="359" y="673" type="line"/>
      <point x="323" y="678"/>
      <point x="300" y="683"/>
      <point x="267" y="695" type="curve"/>
      <point x="259" y="688" type="line"/>
      <point x="259" y="633"/>
      <point x="256" y="597"/>
      <point x="246" y="546" type="curve"/>
      <point x="144" y="660" type="line"/>
      <point x="128" y="660" type="line"/>
      <point x="117" y="637"/>
      <point x="107" y="619"/>
      <point x="84" y="583" type="curve"/>
      <point x="87" y="576" type="line"/>
      <point x="143" y="560"/>
      <point x="191" y="540"/>
      <point x="225" y="517" type="curve"/>
      <point x="176" y="492"/>
      <point x="131" y="475"/>
      <point x="88" y="464" type="curve"/>
      <point x="84" y="457" type="line"/>
      <point x="99" y="440"/>
      <point x="114" y="413"/>
      <point x="123" y="387" type="curve"/>
      <point x="142" y="379" type="line"/>
      <point x="171" y="420"/>
      <point x="211" y="461"/>
      <point x="243" y="484" type="curve"/>
      <point x="251" y="434"/>
      <point x="254" y="398"/>
      <point x="254" y="339" type="curve"/>
      <point x="269" y="332" type="line"/>
      <point x="300" y="349"/>
      <point x="333" y="362"/>
      <point x="354" y="366" type="curve"/>
      <point x="356" y="378" type="line"/>
      <point x="330" y="408"/>
      <point x="323" y="418"/>
      <point x="276" y="496" type="curve"/>
      <point x="339" y="490"/>
      <point x="385" y="480"/>
      <point x="430" y="462" type="curve"/>
      <point x="439" y="473" type="line"/>
      <point x="432" y="499"/>
      <point x="428" y="521"/>
      <point x="428" y="540" type="curve" smooth="yes"/>
      <point x="428" y="545"/>
      <point x="428" y="551"/>
      <point x="429" y="560" type="curve"/>
      <point x="423" y="563" type="line"/>
      <point x="404" y="556"/>
      <point x="384" y="551"/>
      <point x="327" y="541" type="curve" smooth="yes"/>
      <point x="313" y="538"/>
      <point x="305" y="537"/>
      <point x="282" y="532" type="curve"/>
      <point x="309" y="587"/>
      <point x="340" y="635"/>
      <point x="364" y="659" type="curve"/>
    </contour>
  </outline>
</glyph>
<glyph name="plus" format="1">
  <advance width="606"/>
  <unicode hex="002B"/>
  <outline>
    <contour>
      <point x="259" y="292" type="line"/>
      <point x="50" y="292" type="line"/>
      <point x="50" y="204" type="line"/>
      <point x="259" y="204" type="line"/>
      <point x="259" y="-5" type="line"/>
      <point x="347" y="-5" type="line"/>
      <point x="347" y="204" type="line"/>
      <point x="556" y="204" type="line"/>
      <point x="556" y="292" type="line"/>
      <point x="347" y="292" type="line"/>
      <point x="347" y="501" type="line"/>
      <point x="259" y="501" type="line"/>
    </contour>
  </outline>
</glyph>
<glyph name="comma" format="1">
  <advance width="250"/>
  <unicode hex="002C"/>
  <outline>
    <contour>
      <point x="-33" y="-150" type="line"/>
      <point x="-15" y="-164" type="line"/>
      <point x="38" y="-128" type="line"/>
      <point x="45" y="-128"/>
      <point x="115" y="-35"/>
      <point x="144" y="11" type="curve" smooth="yes"/>
      <point x="157" y="33"/>
      <point x="171" y="59"/>
      <point x="208" y="132" type="curve"/>
      <point x="192" y="147" type="line"/>
      <point x="155" y="133"/>
      <point x="127" y="125"/>
      <point x="66" y="112" type="curve"/>
      <point x="58" y="59"/>
      <point x="30" y="-29"/>
      <point x="8" y="-72" type="curve" smooth="yes"/>
    </contour>
  </outline>
</glyph>
<glyph name="hyphen" format="1">
  <advance width="389"/>
  <unicode hex="002D"/>
  <outline>
    <contour>
      <point x="355" y="297" type="line"/>
      <point x="275" y="295"/>
      <point x="232" y="294"/>
      <point x="212" y="294" type="curve" smooth="yes"/>
      <point x="158" y="294" type="line" smooth="yes"/>
      <point x="116" y="294"/>
      <point x="96" y="295"/>
      <point x="66" y="300" type="curve"/>
      <point x="61" y="273"/>
      <point x="55" y="253"/>
      <point x="37" y="208" type="curve"/>
      <point x="43" y="199" type="line"/>
      <point x="85" y="202"/>
      <point x="101" y="203"/>
      <point x="120" y="203" type="curve" smooth="yes"/>
      <point x="196" y="203" type="line" smooth="yes"/>
      <point x="209" y="203"/>
      <point x="236" y="202"/>
      <point x="274" y="200" type="curve"/>
      <point x="280" y="200"/>
      <point x="307" y="199"/>
      <point x="332" y="198" type="curve"/>
      <point x="343" y="249"/>
      <point x="349" y="268"/>
      <point x="362" y="288" type="curve"/>
    </contour>
  </outline>
</glyph>
<glyph name="period" format="1">
  <advance width="250"/>
  <unicode hex="002E"/>
  <outline>
    <contour>
      <point x="125" y="135" type="curve" smooth="yes"/>
      <point x="81" y="135"/>
      <point x="48" y="99"/>
      <point x="48" y="49" type="curve" smooth="yes"/>
      <point x="48" y="9"/>
      <point x="74" y="-17"/>
      <point x="113" y="-17" type="curve" smooth="yes"/>
      <point x="156" y="-17"/>
      <point x="187" y="21"/>
      <point x="187" y="71" type="curve" smooth="yes"/>
      <point x="187" y="110"/>
      <point x="163" y="135"/>
    </contour>
  </outline>
</glyph>
<glyph name="slash" format="1">
  <advance width="315"/>
  <unicode hex="002F"/>
  <outline>
    <contour>
      <point x="225" y="720" type="line"/>
      <point x="1" y="-17" type="line"/>
      <point x="91" y="-17" type="line"/>
      <point x="315" y="720" type="line"/>
    </contour>
  </outline>
</glyph>
<glyph name="zero" format="1">
  <advance width="500"/>
  <unicode hex="0030"/>
  <outline>
    <contour>
      <point x="314" y="683" type="curve" smooth="yes"/>
      <point x="232" y="683"/>
      <point x="172" y="642"/>
      <point x="120" y="549" type="curve" smooth="yes"/>
      <point x="70" y="459"/>
      <point x="42" y="344"/>
      <point x="42" y="228" type="curve" smooth="yes"/>
      <point x="42" y="68"/>
      <point x="104" y="-17"/>
      <point x="220" y="-17" type="curve" smooth="yes"/>
      <point x="299" y="-17"/>
      <point x="361" y="26"/>
      <point x="411" y="115" type="curve" smooth="yes"/>
      <point x="461" y="205"/>
      <point x="490" y="322"/>
      <point x="490" y="437" type="curve" smooth="yes"/>
      <point x="490" y="597"/>
      <point x="428" y="683"/>
    </contour>
    <contour>
      <point x="208" y="470" type="line" smooth="yes"/>
      <point x="234" y="596"/>
      <point x="264" y="646"/>
      <point x="313" y="646" type="curve" smooth="yes"/>
      <point x="352" y="646"/>
      <point x="376" y="610"/>
      <point x="376" y="553" type="curve" smooth="yes"/>
      <point x="376" y="456"/>
      <point x="338" y="228"/>
      <point x="303" y="116" type="curve" smooth="yes"/>
      <point x="283" y="50"/>
      <point x="256" y="20"/>
      <point x="219" y="20" type="curve" smooth="yes"/>
      <point x="180" y="20"/>
      <point x="156" y="56"/>
      <point x="156" y="114" type="curve" smooth="yes"/>
      <point x="156" y="185"/>
      <point x="175" y="327"/>
      <point x="199" y="431" type="curve" smooth="yes"/>
      <point x="201" y="439"/>
      <point x="204" y="453"/>
      <point x="204" y="454" type="curve"/>
    </contour>
  </outline>
</glyph>
<glyph name="one" format="1">
  <advance width="500"/>
  <unicode hex="0031"/>
  <outline>
    <contour>
      <point x="41" y="-3" type="line"/>
      <point x="106" y="-1"/>
      <point x="202" y="0"/>
      <point x="234" y="0" type="curve" smooth="yes"/>
      <point x="256" y="0" type="line" smooth="yes"/>
      <point x="291" y="0"/>
      <point x="331" y="-1"/>
      <point x="428" y="-3" type="curve"/>
      <point x="434" y="30" type="line"/>
      <point x="357" y="33" type="line" smooth="yes"/>
      <point x="312" y="35"/>
      <point x="300" y="43"/>
      <point x="300" y="71" type="curve" smooth="yes"/>
      <point x="300" y="75"/>
      <point x="301" y="85"/>
      <point x="304" y="100" type="curve" smooth="yes"/>
      <point x="393" y="606" type="line" smooth="yes"/>
      <point x="397" y="630"/>
      <point x="401" y="648"/>
      <point x="406" y="669" type="curve"/>
      <point x="389" y="678" type="line"/>
      <point x="335" y="650"/>
      <point x="312" y="640"/>
      <point x="286" y="632" type="curve" smooth="yes"/>
      <point x="90" y="572" type="line"/>
      <point x="74" y="509" type="line"/>
      <point x="83" y="500" type="line"/>
      <point x="266" y="578" type="line"/>
      <point x="178" y="92" type="line" smooth="yes"/>
      <point x="168" y="40"/>
      <point x="165" y="38"/>
      <point x="100" y="33" type="curve" smooth="yes"/>
      <point x="46" y="30" type="line"/>
    </contour>
  </outline>
</glyph>
<glyph name="two" format="1">
  <advance width="500"/>
  <unicode hex="0032"/>
  <outline>
    <contour>
      <point x="1" y="-3" type="line"/>
      <point x="68" y="-2"/>
      <point x="189" y="0"/>
      <point x="226" y="0" type="curve" smooth="yes"/>
      <point x="242" y="0"/>
      <point x="242" y="0"/>
      <point x="421" y="-3" type="curve"/>
      <point x="436" y="58"/>
      <point x="441" y="75"/>
      <point x="454" y="100" type="curve"/>
      <point x="446" y="106" type="line"/>
      <point x="413" y="100"/>
      <point x="392" y="98"/>
      <point x="364" y="98" type="curve" smooth="yes"/>
      <point x="138" y="98" type="line"/>
      <point x="359" y="320" type="line" smooth="yes"/>
      <point x="417" y="378"/>
      <point x="450" y="448"/>
      <point x="450" y="513" type="curve" smooth="yes"/>
      <point x="450" y="615"/>
      <point x="377" y="683"/>
      <point x="266" y="683" type="curve" smooth="yes"/>
      <point x="212" y="683"/>
      <point x="171" y="669"/>
      <point x="120" y="632" type="curve"/>
      <point x="64" y="496" type="line"/>
      <point x="94" y="487" type="line"/>
      <point x="108" y="511" type="line" smooth="yes"/>
      <point x="145" y="574"/>
      <point x="171" y="593"/>
      <point x="221" y="593" type="curve" smooth="yes"/>
      <point x="286" y="593"/>
      <point x="328" y="553"/>
      <point x="328" y="491" type="curve" smooth="yes"/>
      <point x="328" y="391"/>
      <point x="250" y="263"/>
      <point x="98" y="116" type="curve" smooth="yes"/>
      <point x="1" y="22" type="line"/>
    </contour>
  </outline>
</glyph>
<glyph name="three" format="1">
  <advance width="500"/>
  <unicode hex="0033"/>
  <outline>
    <contour>
      <point x="8" y="24" type="line"/>
      <point x="71" y="-7"/>
      <point x="113" y="-17"/>
      <point x="170" y="-17" type="curve" smooth="yes"/>
      <point x="326" y="-17"/>
      <point x="448" y="87"/>
      <point x="448" y="221" type="curve" smooth="yes"/>
      <point x="448" y="309"/>
      <point x="398" y="358"/>
      <point x="294" y="371" type="curve"/>
      <point x="295" y="375" type="line"/>
      <point x="354" y="400"/>
      <point x="379" y="416"/>
      <point x="408" y="447" type="curve" smooth="yes"/>
      <point x="436" y="477"/>
      <point x="450" y="510"/>
      <point x="450" y="548" type="curve" smooth="yes"/>
      <point x="450" y="631"/>
      <point x="386" y="683"/>
      <point x="282" y="683" type="curve" smooth="yes"/>
      <point x="224" y="683"/>
      <point x="183" y="670"/>
      <point x="137" y="637" type="curve"/>
      <point x="81" y="526" type="line"/>
      <point x="110" y="515" type="line"/>
      <point x="142" y="577"/>
      <point x="180" y="603"/>
      <point x="236" y="603" type="curve" smooth="yes"/>
      <point x="296" y="603"/>
      <point x="331" y="569"/>
      <point x="331" y="512" type="curve" smooth="yes"/>
      <point x="331" y="464"/>
      <point x="307" y="421"/>
      <point x="267" y="397" type="curve" smooth="yes"/>
      <point x="243" y="383"/>
      <point x="219" y="378"/>
      <point x="177" y="378" type="curve" smooth="yes"/>
      <point x="161" y="378"/>
      <point x="156" y="379"/>
      <point x="148" y="382" type="curve"/>
      <point x="132" y="331" type="line"/>
      <point x="138" y="325" type="line"/>
      <point x="179" y="337"/>
      <point x="196" y="340"/>
      <point x="214" y="340" type="curve" smooth="yes"/>
      <point x="282" y="340"/>
      <point x="320" y="294"/>
      <point x="320" y="211" type="curve" smooth="yes"/>
      <point x="320" y="169"/>
      <point x="310" y="128"/>
      <point x="290" y="93" type="curve" smooth="yes"/>
      <point x="262" y="44"/>
      <point x="224" y="20"/>
      <point x="175" y="20" type="curve" smooth="yes"/>
      <point x="110" y="20"/>
      <point x="67" y="64"/>
      <point x="67" y="128" type="curve" smooth="yes"/>
      <point x="67" y="143"/>
      <point x="69" y="164"/>
      <point x="72" y="183" type="curve"/>
      <point x="38" y="185" type="line"/>
    </contour>
  </outline>
</glyph>
<glyph name="four" format="1">
  <advance width="500"/>
  <unicode hex="0034"/>
  <outline>
    <contour>
      <point x="249" y="176" type="line"/>
      <point x="235" y="95" type="line" smooth="yes"/>
      <point x="225" y="41"/>
      <point x="220" y="36"/>
      <point x="166" y="33" type="curve" smooth="yes"/>
      <point x="103" y="30" type="line"/>
      <point x="98" y="-3" type="line"/>
      <point x="245" y="0"/>
      <point x="245" y="0"/>
      <point x="276" y="0" type="curve" smooth="yes"/>
      <point x="307" y="0"/>
      <point x="307" y="0"/>
      <point x="454" y="-3" type="curve"/>
      <point x="459" y="30" type="line"/>
      <point x="378" y="33" type="line" smooth="yes"/>
      <point x="360" y="34"/>
      <point x="346" y="46"/>
      <point x="346" y="61" type="curve" smooth="yes"/>
      <point x="346" y="70"/>
      <point x="347" y="80"/>
      <point x="349" y="93" type="curve" smooth="yes"/>
      <point x="362" y="176" type="line"/>
      <point x="469" y="176" type="line"/>
      <point x="487" y="253" type="line"/>
      <point x="483" y="255" type="line"/>
      <point x="376" y="252" type="line"/>
      <point x="453" y="673" type="line"/>
      <point x="440" y="683" type="line"/>
      <point x="394" y="664"/>
      <point x="364" y="656"/>
      <point x="318" y="652" type="curve"/>
      <point x="197" y="503"/>
      <point x="103" y="370"/>
      <point x="8" y="214" type="curve"/>
      <point x="3" y="176" type="line"/>
    </contour>
    <contour>
      <point x="86" y="252" type="line"/>
      <point x="153" y="367"/>
      <point x="220" y="463"/>
      <point x="325" y="597" type="curve"/>
      <point x="264" y="252" type="line"/>
    </contour>
  </outline>
</glyph>
<glyph name="five" format="1">
  <advance width="500"/>
  <unicode hex="0035"/>
  <outline>
    <contour>
      <point x="112" y="302" type="line"/>
      <point x="147" y="347"/>
      <point x="175" y="362"/>
      <point x="219" y="362" type="curve" smooth="yes"/>
      <point x="286" y="362"/>
      <point x="328" y="315"/>
      <point x="328" y="239" type="curve" smooth="yes"/>
      <point x="328" y="195"/>
      <point x="317" y="146"/>
      <point x="299" y="108" type="curve" smooth="yes"/>
      <point x="271" y="49"/>
      <point x="232" y="20"/>
      <point x="180" y="20" type="curve" smooth="yes"/>
      <point x="113" y="20"/>
      <point x="68" y="69"/>
      <point x="68" y="144" type="curve" smooth="yes"/>
      <point x="68" y="152"/>
      <point x="69" y="161"/>
      <point x="70" y="173" type="curve"/>
      <point x="41" y="178" type="line"/>
      <point x="31" y="110"/>
      <point x="25" y="76"/>
      <point x="14" y="30" type="curve"/>
      <point x="65" y="-3"/>
      <point x="114" y="-17"/>
      <point x="178" y="-17" type="curve" smooth="yes"/>
      <point x="335" y="-17"/>
      <point x="456" y="97"/>
      <point x="456" y="244" type="curve" smooth="yes"/>
      <point x="456" y="351"/>
      <point x="385" y="417"/>
      <point x="270" y="417" type="curve" smooth="yes"/>
      <point x="212" y="417"/>
      <point x="176" y="404"/>
      <point x="131" y="366" type="curve"/>
      <point x="174" y="566" type="line"/>
      <point x="276" y="566" type="line" smooth="yes"/>
      <point x="318" y="566"/>
      <point x="354" y="567"/>
      <point x="435" y="570" type="curve"/>
      <point x="481" y="659" type="line"/>
      <point x="475" y="668" type="line"/>
      <point x="382" y="668" type="line" smooth="yes"/>
      <point x="293" y="668"/>
      <point x="238" y="670"/>
      <point x="150" y="675" type="curve"/>
      <point x="145" y="667" type="line"/>
      <point x="121" y="521"/>
      <point x="109" y="455"/>
      <point x="81" y="314" type="curve"/>
    </contour>
  </outline>
</glyph>
<glyph name="six" format="1">
  <advance width="500"/>
  <unicode hex="0036"/>
  <outline>
    <contour>
      <point x="488" y="669" type="line"/>
      <point x="467" y="678"/>
      <point x="439" y="683"/>
      <point x="415" y="683" type="curve" smooth="yes"/>
      <point x="335" y="683"/>
      <point x="248" y="639"/>
      <point x="175" y="563" type="curve" smooth="yes"/>
      <point x="89" y="473"/>
      <point x="39" y="342"/>
      <point x="39" y="206" type="curve" smooth="yes"/>
      <point x="39" y="62"/>
      <point x="101" y="-17"/>
      <point x="214" y="-17" type="curve" smooth="yes"/>
      <point x="354" y="-17"/>
      <point x="476" y="112"/>
      <point x="476" y="260" type="curve" smooth="yes"/>
      <point x="476" y="350"/>
      <point x="414" y="415"/>
      <point x="328" y="415" type="curve" smooth="yes"/>
      <point x="274" y="415"/>
      <point x="232" y="393"/>
      <point x="176" y="334" type="curve"/>
      <point x="195" y="425"/>
      <point x="210" y="474"/>
      <point x="234" y="522" type="curve" smooth="yes"/>
      <point x="270" y="594"/>
      <point x="318" y="631"/>
      <point x="373" y="631" type="curve" smooth="yes"/>
      <point x="406" y="631"/>
      <point x="433" y="620"/>
      <point x="458" y="596" type="curve"/>
      <point x="466" y="600" type="line"/>
    </contour>
    <contour>
      <point x="273" y="348" type="curve" smooth="yes"/>
      <point x="324" y="348"/>
      <point x="351" y="308"/>
      <point x="351" y="234" type="curve" smooth="yes"/>
      <point x="351" y="177"/>
      <point x="336" y="110"/>
      <point x="315" y="75" type="curve" smooth="yes"/>
      <point x="296" y="42"/>
      <point x="275" y="29"/>
      <point x="244" y="29" type="curve" smooth="yes"/>
      <point x="188" y="29"/>
      <point x="159" y="71"/>
      <point x="159" y="151" type="curve" smooth="yes"/>
      <point x="159" y="273"/>
      <point x="202" y="348"/>
    </contour>
  </outline>
</glyph>
<glyph name="seven" format="1">
  <advance width="500"/>
  <unicode hex="0037"/>
  <outline>
    <contour>
      <point x="76" y="-3" type="line"/>
      <point x="121" y="0"/>
      <point x="123" y="0"/>
      <point x="133" y="0" type="curve" smooth="yes"/>
      <point x="143" y="0"/>
      <point x="152" y="0"/>
      <point x="191" y="-3" type="curve"/>
      <point x="256" y="156"/>
      <point x="382" y="392"/>
      <point x="486" y="548" type="curve" smooth="yes"/>
      <point x="544" y="629" type="line"/>
      <point x="544" y="668" type="line"/>
      <point x="284" y="668" type="line" smooth="yes"/>
      <point x="251" y="668"/>
      <point x="211" y="669"/>
      <point x="100" y="674" type="curve"/>
      <point x="94" y="665" type="line"/>
      <point x="87" y="620"/>
      <point x="81" y="593"/>
      <point x="73" y="556" type="curve"/>
      <point x="81" y="550" type="line"/>
      <point x="123" y="555"/>
      <point x="145" y="557"/>
      <point x="170" y="557" type="curve" smooth="yes"/>
      <point x="439" y="557" type="line"/>
      <point x="360" y="448" type="line" smooth="yes"/>
      <point x="312" y="382"/>
      <point x="177" y="178"/>
      <point x="69" y="10" type="curve"/>
    </contour>
  </outline>
</glyph>
<glyph name="eight" format="1">
  <advance width="500"/>
  <unicode hex="0038"/>
  <outline>
    <contour>
      <point x="191" y="328" type="line"/>
      <point x="157" y="309" type="line" smooth="yes"/>
      <point x="67" y="259"/>
      <point x="26" y="203"/>
      <point x="26" y="130" type="curve" smooth="yes"/>
      <point x="26" y="41"/>
      <point x="93" y="-17"/>
      <point x="196" y="-17" type="curve" smooth="yes"/>
      <point x="254" y="-17"/>
      <point x="314" y="7"/>
      <point x="369" y="51" type="curve" smooth="yes"/>
      <point x="426" y="97"/>
      <point x="454" y="153"/>
      <point x="454" y="218" type="curve" smooth="yes"/>
      <point x="454" y="279"/>
      <point x="421" y="325"/>
      <point x="352" y="365" type="curve" smooth="yes"/>
      <point x="338" y="373" type="line"/>
      <point x="391" y="409" type="line" smooth="yes"/>
      <point x="455" y="453"/>
      <point x="484" y="498"/>
      <point x="484" y="554" type="curve" smooth="yes"/>
      <point x="484" y="632"/>
      <point x="424" y="683"/>
      <point x="332" y="683" type="curve" smooth="yes"/>
      <point x="287" y="683"/>
      <point x="243" y="669"/>
      <point x="201" y="639" type="curve" smooth="yes"/>
      <point x="132" y="592"/>
      <point x="97" y="534"/>
      <point x="97" y="469" type="curve" smooth="yes"/>
      <point x="97" y="413"/>
      <point x="121" y="373"/>
      <point x="177" y="337" type="curve" smooth="yes"/>
    </contour>
    <contour>
      <point x="236" y="300" type="line" smooth="yes"/>
      <point x="311" y="263"/>
      <point x="348" y="214"/>
      <point x="348" y="155" type="curve" smooth="yes"/>
      <point x="348" y="84"/>
      <point x="292" y="29"/>
      <point x="220" y="29" type="curve" smooth="yes"/>
      <point x="153" y="29"/>
      <point x="108" y="75"/>
      <point x="108" y="143" type="curve" smooth="yes"/>
      <point x="108" y="210"/>
      <point x="139" y="257"/>
      <point x="218" y="309" type="curve"/>
    </contour>
    <contour>
      <point x="309" y="390" type="curve"/>
      <point x="220" y="439"/>
      <point x="194" y="468"/>
      <point x="194" y="522" type="curve" smooth="yes"/>
      <point x="194" y="589"/>
      <point x="240" y="637"/>
      <point x="305" y="637" type="curve" smooth="yes"/>
      <point x="366" y="637"/>
      <point x="404" y="598"/>
      <point x="404" y="533" type="curve" smooth="yes"/>
      <point x="404" y="479"/>
      <point x="382" y="446"/>
    </contour>
  </outline>
</glyph>
<glyph name="nine" format="1">
  <advance width="500"/>
  <unicode hex="0039"/>
  <outline>
    <contour>
      <point x="348" y="313" type="line" smooth="yes"/>
      <point x="325" y="216"/>
      <point x="318" y="190"/>
      <point x="299" y="146" type="curve" smooth="yes"/>
      <point x="267" y="70"/>
      <point x="222" y="32"/>
      <point x="165" y="32" type="curve" smooth="yes"/>
      <point x="113" y="32"/>
      <point x="74" y="59"/>
      <point x="50" y="111" type="curve"/>
      <point x="27" y="101" type="line"/>
      <point x="42" y="44"/>
      <point x="46" y="25"/>
      <point x="52" y="-2" type="curve"/>
      <point x="94" y="-13"/>
      <point x="116" y="-17"/>
      <point x="143" y="-17" type="curve" smooth="yes"/>
      <point x="318" y="-17"/>
      <point x="491" y="218"/>
      <point x="491" y="456" type="curve" smooth="yes"/>
      <point x="491" y="599"/>
      <point x="425" y="683"/>
      <point x="313" y="683" type="curve" smooth="yes"/>
      <point x="272" y="683"/>
      <point x="229" y="667"/>
      <point x="175" y="632" type="curve" smooth="yes"/>
      <point x="94" y="579"/>
      <point x="56" y="510"/>
      <point x="56" y="417" type="curve" smooth="yes"/>
      <point x="56" y="312"/>
      <point x="112" y="246"/>
      <point x="201" y="246" type="curve" smooth="yes"/>
      <point x="260" y="246"/>
      <point x="302" y="270"/>
      <point x="352" y="331" type="curve"/>
    </contour>
    <contour>
      <point x="285" y="634" type="curve" smooth="yes"/>
      <point x="337" y="634"/>
      <point x="366" y="587"/>
      <point x="366" y="503" type="curve" smooth="yes"/>
      <point x="366" y="386"/>
      <point x="326" y="317"/>
      <point x="259" y="317" type="curve" smooth="yes"/>
      <point x="204" y="317"/>
      <point x="176" y="363"/>
      <point x="176" y="452" type="curve" smooth="yes"/>
      <point x="176" y="564"/>
      <point x="218" y="634"/>
    </contour>
  </outline>
</glyph>
<glyph name="colon" format="1">
  <advance width="250"/>
  <unicode hex="003A"/>
  <outline>
    <contour>
      <point x="174" y="452" type="curve" smooth="yes"/>
      <point x="129" y="452"/>
      <point x="97" y="416"/>
      <point x="97" y="366" type="curve" smooth="yes"/>
      <point x="97" y="326"/>
      <point x="123" y="300"/>
      <point x="162" y="300" type="curve" smooth="yes"/>
      <point x="205" y="300"/>
      <point x="236" y="337"/>
      <point x="236" y="388" type="curve" smooth="yes"/>
      <point x="236" y="427"/>
      <point x="212" y="452"/>
    </contour>
    <contour>
      <point x="115" y="135" type="curve" smooth="yes"/>
      <point x="71" y="135"/>
      <point x="38" y="99"/>
      <point x="38" y="49" type="curve" smooth="yes"/>
      <point x="38" y="9"/>
      <point x="64" y="-17"/>
      <point x="103" y="-17" type="curve" smooth="yes"/>
      <point x="146" y="-17"/>
      <point x="177" y="21"/>
      <point x="177" y="71" type="curve" smooth="yes"/>
      <point x="177" y="110"/>
      <point x="153" y="135"/>
    </contour>
  </outline>
</glyph>
<glyph name="semicolon" format="1">
  <advance width="250"/>
  <unicode hex="003B"/>
  <outline>
    <contour>
      <point x="-33" y="-150" type="line"/>
      <point x="-15" y="-164" type="line"/>
      <point x="38" y="-128" type="line"/>
      <point x="45" y="-128"/>
      <point x="115" y="-35"/>
      <point x="144" y="11" type="curve" smooth="yes"/>
      <point x="157" y="33"/>
      <point x="171" y="59"/>
      <point x="208" y="132" type="curve"/>
      <point x="192" y="147" type="line"/>
      <point x="155" y="133"/>
      <point x="127" y="125"/>
      <point x="66" y="112" type="curve"/>
      <point x="58" y="59"/>
      <point x="30" y="-29"/>
      <point x="8" y="-72" type="curve" smooth="yes"/>
    </contour>
    <contour>
      <point x="184" y="452" type="curve" smooth="yes"/>
      <point x="140" y="452"/>
      <point x="108" y="415"/>
      <point x="108" y="364" type="curve" smooth="yes"/>
      <point x="108" y="326"/>
      <point x="135" y="300"/>
      <point x="173" y="300" type="curve" smooth="yes"/>
      <point x="216" y="300"/>
      <point x="247" y="337"/>
      <point x="247" y="388" type="curve" smooth="yes"/>
      <point x="247" y="428"/>
      <point x="223" y="452"/>
    </contour>
  </outline>
</glyph>
<glyph name="less" format="1">
  <advance width="606"/>
  <unicode hex="003C"/>
  <outline>
    <contour>
      <point x="172" y="252" type="line"/>
      <point x="558" y="429" type="line"/>
      <point x="558" y="524" type="line"/>
      <point x="49" y="294" type="line"/>
      <point x="49" y="210" type="line"/>
      <point x="558" y="-20" type="line"/>
      <point x="558" y="75" type="line"/>
    </contour>
  </outline>
</glyph>
<glyph name="equal" format="1">
  <advance width="606"/>
  <unicode hex="003D"/>
  <outline>
    <contour>
      <point x="555" y="390" type="line"/>
      <point x="51" y="390" type="line"/>
      <point x="51" y="302" type="line"/>
      <point x="555" y="302" type="line"/>
    </contour>
    <contour>
      <point x="555" y="194" type="line"/>
      <point x="51" y="194" type="line"/>
      <point x="51" y="106" type="line"/>
      <point x="555" y="106" type="line"/>
    </contour>
  </outline>
</glyph>
<glyph name="question" format="1">
  <advance width="444"/>
  <unicode hex="003F"/>
  <outline>
    <contour>
      <point x="223" y="207" type="line"/>
      <point x="209" y="222"/>
      <point x="203" y="234"/>
      <point x="203" y="249" type="curve" smooth="yes"/>
      <point x="203" y="274"/>
      <point x="217" y="291"/>
      <point x="273" y="332" type="curve" smooth="yes"/>
      <point x="376" y="408" type="line" smooth="yes"/>
      <point x="427" y="445"/>
      <point x="450" y="488"/>
      <point x="450" y="543" type="curve" smooth="yes"/>
      <point x="450" y="636"/>
      <point x="381" y="695"/>
      <point x="274" y="695" type="curve" smooth="yes"/>
      <point x="225" y="695"/>
      <point x="194" y="686"/>
      <point x="134" y="652" type="curve"/>
      <point x="122" y="600"/>
      <point x="111" y="570"/>
      <point x="91" y="526" type="curve"/>
      <point x="124" y="522" type="line"/>
      <point x="131" y="539" type="line" smooth="yes"/>
      <point x="146" y="575"/>
      <point x="158" y="591"/>
      <point x="177" y="601" type="curve"/>
      <point x="197" y="610"/>
      <point x="215" y="615"/>
      <point x="233" y="615" type="curve" smooth="yes"/>
      <point x="289" y="615"/>
      <point x="324" y="585"/>
      <point x="324" y="536" type="curve" smooth="yes"/>
      <point x="324" y="501"/>
      <point x="308" y="468"/>
      <point x="273" y="431" type="curve" smooth="yes"/>
      <point x="210" y="365" type="line" smooth="yes"/>
      <point x="176" y="329"/>
      <point x="159" y="297"/>
      <point x="159" y="266" type="curve" smooth="yes"/>
      <point x="159" y="237"/>
      <point x="171" y="214"/>
      <point x="201" y="189" type="curve"/>
    </contour>
    <contour>
      <point x="174" y="135" type="curve" smooth="yes"/>
      <point x="130" y="135"/>
      <point x="97" y="99"/>
      <point x="97" y="49" type="curve" smooth="yes"/>
      <point x="97" y="9"/>
      <point x="123" y="-17"/>
      <point x="162" y="-17" type="curve" smooth="yes"/>
      <point x="205" y="-17"/>
      <point x="236" y="20"/>
      <point x="236" y="71" type="curve" smooth="yes"/>
      <point x="236" y="110"/>
      <point x="212" y="135"/>
    </contour>
  </outline>
</glyph>
<glyph name="at" format="1">
  <advance width="833"/>
  <unicode hex="0040"/>
  <outline>
    <contour>
      <point x="675" y="173" type="line"/>
      <point x="630" y="113"/>
      <point x="602" y="89"/>
      <point x="550" y="66" type="curve" smooth="yes"/>
      <point x="517" y="51"/>
      <point x="483" y="44"/>
      <point x="443" y="44" type="curve" smooth="yes"/>
      <point x="267" y="44"/>
      <point x="138" y="167"/>
      <point x="138" y="335" type="curve" smooth="yes"/>
      <point x="138" y="501"/>
      <point x="265" y="625"/>
      <point x="436" y="625" type="curve" smooth="yes"/>
      <point x="581" y="625"/>
      <point x="693" y="528"/>
      <point x="693" y="403" type="curve" smooth="yes"/>
      <point x="693" y="340"/>
      <point x="669" y="274"/>
      <point x="628" y="225" type="curve" smooth="yes"/>
      <point x="599" y="190"/>
      <point x="570" y="170"/>
      <point x="548" y="170" type="curve" smooth="yes"/>
      <point x="537" y="170"/>
      <point x="529" y="180"/>
      <point x="529" y="194" type="curve" smooth="yes"/>
      <point x="529" y="200"/>
      <point x="531" y="210"/>
      <point x="533" y="219" type="curve" smooth="yes"/>
      <point x="607" y="493" type="line"/>
      <point x="513" y="493" type="line"/>
      <point x="497" y="429" type="line"/>
      <point x="487" y="477"/>
      <point x="460" y="501"/>
      <point x="416" y="501" type="curve" smooth="yes"/>
      <point x="307" y="501"/>
      <point x="210" y="395"/>
      <point x="210" y="278" type="curve" smooth="yes"/>
      <point x="210" y="198"/>
      <point x="260" y="143"/>
      <point x="334" y="143" type="curve" smooth="yes"/>
      <point x="382" y="143"/>
      <point x="408" y="159"/>
      <point x="452" y="219" type="curve"/>
      <point x="458" y="166"/>
      <point x="482" y="137"/>
      <point x="521" y="137" type="curve" smooth="yes"/>
      <point x="566" y="137"/>
      <point x="626" y="168"/>
      <point x="671" y="213" type="curve" smooth="yes"/>
      <point x="717" y="261"/>
      <point x="744" y="329"/>
      <point x="744" y="399" type="curve" smooth="yes"/>
      <point x="744" y="558"/>
      <point x="607" y="681"/>
      <point x="431" y="681" type="curve" smooth="yes"/>
      <point x="235" y="681"/>
      <point x="82" y="527"/>
      <point x="82" y="329" type="curve" smooth="yes"/>
      <point x="82" y="137"/>
      <point x="235" y="-12"/>
      <point x="432" y="-12" type="curve" smooth="yes"/>
      <point x="519" y="-12"/>
      <point x="598" y="18"/>
      <point x="663" y="75" type="curve" smooth="yes"/>
      <point x="694" y="102"/>
      <point x="710" y="123"/>
      <point x="739" y="173" type="curve"/>
    </contour>
    <contour>
      <point x="432" y="471" type="curve" smooth="yes"/>
      <point x="460" y="469"/>
      <point x="478" y="442"/>
      <point x="478" y="403" type="curve" smooth="yes"/>
      <point x="478" y="353"/>
      <point x="460" y="285"/>
      <point x="434" y="240" type="curve" smooth="yes"/>
      <point x="409" y="195"/>
      <point x="382" y="172"/>
      <point x="354" y="172" type="curve" smooth="yes"/>
      <point x="325" y="172"/>
      <point x="305" y="201"/>
      <point x="305" y="242" type="curve" smooth="yes"/>
      <point x="305" y="350"/>
      <point x="374" y="475"/>
    </contour>
  </outline>
</glyph>
<glyph name="D" format="1">
  <advance width="778"/>
  <unicode hex="0044"/>
  <outline>
    <contour>
      <point x="5" y="29" type="line"/>
      <point x="0" y="-3" type="line"/>
      <point x="74" y="-1"/>
      <point x="105" y="0"/>
      <point x="141" y="0" type="curve" smooth="yes"/>
      <point x="159" y="0"/>
      <point x="234" y="-1"/>
      <point x="258" y="-2" type="curve" smooth="yes"/>
      <point x="330" y="-3" type="line" smooth="yes"/>
      <point x="438" y="-3"/>
      <point x="535" y="33"/>
      <point x="608" y="100" type="curve" smooth="yes"/>
      <point x="695" y="179"/>
      <point x="747" y="300"/>
      <point x="747" y="422" type="curve" smooth="yes"/>
      <point x="747" y="494"/>
      <point x="725" y="556"/>
      <point x="685" y="601" type="curve" smooth="yes"/>
      <point x="634" y="658"/>
      <point x="566" y="682"/>
      <point x="451" y="682" type="curve" smooth="yes"/>
      <point x="434" y="682"/>
      <point x="406" y="681"/>
      <point x="363" y="680" type="curve" smooth="yes"/>
      <point x="289" y="678"/>
      <point x="268" y="678"/>
      <point x="243" y="678" type="curve" smooth="yes"/>
      <point x="214" y="678"/>
      <point x="214" y="678"/>
      <point x="83" y="681" type="curve"/>
      <point x="78" y="649" type="line"/>
      <point x="124" y="646" type="line" smooth="yes"/>
      <point x="159" y="644"/>
      <point x="170" y="636"/>
      <point x="170" y="614" type="curve" smooth="yes"/>
      <point x="170" y="609"/>
      <point x="169" y="601"/>
      <point x="168" y="594" type="curve" smooth="yes"/>
      <point x="81" y="92" type="line" smooth="yes"/>
      <point x="73" y="47"/>
      <point x="63" y="35"/>
      <point x="33" y="32" type="curve" smooth="yes"/>
    </contour>
    <contour>
      <point x="303" y="635" type="line"/>
      <point x="342" y="638" type="line" smooth="yes"/>
      <point x="357" y="639"/>
      <point x="371" y="640"/>
      <point x="376" y="640" type="curve" smooth="yes"/>
      <point x="435" y="640"/>
      <point x="499" y="627"/>
      <point x="533" y="608" type="curve" smooth="yes"/>
      <point x="584" y="578"/>
      <point x="609" y="521"/>
      <point x="609" y="434" type="curve" smooth="yes"/>
      <point x="609" y="336"/>
      <point x="582" y="225"/>
      <point x="541" y="151" type="curve" smooth="yes"/>
      <point x="496" y="73"/>
      <point x="430" y="40"/>
      <point x="314" y="40" type="curve" smooth="yes"/>
      <point x="286" y="40"/>
      <point x="266" y="42"/>
      <point x="203" y="51" type="curve"/>
    </contour>
  </outline>
</glyph>
<glyph name="G" format="1">
  <advance width="778"/>
  <unicode hex="0047"/>
  <outline>
    <contour>
      <point x="517" y="59" type="line"/>
      <point x="483" y="40"/>
      <point x="443" y="30"/>
      <point x="396" y="30" type="curve" smooth="yes"/>
      <point x="276" y="30"/>
      <point x="210" y="111"/>
      <point x="210" y="259" type="curve" smooth="yes"/>
      <point x="210" y="395"/>
      <point x="253" y="526"/>
      <point x="316" y="580" type="curve" smooth="yes"/>
      <point x="354" y="613"/>
      <point x="418" y="633"/>
      <point x="482" y="633" type="curve" smooth="yes"/>
      <point x="574" y="633"/>
      <point x="654" y="605"/>
      <point x="654" y="574" type="curve" smooth="yes"/>
      <point x="654" y="572"/>
      <point x="654" y="568"/>
      <point x="653" y="562" type="curve"/>
      <point x="649" y="484" type="line"/>
      <point x="684" y="484" type="line"/>
      <point x="689" y="531"/>
      <point x="696" y="560"/>
      <point x="722" y="652" type="curve"/>
      <point x="653" y="683"/>
      <point x="596" y="695"/>
      <point x="523" y="695" type="curve" smooth="yes"/>
      <point x="466" y="695"/>
      <point x="411" y="684"/>
      <point x="352" y="661" type="curve" smooth="yes"/>
      <point x="177" y="592"/>
      <point x="72" y="440"/>
      <point x="72" y="256" type="curve" smooth="yes"/>
      <point x="72" y="170"/>
      <point x="94" y="105"/>
      <point x="140" y="60" type="curve" smooth="yes"/>
      <point x="191" y="9"/>
      <point x="269" y="-17"/>
      <point x="368" y="-17" type="curve" smooth="yes"/>
      <point x="452" y="-17"/>
      <point x="508" y="-4"/>
      <point x="652" y="48" type="curve"/>
      <point x="649" y="64" type="line"/>
      <point x="649" y="77"/>
      <point x="651" y="91"/>
      <point x="655" y="110" type="curve" smooth="yes"/>
      <point x="675" y="206" type="line" smooth="yes"/>
      <point x="683" y="238"/>
      <point x="693" y="248"/>
      <point x="720" y="251" type="curve" smooth="yes"/>
      <point x="745" y="253" type="line"/>
      <point x="750" y="286" type="line"/>
      <point x="628" y="283"/>
      <point x="628" y="283"/>
      <point x="602" y="283" type="curve" smooth="yes"/>
      <point x="578" y="283"/>
      <point x="578" y="283"/>
      <point x="453" y="286" type="curve"/>
      <point x="448" y="253" type="line"/>
      <point x="508" y="251" type="line" smooth="yes"/>
      <point x="540" y="250"/>
      <point x="552" y="242"/>
      <point x="552" y="223" type="curve" smooth="yes"/>
      <point x="552" y="217"/>
      <point x="551" y="208"/>
      <point x="549" y="200" type="curve" smooth="yes"/>
    </contour>
  </outline>
</glyph>
<glyph name="M" format="1">
  <advance width="944"/>
  <unicode hex="004D"/>
  <outline>
    <contour>
      <point x="372" y="-17" type="line"/>
      <point x="397" y="-17" type="line"/>
      <point x="468" y="108" type="line"/>
      <point x="759" y="586" type="line"/>
      <point x="677" y="101" type="line"/>
      <point x="677" y="99"/>
      <point x="676" y="94"/>
      <point x="675" y="90" type="curve" smooth="yes"/>
      <point x="674" y="85"/>
      <point x="673" y="81"/>
      <point x="673" y="81" type="curve"/>
      <point x="666" y="44"/>
      <point x="662" y="40"/>
      <point x="631" y="35" type="curve"/>
      <point x="582" y="32" type="line"/>
      <point x="577" y="-3" type="line"/>
      <point x="708" y="0"/>
      <point x="708" y="0"/>
      <point x="732" y="0" type="curve" smooth="yes"/>
      <point x="757" y="0"/>
      <point x="757" y="0"/>
      <point x="884" y="-3" type="curve"/>
      <point x="889" y="32" type="line"/>
      <point x="834" y="35" type="line" smooth="yes"/>
      <point x="808" y="36"/>
      <point x="798" y="44"/>
      <point x="798" y="65" type="curve" smooth="yes"/>
      <point x="798" y="72"/>
      <point x="800" y="83"/>
      <point x="803" y="102" type="curve"/>
      <point x="804" y="106"/>
      <point x="805" y="109"/>
      <point x="805" y="110" type="curve"/>
      <point x="885" y="577" type="line" smooth="yes"/>
      <point x="895" y="631"/>
      <point x="904" y="643"/>
      <point x="941" y="646" type="curve" smooth="yes"/>
      <point x="980" y="649" type="line"/>
      <point x="985" y="681" type="line"/>
      <point x="890" y="678"/>
      <point x="890" y="678"/>
      <point x="871" y="678" type="curve" smooth="yes"/>
      <point x="852" y="678"/>
      <point x="805" y="679"/>
      <point x="758" y="681" type="curve"/>
      <point x="679" y="538"/>
      <point x="620" y="441"/>
      <point x="450" y="174" type="curve"/>
      <point x="323" y="681" type="line"/>
      <point x="230" y="678"/>
      <point x="230" y="678"/>
      <point x="212" y="678" type="curve" smooth="yes"/>
      <point x="194" y="678"/>
      <point x="148" y="679"/>
      <point x="102" y="681" type="curve"/>
      <point x="97" y="649" type="line"/>
      <point x="142" y="646" type="line" smooth="yes"/>
      <point x="179" y="644"/>
      <point x="195" y="634"/>
      <point x="195" y="613" type="curve" smooth="yes"/>
      <point x="195" y="595"/>
      <point x="192" y="574"/>
      <point x="186" y="552" type="curve" smooth="yes"/>
      <point x="61" y="91" type="line" smooth="yes"/>
      <point x="51" y="55"/>
      <point x="38" y="37"/>
      <point x="21" y="35" type="curve" smooth="yes"/>
      <point x="-21" y="32" type="line"/>
      <point x="-23" y="-3" type="line"/>
      <point x="68" y="0"/>
      <point x="68" y="0"/>
      <point x="86" y="0" type="curve" smooth="yes"/>
      <point x="105" y="0"/>
      <point x="149" y="-1"/>
      <point x="194" y="-3" type="curve"/>
      <point x="199" y="32" type="line"/>
      <point x="148" y="35" type="line" smooth="yes"/>
      <point x="123" y="36"/>
      <point x="114" y="44"/>
      <point x="114" y="64" type="curve" smooth="yes"/>
      <point x="114" y="75"/>
      <point x="114" y="76"/>
      <point x="122" y="108" type="curve" smooth="yes"/>
      <point x="229" y="548" type="line"/>
    </contour>
  </outline>
</glyph>
<glyph name="O" format="1">
  <advance width="833"/>
  <unicode hex="004F"/>
  <outline>
    <contour>
      <point x="493" y="695" type="curve" smooth="yes"/>
      <point x="249" y="695"/>
      <point x="76" y="518"/>
      <point x="76" y="268" type="curve" smooth="yes"/>
      <point x="76" y="87"/>
      <point x="182" y="-17"/>
      <point x="365" y="-17" type="curve" smooth="yes"/>
      <point x="608" y="-17"/>
      <point x="794" y="170"/>
      <point x="794" y="414" type="curve" smooth="yes"/>
      <point x="794" y="499"/>
      <point x="770" y="563"/>
      <point x="721" y="612" type="curve" smooth="yes"/>
      <point x="667" y="666"/>
      <point x="588" y="695"/>
    </contour>
    <contour>
      <point x="480" y="652" type="curve" smooth="yes"/>
      <point x="596" y="652"/>
      <point x="656" y="579"/>
      <point x="656" y="435" type="curve" smooth="yes"/>
      <point x="656" y="332"/>
      <point x="631" y="226"/>
      <point x="589" y="153" type="curve" smooth="yes"/>
      <point x="541" y="69"/>
      <point x="473" y="26"/>
      <point x="388" y="26" type="curve" smooth="yes"/>
      <point x="274" y="26"/>
      <point x="214" y="99"/>
      <point x="214" y="239" type="curve" smooth="yes"/>
      <point x="214" y="346"/>
      <point x="243" y="467"/>
      <point x="285" y="537" type="curve" smooth="yes"/>
      <point x="332" y="616"/>
      <point x="394" y="652"/>
    </contour>
  </outline>
</glyph>
<glyph name="Q" format="1">
  <advance width="833"/>
  <unicode hex="0051"/>
  <outline>
    <contour>
      <point x="493" y="695" type="curve" smooth="yes"/>
      <point x="249" y="695"/>
      <point x="76" y="518"/>
      <point x="76" y="268" type="curve" smooth="yes"/>
      <point x="76" y="87"/>
      <point x="182" y="-17"/>
      <point x="365" y="-17" type="curve" smooth="yes"/>
      <point x="608" y="-17"/>
      <point x="794" y="170"/>
      <point x="794" y="414" type="curve" smooth="yes"/>
      <point x="794" y="499"/>
      <point x="770" y="563"/>
      <point x="721" y="612" type="curve" smooth="yes"/>
      <point x="667" y="666"/>
      <point x="588" y="695"/>
    </contour>
    <contour>
      <point x="480" y="652" type="curve" smooth="yes"/>
      <point x="596" y="652"/>
      <point x="656" y="579"/>
      <point x="656" y="435" type="curve" smooth="yes"/>
      <point x="656" y="332"/>
      <point x="631" y="226"/>
      <point x="589" y="153" type="curve" smooth="yes"/>
      <point x="541" y="69"/>
      <point x="473" y="26"/>
      <point x="388" y="26" type="curve" smooth="yes"/>
      <point x="274" y="26"/>
      <point x="214" y="99"/>
      <point x="214" y="239" type="curve" smooth="yes"/>
      <point x="214" y="346"/>
      <point x="243" y="467"/>
      <point x="285" y="537" type="curve" smooth="yes"/>
      <point x="332" y="616"/>
      <point x="394" y="652"/>
    </contour>
    <contour>
      <point x="174" y="-170" type="line"/>
      <point x="179" y="-168" type="line"/>
      <point x="180" y="-109"/>
      <point x="210" y="-70"/>
      <point x="257" y="-70" type="curve" smooth="yes"/>
      <point x="281" y="-70"/>
      <point x="306" y="-77"/>
      <point x="329" y="-89" type="curve" smooth="yes"/>
      <point x="528" y="-196" type="line" smooth="yes"/>
      <point x="566" y="-216"/>
      <point x="584" y="-222"/>
      <point x="610" y="-222" type="curve" smooth="yes"/>
      <point x="690" y="-222"/>
      <point x="747" y="-161"/>
      <point x="769" y="-53" type="curve"/>
      <point x="738" y="-43" type="line"/>
      <point x="726" y="-104"/>
      <point x="700" y="-133"/>
      <point x="657" y="-133" type="curve" smooth="yes"/>
      <point x="628" y="-133"/>
      <point x="574" y="-117"/>
      <point x="514" y="-91" type="curve" smooth="yes"/>
      <point x="420" y="-50" type="line" smooth="yes"/>
      <point x="365" y="-26"/>
      <point x="314" y="-12"/>
      <point x="282" y="-12" type="curve" smooth="yes"/>
      <point x="199" y="-12"/>
      <point x="151" y="-64"/>
      <point x="150" y="-154" type="curve"/>
    </contour>
  </outline>
</glyph>
<glyph name="R" format="1">
  <advance width="722"/>
  <unicode hex="0052"/>
  <outline>
    <contour>
      <point x="8" y="32" type="line"/>
      <point x="4" y="-3" type="line"/>
      <point x="144" y="0"/>
      <point x="144" y="0"/>
      <point x="161" y="0" type="curve" smooth="yes"/>
      <point x="176" y="0"/>
      <point x="176" y="0"/>
      <point x="324" y="-3" type="curve"/>
      <point x="328" y="32" type="line"/>
      <point x="269" y="35" type="line" smooth="yes"/>
      <point x="242" y="36"/>
      <point x="232" y="45"/>
      <point x="232" y="66" type="curve" smooth="yes"/>
      <point x="232" y="77"/>
      <point x="233" y="89"/>
      <point x="235" y="100" type="curve" smooth="yes"/>
      <point x="328" y="635" type="line"/>
      <point x="354" y="637"/>
      <point x="371" y="638"/>
      <point x="390" y="638" type="curve" smooth="yes"/>
      <point x="487" y="638"/>
      <point x="527" y="606"/>
      <point x="527" y="529" type="curve" smooth="yes"/>
      <point x="527" y="437"/>
      <point x="461" y="370"/>
      <point x="369" y="370" type="curve" smooth="yes"/>
      <point x="314" y="370" type="line"/>
      <point x="309" y="353" type="line"/>
      <point x="313" y="347"/>
      <point x="317" y="340"/>
      <point x="322" y="334" type="curve"/>
      <point x="347" y="296"/>
      <point x="363" y="270"/>
      <point x="370" y="258" type="curve" smooth="yes"/>
      <point x="515" y="-3" type="line"/>
      <point x="599" y="0" type="line"/>
      <point x="650" y="-1"/>
      <point x="660" y="-1"/>
      <point x="697" y="-3" type="curve"/>
      <point x="697" y="27" type="line"/>
      <point x="660" y="34" type="line"/>
      <point x="649" y="35"/>
      <point x="624" y="61"/>
      <point x="610" y="86" type="curve" smooth="yes"/>
      <point x="454" y="353" type="line"/>
      <point x="518" y="365"/>
      <point x="548" y="376"/>
      <point x="582" y="398" type="curve" smooth="yes"/>
      <point x="632" y="430"/>
      <point x="659" y="480"/>
      <point x="659" y="538" type="curve" smooth="yes"/>
      <point x="659" y="633"/>
      <point x="592" y="681"/>
      <point x="460" y="681" type="curve" smooth="yes"/>
      <point x="449" y="681"/>
      <point x="403" y="680"/>
      <point x="377" y="679" type="curve" smooth="yes"/>
      <point x="277" y="678" type="line" smooth="yes"/>
      <point x="240" y="678"/>
      <point x="240" y="678"/>
      <point x="107" y="681" type="curve"/>
      <point x="102" y="649" type="line"/>
      <point x="148" y="646" type="line" smooth="yes"/>
      <point x="184" y="644"/>
      <point x="194" y="637"/>
      <point x="194" y="614" type="curve" smooth="yes"/>
      <point x="194" y="609"/>
      <point x="193" y="601"/>
      <point x="192" y="594" type="curve" smooth="yes"/>
      <point x="111" y="132" type="line" smooth="yes"/>
      <point x="95" y="47"/>
      <point x="90" y="37"/>
      <point x="57" y="35" type="curve" smooth="yes"/>
    </contour>
  </outline>
</glyph>
<glyph name="V" format="1">
  <advance width="667"/>
  <unicode hex="0056"/>
  <outline>
    <contour>
      <point x="363" y="646" type="line"/>
      <point x="363" y="681" type="line"/>
      <point x="240" y="678"/>
      <point x="240" y="678"/>
      <point x="215" y="678" type="curve" smooth="yes"/>
      <point x="189" y="678"/>
      <point x="189" y="678"/>
      <point x="67" y="681" type="curve"/>
      <point x="67" y="646" type="line"/>
      <point x="110" y="643" type="line" smooth="yes"/>
      <point x="136" y="641"/>
      <point x="147" y="627"/>
      <point x="154" y="585" type="curve" smooth="yes"/>
      <point x="249" y="-3" type="line"/>
      <point x="332" y="-3" type="line"/>
      <point x="666" y="598" type="line" smooth="yes"/>
      <point x="687" y="633"/>
      <point x="695" y="641"/>
      <point x="716" y="643" type="curve" smooth="yes"/>
      <point x="742" y="646" type="line"/>
      <point x="745" y="681" type="line"/>
      <point x="745" y="681"/>
      <point x="637" y="678"/>
      <point x="637" y="678" type="curve"/>
      <point x="626" y="678"/>
      <point x="612" y="678"/>
      <point x="528" y="681" type="curve"/>
      <point x="523" y="646" type="line"/>
      <point x="573" y="643" type="line" smooth="yes"/>
      <point x="596" y="642"/>
      <point x="606" y="635"/>
      <point x="606" y="621" type="curve" smooth="yes"/>
      <point x="606" y="609"/>
      <point x="602" y="599"/>
      <point x="585" y="567" type="curve" smooth="yes"/>
      <point x="352" y="132" type="line"/>
      <point x="284" y="594" type="line" smooth="yes"/>
      <point x="283" y="600"/>
      <point x="283" y="602"/>
      <point x="283" y="607" type="curve" smooth="yes"/>
      <point x="283" y="636"/>
      <point x="288" y="641"/>
      <point x="313" y="643" type="curve" smooth="yes"/>
    </contour>
  </outline>
</glyph>
<glyph name="W" format="1">
  <advance width="1000"/>
  <unicode hex="0057"/>
  <outline>
    <contour>
      <point x="538" y="491" type="line"/>
      <point x="669" y="-3" type="line"/>
      <point x="753" y="-3" type="line"/>
      <point x="972" y="542" type="line" smooth="yes"/>
      <point x="1008" y="628"/>
      <point x="1016" y="642"/>
      <point x="1034" y="643" type="curve" smooth="yes"/>
      <point x="1068" y="646" type="line"/>
      <point x="1073" y="681" type="line"/>
      <point x="983" y="678"/>
      <point x="983" y="678"/>
      <point x="964" y="678" type="curve" smooth="yes"/>
      <point x="945" y="678"/>
      <point x="945" y="678"/>
      <point x="855" y="681" type="curve"/>
      <point x="850" y="646" type="line"/>
      <point x="895" y="643" type="line" smooth="yes"/>
      <point x="929" y="641"/>
      <point x="940" y="635"/>
      <point x="940" y="619" type="curve" smooth="yes"/>
      <point x="940" y="609"/>
      <point x="939" y="605"/>
      <point x="929" y="579" type="curve" smooth="yes"/>
      <point x="760" y="133" type="line"/>
      <point x="612" y="689" type="line"/>
      <point x="581" y="689" type="line"/>
      <point x="316" y="145" type="line"/>
      <point x="281" y="593" type="line"/>
      <point x="281" y="628"/>
      <point x="289" y="640"/>
      <point x="318" y="643" type="curve" smooth="yes"/>
      <point x="363" y="646" type="line"/>
      <point x="363" y="681" type="line"/>
      <point x="241" y="678"/>
      <point x="241" y="678"/>
      <point x="217" y="678" type="curve" smooth="yes"/>
      <point x="192" y="678"/>
      <point x="192" y="678"/>
      <point x="72" y="681" type="curve"/>
      <point x="67" y="646" type="line"/>
      <point x="108" y="643" type="line"/>
      <point x="146" y="637"/>
      <point x="149" y="630"/>
      <point x="156" y="539" type="curve"/>
      <point x="156" y="535"/>
      <point x="157" y="528"/>
      <point x="158" y="518" type="curve" smooth="yes"/>
      <point x="208" y="-3" type="line"/>
      <point x="292" y="-3" type="line"/>
    </contour>
  </outline>
</glyph>
<glyph name="bracketleft" format="1">
  <advance width="333"/>
  <unicode hex="005B"/>
  <outline>
    <contour>
      <point x="376" y="684" type="line"/>
      <point x="381" y="723" type="line"/>
      <point x="311" y="721"/>
      <point x="288" y="720"/>
      <point x="268" y="720" type="curve" smooth="yes"/>
      <point x="245" y="720"/>
      <point x="225" y="721"/>
      <point x="177" y="723" type="curve"/>
      <point x="170" y="715" type="line"/>
      <point x="168" y="672"/>
      <point x="167" y="660"/>
      <point x="165" y="645" type="curve" smooth="yes"/>
      <point x="81" y="86" type="line" smooth="yes"/>
      <point x="75" y="44"/>
      <point x="67" y="6"/>
      <point x="45" y="-94" type="curve"/>
      <point x="50" y="-102" type="line"/>
      <point x="113" y="-99"/>
      <point x="117" y="-99"/>
      <point x="144" y="-99" type="curve" smooth="yes"/>
      <point x="165" y="-99"/>
      <point x="213" y="-100"/>
      <point x="264" y="-102" type="curve"/>
      <point x="269" y="-67" type="line"/>
      <point x="182" y="-63" type="line" smooth="yes"/>
      <point x="161" y="-62"/>
      <point x="152" y="-49"/>
      <point x="152" y="-21" type="curve" smooth="yes"/>
      <point x="152" y="-7"/>
      <point x="155" y="15"/>
      <point x="161" y="56" type="curve" smooth="yes"/>
      <point x="247" y="603" type="line" smooth="yes"/>
      <point x="261" y="684"/>
      <point x="261" y="685"/>
      <point x="301" y="686" type="curve"/>
    </contour>
  </outline>
</glyph>
<glyph name="backslash" format="1">
  <advance width="606"/>
  <unicode hex="005C"/>
  <outline>
    <contour>
      <point x="72" y="720" type="line"/>
      <point x="444" y="0" type="line"/>
      <point x="534" y="0" type="line"/>
      <point x="162" y="720" type="line"/>
    </contour>
  </outline>
</glyph>
<glyph name="bracketright" format="1">
  <advance width="333"/>
  <unicode hex="005D"/>
  <outline>
    <contour>
      <point x="-16" y="-63" type="line"/>
      <point x="-21" y="-102" type="line"/>
      <point x="49" y="-100"/>
      <point x="72" y="-99"/>
      <point x="91" y="-99" type="curve" smooth="yes"/>
      <point x="114" y="-99"/>
      <point x="135" y="-100"/>
      <point x="183" y="-102" type="curve"/>
      <point x="190" y="-94" type="line"/>
      <point x="192" y="-56"/>
      <point x="193" y="-39"/>
      <point x="195" y="-24" type="curve" smooth="yes"/>
      <point x="279" y="535" type="line" smooth="yes"/>
      <point x="286" y="579"/>
      <point x="294" y="620"/>
      <point x="315" y="715" type="curve"/>
      <point x="310" y="723" type="line"/>
      <point x="260" y="721"/>
      <point x="240" y="720"/>
      <point x="214" y="720" type="curve" smooth="yes"/>
      <point x="194" y="720"/>
      <point x="162" y="721"/>
      <point x="96" y="723" type="curve"/>
      <point x="91" y="688" type="line"/>
      <point x="178" y="684" type="line" smooth="yes"/>
      <point x="198" y="683"/>
      <point x="208" y="670"/>
      <point x="208" y="643" type="curve" smooth="yes"/>
      <point x="208" y="628"/>
      <point x="205" y="605"/>
      <point x="199" y="565" type="curve" smooth="yes"/>
      <point x="113" y="18" type="line" smooth="yes"/>
      <point x="99" y="-63"/>
      <point x="99" y="-64"/>
      <point x="59" y="-65" type="curve"/>
    </contour>
  </outline>
</glyph>
<glyph name="asciicircum" format="1">
  <advance width="606"/>
  <unicode hex="005E"/>
  <outline>
    <contour>
      <point x="160" y="275" type="line"/>
      <point x="303" y="554" type="line"/>
      <point x="446" y="275" type="line"/>
      <point x="543" y="275" type="line"/>
      <point x="342" y="678" type="line"/>
      <point x="263" y="678" type="line"/>
      <point x="63" y="275" type="line"/>
    </contour>
  </outline>
</glyph>
<glyph name="grave" format="1">
  <advance width="333"/>
  <unicode hex="0060"/>
  <outline>
    <contour>
      <point x="277" y="518" type="line"/>
      <point x="322" y="518" type="line"/>
      <point x="218" y="655" type="line" smooth="yes"/>
      <point x="195" y="686"/>
      <point x="176" y="699"/>
      <point x="157" y="699" type="curve" smooth="yes"/>
      <point x="133" y="699"/>
      <point x="110" y="678"/>
      <point x="110" y="656" type="curve" smooth="yes"/>
      <point x="110" y="635"/>
      <point x="119" y="623"/>
      <point x="154" y="600" type="curve" smooth="yes"/>
    </contour>
  </outline>
</glyph>
<glyph name="b" format="1">
  <advance width="537"/>
  <unicode hex="0062"/>
  <outline>
    <contour>
      <point x="255" y="726" type="line"/>
      <point x="206" y="706"/>
      <point x="157" y="695"/>
      <point x="57" y="680" type="curve"/>
      <point x="50" y="652" type="line"/>
      <point x="95" y="652" type="line" smooth="yes"/>
      <point x="118" y="652"/>
      <point x="129" y="644"/>
      <point x="129" y="627" type="curve" smooth="yes"/>
      <point x="129" y="618"/>
      <point x="128" y="608"/>
      <point x="126" y="596" type="curve" smooth="yes"/>
      <point x="53" y="165" type="line" smooth="yes"/>
      <point x="45" y="120"/>
      <point x="44" y="109"/>
      <point x="44" y="93" type="curve" smooth="yes"/>
      <point x="44" y="24"/>
      <point x="90" y="-17"/>
      <point x="165" y="-17" type="curve" smooth="yes"/>
      <point x="212" y="-17"/>
      <point x="272" y="1"/>
      <point x="324" y="31" type="curve" smooth="yes"/>
      <point x="436" y="96"/>
      <point x="494" y="206"/>
      <point x="494" y="353" type="curve" smooth="yes"/>
      <point x="494" y="428"/>
      <point x="468" y="469"/>
      <point x="420" y="469" type="curve" smooth="yes"/>
      <point x="374" y="469"/>
      <point x="327" y="451"/>
      <point x="279" y="416" type="curve" smooth="yes"/>
      <point x="242" y="389"/>
      <point x="220" y="363"/>
      <point x="180" y="304" type="curve"/>
      <point x="251" y="652" type="line" smooth="yes"/>
      <point x="254" y="667"/>
      <point x="257" y="683"/>
      <point x="265" y="717" type="curve"/>
    </contour>
    <contour>
      <point x="341" y="403" type="curve" smooth="yes"/>
      <point x="366" y="400"/>
      <point x="380" y="369"/>
      <point x="380" y="319" type="curve" smooth="yes"/>
      <point x="380" y="268"/>
      <point x="356" y="172"/>
      <point x="331" y="121" type="curve" smooth="yes"/>
      <point x="301" y="61"/>
      <point x="263" y="29"/>
      <point x="222" y="29" type="curve" smooth="yes"/>
      <point x="180" y="29"/>
      <point x="154" y="63"/>
      <point x="154" y="118" type="curve" smooth="yes"/>
      <point x="154" y="163"/>
      <point x="169" y="226"/>
      <point x="193" y="277" type="curve" smooth="yes"/>
      <point x="223" y="340"/>
      <point x="302" y="407"/>
    </contour>
  </outline>
</glyph>
<glyph name="f" format="1">
  <advance width="333"/>
  <unicode hex="0066"/>
  <outline>
    <contour>
      <point x="362" y="403" type="line"/>
      <point x="369" y="429"/>
      <point x="372" y="440"/>
      <point x="378" y="454" type="curve"/>
      <point x="373" y="462" type="line"/>
      <point x="324" y="457"/>
      <point x="293" y="455"/>
      <point x="250" y="454" type="curve"/>
      <point x="253" y="467"/>
      <point x="255" y="479"/>
      <point x="256" y="483" type="curve"/>
      <point x="279" y="615"/>
      <point x="294" y="646"/>
      <point x="333" y="646" type="curve" smooth="yes"/>
      <point x="359" y="646"/>
      <point x="375" y="634"/>
      <point x="406" y="590" type="curve"/>
      <point x="421" y="593" type="line"/>
      <point x="429" y="640"/>
      <point x="436" y="670"/>
      <point x="449" y="718" type="curve"/>
      <point x="427" y="724"/>
      <point x="416" y="726"/>
      <point x="402" y="726" type="curve" smooth="yes"/>
      <point x="381" y="726"/>
      <point x="370" y="722"/>
      <point x="345" y="707" type="curve" smooth="yes"/>
      <point x="316" y="689"/>
      <point x="281" y="664"/>
      <point x="266" y="651" type="curve" smooth="yes"/>
      <point x="210" y="602" type="line" smooth="yes"/>
      <point x="166" y="561"/>
      <point x="155" y="542"/>
      <point x="143" y="483" type="curve" smooth="yes"/>
      <point x="141" y="472"/>
      <point x="140" y="469"/>
      <point x="139" y="463" type="curve"/>
      <point x="129" y="458"/>
      <point x="114" y="452"/>
      <point x="89" y="444" type="curve" smooth="yes"/>
      <point x="39" y="428" type="line"/>
      <point x="34" y="403" type="line"/>
      <point x="125" y="403" type="line"/>
      <point x="54" y="29" type="line" smooth="yes"/>
      <point x="51" y="12"/>
      <point x="47" y="-6"/>
      <point x="46" y="-14" type="curve"/>
      <point x="17" y="-168"/>
      <point x="6" y="-196"/>
      <point x="-30" y="-196" type="curve" smooth="yes"/>
      <point x="-52" y="-196"/>
      <point x="-67" y="-183"/>
      <point x="-81" y="-152" type="curve"/>
      <point x="-98" y="-155" type="line"/>
      <point x="-103" y="-183"/>
      <point x="-119" y="-238"/>
      <point x="-130" y="-262" type="curve"/>
      <point x="-121" y="-267"/>
      <point x="-104" y="-271"/>
      <point x="-92" y="-271" type="curve" smooth="yes"/>
      <point x="-58" y="-271"/>
      <point x="4" y="-231"/>
      <point x="44" y="-184" type="curve" smooth="yes"/>
      <point x="106" y="-111"/>
      <point x="136" y="-36"/>
      <point x="184" y="168" type="curve" smooth="yes"/>
      <point x="239" y="403" type="line"/>
    </contour>
  </outline>
</glyph>
<glyph name="h" format="1">
  <advance width="556"/>
  <unicode hex="0068"/>
  <outline>
    <contour>
      <point x="269" y="652" type="line" smooth="yes"/>
      <point x="270" y="658"/>
      <point x="274" y="671"/>
      <point x="279" y="689" type="curve" smooth="yes"/>
      <point x="280" y="693"/>
      <point x="283" y="706"/>
      <point x="286" y="717" type="curve"/>
      <point x="276" y="726" type="line"/>
      <point x="227" y="706"/>
      <point x="178" y="695"/>
      <point x="78" y="680" type="curve"/>
      <point x="71" y="652" type="line"/>
      <point x="116" y="652" type="line" smooth="yes"/>
      <point x="139" y="652"/>
      <point x="150" y="644"/>
      <point x="150" y="627" type="curve" smooth="yes"/>
      <point x="150" y="604"/>
      <point x="131" y="488"/>
      <point x="102" y="334" type="curve" smooth="yes"/>
      <point x="69" y="158"/>
      <point x="40" y="35"/>
      <point x="22" y="-2" type="curve"/>
      <point x="32" y="-13" type="line"/>
      <point x="54" y="-6"/>
      <point x="102" y="2"/>
      <point x="138" y="4" type="curve"/>
      <point x="147" y="80"/>
      <point x="167" y="153"/>
      <point x="194" y="208" type="curve" smooth="yes"/>
      <point x="240" y="302"/>
      <point x="315" y="381"/>
      <point x="359" y="381" type="curve" smooth="yes"/>
      <point x="372" y="381"/>
      <point x="379" y="370"/>
      <point x="379" y="352" type="curve" smooth="yes"/>
      <point x="379" y="333"/>
      <point x="371" y="295"/>
      <point x="354" y="237" type="curve" smooth="yes"/>
      <point x="320" y="117"/>
      <point x="306" y="55"/>
      <point x="306" y="24" type="curve" smooth="yes"/>
      <point x="306" y="1"/>
      <point x="319" y="-17"/>
      <point x="337" y="-17" type="curve" smooth="yes"/>
      <point x="371" y="-17"/>
      <point x="418" y="8"/>
      <point x="522" y="79" type="curve"/>
      <point x="513" y="105" type="line"/>
      <point x="497" y="95" type="line" smooth="yes"/>
      <point x="462" y="73"/>
      <point x="445" y="65"/>
      <point x="436" y="65" type="curve" smooth="yes"/>
      <point x="428" y="65"/>
      <point x="424" y="71"/>
      <point x="424" y="81" type="curve" smooth="yes"/>
      <point x="424" y="103"/>
      <point x="427" y="124"/>
      <point x="432" y="144" type="curve" smooth="yes"/>
      <point x="470" y="288" type="line" smooth="yes"/>
      <point x="473" y="300"/>
      <point x="475" y="306"/>
      <point x="481" y="325" type="curve" smooth="yes"/>
      <point x="496" y="376"/>
      <point x="501" y="401"/>
      <point x="501" y="425" type="curve" smooth="yes"/>
      <point x="501" y="451"/>
      <point x="486" y="469"/>
      <point x="463" y="469" type="curve" smooth="yes"/>
      <point x="378" y="469"/>
      <point x="264" y="378"/>
      <point x="180" y="244" type="curve"/>
    </contour>
  </outline>
</glyph>
<glyph name="i" format="1">
  <advance width="333"/>
  <unicode hex="0069"/>
  <outline>
    <contour>
      <point x="26" y="346" type="line"/>
      <point x="39" y="320" type="line"/>
      <point x="61" y="336" type="line" smooth="yes"/>
      <point x="80" y="350"/>
      <point x="121" y="370"/>
      <point x="130" y="370" type="curve" smooth="yes"/>
      <point x="136" y="370"/>
      <point x="140" y="366"/>
      <point x="140" y="359" type="curve" smooth="yes"/>
      <point x="140" y="354"/>
      <point x="138" y="343"/>
      <point x="132" y="319" type="curve" smooth="yes"/>
      <point x="73" y="78" type="line" smooth="yes"/>
      <point x="70" y="64"/>
      <point x="67" y="41"/>
      <point x="67" y="26" type="curve" smooth="yes"/>
      <point x="67" y="0"/>
      <point x="80" y="-17"/>
      <point x="99" y="-17" type="curve" smooth="yes"/>
      <point x="137" y="-17"/>
      <point x="184" y="6"/>
      <point x="265" y="64" type="curve" smooth="yes"/>
      <point x="278" y="74"/>
      <point x="282" y="76"/>
      <point x="293" y="84" type="curve"/>
      <point x="281" y="112" type="line"/>
      <point x="254" y="95" type="line" smooth="yes"/>
      <point x="220" y="74"/>
      <point x="202" y="65"/>
      <point x="193" y="65" type="curve" smooth="yes"/>
      <point x="187" y="65"/>
      <point x="181" y="71"/>
      <point x="181" y="77" type="curve" smooth="yes"/>
      <point x="181" y="89"/>
      <point x="188" y="122"/>
      <point x="201" y="169" type="curve" smooth="yes"/>
      <point x="255" y="365" type="line" smooth="yes"/>
      <point x="260" y="383"/>
      <point x="264" y="413"/>
      <point x="264" y="432" type="curve" smooth="yes"/>
      <point x="264" y="454"/>
      <point x="253" y="469"/>
      <point x="238" y="469" type="curve" smooth="yes"/>
      <point x="210" y="469"/>
      <point x="150" y="439"/>
      <point x="89" y="393" type="curve" smooth="yes"/>
    </contour>
    <contour>
      <point x="257" y="695" type="curve" smooth="yes"/>
      <point x="219" y="695"/>
      <point x="189" y="662"/>
      <point x="189" y="621" type="curve" smooth="yes"/>
      <point x="189" y="586"/>
      <point x="210" y="564"/>
      <point x="243" y="564" type="curve" smooth="yes"/>
      <point x="283" y="564"/>
      <point x="312" y="595"/>
      <point x="312" y="636" type="curve" smooth="yes"/>
      <point x="312" y="670"/>
      <point x="289" y="695"/>
    </contour>
  </outline>
</glyph>
<glyph name="k" format="1">
  <advance width="556"/>
  <unicode hex="006B"/>
  <outline>
    <contour>
      <point x="286" y="726" type="line"/>
      <point x="237" y="706"/>
      <point x="188" y="695"/>
      <point x="88" y="680" type="curve"/>
      <point x="81" y="652" type="line"/>
      <point x="126" y="652" type="line" smooth="yes"/>
      <point x="149" y="652"/>
      <point x="160" y="644"/>
      <point x="160" y="627" type="curve" smooth="yes"/>
      <point x="160" y="604"/>
      <point x="141" y="488"/>
      <point x="112" y="334" type="curve" smooth="yes"/>
      <point x="81" y="169"/>
      <point x="51" y="38"/>
      <point x="34" y="-5" type="curve"/>
      <point x="44" y="-14" type="line"/>
      <point x="104" y="-1"/>
      <point x="120" y="2"/>
      <point x="149" y="4" type="curve"/>
      <point x="151" y="37"/>
      <point x="153" y="53"/>
      <point x="165" y="110" type="curve" smooth="yes"/>
      <point x="177" y="170"/>
      <point x="179" y="176"/>
      <point x="200" y="201" type="curve" smooth="yes"/>
      <point x="231" y="235" type="line"/>
      <point x="288" y="80" type="line" smooth="yes"/>
      <point x="315" y="7"/>
      <point x="331" y="-17"/>
      <point x="354" y="-17" type="curve" smooth="yes"/>
      <point x="379" y="-17"/>
      <point x="421" y="3"/>
      <point x="476" y="42" type="curve" smooth="yes"/>
      <point x="520" y="73" type="line"/>
      <point x="510" y="102" type="line"/>
      <point x="483" y="85" type="line" smooth="yes"/>
      <point x="460" y="71"/>
      <point x="447" y="65"/>
      <point x="437" y="65" type="curve" smooth="yes"/>
      <point x="420" y="65"/>
      <point x="396" y="98"/>
      <point x="378" y="145" type="curve" smooth="yes"/>
      <point x="313" y="318" type="line"/>
      <point x="359" y="372"/>
      <point x="407" y="398"/>
      <point x="459" y="398" type="curve" smooth="yes"/>
      <point x="474" y="398"/>
      <point x="486" y="396"/>
      <point x="508" y="390" type="curve"/>
      <point x="528" y="460" type="line"/>
      <point x="513" y="466"/>
      <point x="497" y="469"/>
      <point x="485" y="469" type="curve" smooth="yes"/>
      <point x="438" y="469"/>
      <point x="394" y="445"/>
      <point x="331" y="385" type="curve" smooth="yes"/>
      <point x="273" y="330"/>
      <point x="224" y="276"/>
      <point x="184" y="221" type="curve"/>
      <point x="279" y="652" type="line"/>
      <point x="280" y="658"/>
      <point x="284" y="671"/>
      <point x="289" y="689" type="curve"/>
      <point x="290" y="695"/>
      <point x="292" y="703"/>
      <point x="296" y="717" type="curve"/>
    </contour>
  </outline>
</glyph>
<glyph name="n" format="1">
  <advance width="556"/>
  <unicode hex="006E"/>
  <outline>
    <contour>
      <point x="30" y="331" type="line"/>
      <point x="62" y="353" type="line" smooth="yes"/>
      <point x="78" y="364"/>
      <point x="92" y="370"/>
      <point x="103" y="370" type="curve" smooth="yes"/>
      <point x="110" y="370"/>
      <point x="114" y="364"/>
      <point x="114" y="353" type="curve" smooth="yes"/>
      <point x="114" y="298"/>
      <point x="75" y="136"/>
      <point x="29" y="-2" type="curve"/>
      <point x="39" y="-13" type="line"/>
      <point x="61" y="-6"/>
      <point x="109" y="2"/>
      <point x="145" y="4" type="curve"/>
      <point x="151" y="50"/>
      <point x="168" y="120"/>
      <point x="181" y="154" type="curve" smooth="yes"/>
      <point x="219" y="260"/>
      <point x="310" y="370"/>
      <point x="358" y="370" type="curve" smooth="yes"/>
      <point x="371" y="370"/>
      <point x="378" y="363"/>
      <point x="378" y="349" type="curve" smooth="yes"/>
      <point x="378" y="333"/>
      <point x="368" y="288"/>
      <point x="353" y="237" type="curve" smooth="yes"/>
      <point x="321" y="125"/>
      <point x="305" y="54"/>
      <point x="305" y="25" type="curve" smooth="yes"/>
      <point x="305" y="1"/>
      <point x="320" y="-17"/>
      <point x="341" y="-17" type="curve" smooth="yes"/>
      <point x="377" y="-17"/>
      <point x="417" y="3"/>
      <point x="492" y="59" type="curve" smooth="yes"/>
      <point x="521" y="80" type="line"/>
      <point x="508" y="107" type="line"/>
      <point x="479" y="87" type="line" smooth="yes"/>
      <point x="455" y="71"/>
      <point x="444" y="65"/>
      <point x="434" y="65" type="curve" smooth="yes"/>
      <point x="427" y="65"/>
      <point x="423" y="71"/>
      <point x="423" y="82" type="curve" smooth="yes"/>
      <point x="423" y="100"/>
      <point x="428" y="128"/>
      <point x="436" y="160" type="curve" smooth="yes"/>
      <point x="484" y="344" type="line" smooth="yes"/>
      <point x="494" y="382"/>
      <point x="500" y="414"/>
      <point x="500" y="427" type="curve" smooth="yes"/>
      <point x="500" y="452"/>
      <point x="484" y="469"/>
      <point x="461" y="469" type="curve" smooth="yes"/>
      <point x="414" y="469"/>
      <point x="333" y="418"/>
      <point x="266" y="344" type="curve" smooth="yes"/>
      <point x="231" y="307"/>
      <point x="214" y="282"/>
      <point x="179" y="222" type="curve"/>
      <point x="196" y="282" type="line" smooth="yes"/>
      <point x="224" y="382"/>
      <point x="230" y="411"/>
      <point x="230" y="439" type="curve" smooth="yes"/>
      <point x="230" y="458"/>
      <point x="220" y="469"/>
      <point x="203" y="469" type="curve" smooth="yes"/>
      <point x="179" y="469"/>
      <point x="146" y="454"/>
      <point x="101" y="420" type="curve" smooth="yes"/>
      <point x="17" y="358" type="line"/>
    </contour>
  </outline>
</glyph>
<glyph name="p" format="1">
  <advance width="556"/>
  <unicode hex="0070"/>
  <outline>
    <contour>
      <point x="-11" y="-271" type="line"/>
      <point x="2" y="-269"/>
      <point x="6" y="-268"/>
      <point x="21" y="-264" type="curve"/>
      <point x="64" y="-255"/>
      <point x="83" y="-252"/>
      <point x="101" y="-250" type="curve"/>
      <point x="105" y="-190"/>
      <point x="113" y="-152"/>
      <point x="149" y="-10" type="curve"/>
      <point x="170" y="-15"/>
      <point x="184" y="-17"/>
      <point x="205" y="-17" type="curve" smooth="yes"/>
      <point x="238" y="-17"/>
      <point x="266" y="-11"/>
      <point x="291" y="0" type="curve" smooth="yes"/>
      <point x="318" y="13"/>
      <point x="371" y="50"/>
      <point x="409" y="82" type="curve" smooth="yes"/>
      <point x="474" y="138"/>
      <point x="516" y="251"/>
      <point x="516" y="370" type="curve" smooth="yes"/>
      <point x="516" y="436"/>
      <point x="497" y="469"/>
      <point x="460" y="469" type="curve" smooth="yes"/>
      <point x="413" y="469"/>
      <point x="366" y="448"/>
      <point x="312" y="403" type="curve" smooth="yes"/>
      <point x="268" y="366"/>
      <point x="242" y="332"/>
      <point x="195" y="253" type="curve"/>
      <point x="201" y="281"/>
      <point x="208" y="309"/>
      <point x="210" y="321" type="curve"/>
      <point x="224" y="381"/>
      <point x="230" y="417"/>
      <point x="230" y="438" type="curve" smooth="yes"/>
      <point x="230" y="458"/>
      <point x="221" y="469"/>
      <point x="203" y="469" type="curve" smooth="yes"/>
      <point x="179" y="469"/>
      <point x="146" y="454"/>
      <point x="101" y="420" type="curve" smooth="yes"/>
      <point x="17" y="358" type="line"/>
      <point x="30" y="331" type="line"/>
      <point x="62" y="353" type="line" smooth="yes"/>
      <point x="78" y="364"/>
      <point x="92" y="370"/>
      <point x="103" y="370" type="curve" smooth="yes"/>
      <point x="110" y="370"/>
      <point x="114" y="364"/>
      <point x="114" y="354" type="curve" smooth="yes"/>
      <point x="114" y="324"/>
      <point x="114" y="324"/>
      <point x="90" y="198" type="curve" smooth="yes"/>
      <point x="11" y="-142" type="line" smooth="yes"/>
      <point x="-2" y="-197"/>
      <point x="-9" y="-224"/>
      <point x="-21" y="-264" type="curve"/>
    </contour>
    <contour>
      <point x="175" y="121" type="line" smooth="yes"/>
      <point x="191" y="191"/>
      <point x="203" y="222"/>
      <point x="237" y="274" type="curve" smooth="yes"/>
      <point x="284" y="346"/>
      <point x="337" y="391"/>
      <point x="374" y="391" type="curve" smooth="yes"/>
      <point x="392" y="391"/>
      <point x="402" y="371"/>
      <point x="402" y="333" type="curve" smooth="yes"/>
      <point x="402" y="264"/>
      <point x="372" y="152"/>
      <point x="335" y="86" type="curve" smooth="yes"/>
      <point x="316" y="52"/>
      <point x="287" y="32"/>
      <point x="255" y="32" type="curve" smooth="yes"/>
      <point x="223" y="32"/>
      <point x="194" y="40"/>
      <point x="161" y="59" type="curve"/>
    </contour>
  </outline>
</glyph>
<glyph name="q" format="1">
  <advance width="537"/>
  <unicode hex="0071"/>
  <outline>
    <contour>
      <point x="448" y="443" type="line"/>
      <point x="409" y="462"/>
      <point x="377" y="469"/>
      <point x="332" y="469" type="curve" smooth="yes"/>
      <point x="294" y="469"/>
      <point x="281" y="464"/>
      <point x="236" y="436" type="curve" smooth="yes"/>
      <point x="171" y="395"/>
      <point x="120" y="353"/>
      <point x="103" y="328" type="curve" smooth="yes"/>
      <point x="68" y="276"/>
      <point x="32" y="137"/>
      <point x="32" y="56" type="curve" smooth="yes"/>
      <point x="32" y="15"/>
      <point x="54" y="-17"/>
      <point x="83" y="-17" type="curve" smooth="yes"/>
      <point x="154" y="-17"/>
      <point x="237" y="51"/>
      <point x="345" y="194" type="curve"/>
      <point x="262" y="-165" type="line"/>
      <point x="261" y="-169" type="line"/>
      <point x="261" y="-169"/>
      <point x="260" y="-171"/>
      <point x="260" y="-173" type="curve"/>
      <point x="250" y="-212"/>
      <point x="242" y="-235"/>
      <point x="234" y="-241" type="curve" smooth="yes"/>
      <point x="219" y="-253" type="line"/>
      <point x="228" y="-271" type="line"/>
      <point x="283" y="-259"/>
      <point x="315" y="-255"/>
      <point x="360" y="-252" type="curve"/>
      <point x="359" y="-246"/>
      <point x="359" y="-242"/>
      <point x="359" y="-241" type="curve" smooth="yes"/>
      <point x="359" y="-217"/>
      <point x="366" y="-176"/>
      <point x="378" y="-123" type="curve"/>
      <point x="379" y="-117" type="line"/>
      <point x="380" y="-113" type="line"/>
      <point x="472" y="315" type="line" smooth="yes"/>
      <point x="490" y="396"/>
      <point x="499" y="428"/>
      <point x="513" y="458" type="curve"/>
      <point x="495" y="469" type="line"/>
    </contour>
    <contour>
      <point x="374" y="357" type="line" smooth="yes"/>
      <point x="356" y="271"/>
      <point x="331" y="218"/>
      <point x="279" y="154" type="curve" smooth="yes"/>
      <point x="229" y="94"/>
      <point x="193" y="65"/>
      <point x="168" y="65" type="curve" smooth="yes"/>
      <point x="155" y="65"/>
      <point x="146" y="78"/>
      <point x="146" y="98" type="curve" smooth="yes"/>
      <point x="146" y="164"/>
      <point x="191" y="326"/>
      <point x="223" y="379" type="curve" smooth="yes"/>
      <point x="240" y="406"/>
      <point x="262" y="417"/>
      <point x="298" y="417" type="curve" smooth="yes"/>
      <point x="325" y="417"/>
      <point x="347" y="412"/>
      <point x="382" y="396" type="curve"/>
    </contour>
  </outline>
</glyph>
<glyph name="s" format="1">
  <advance width="444"/>
  <unicode hex="0073"/>
  <outline>
    <contour>
      <point x="76" y="141" type="line"/>
      <point x="46" y="141" type="line"/>
      <point x="42" y="100"/>
      <point x="38" y="72"/>
      <point x="25" y="10" type="curve"/>
      <point x="92" y="-11"/>
      <point x="124" y="-17"/>
      <point x="162" y="-17" type="curve" smooth="yes"/>
      <point x="227" y="-17"/>
      <point x="289" y="10"/>
      <point x="348" y="66" type="curve" smooth="yes"/>
      <point x="381" y="97"/>
      <point x="394" y="123"/>
      <point x="394" y="160" type="curve" smooth="yes"/>
      <point x="394" y="212"/>
      <point x="357" y="251"/>
      <point x="296" y="265" type="curve" smooth="yes"/>
      <point x="237" y="278" type="line" smooth="yes"/>
      <point x="180" y="291"/>
      <point x="161" y="306"/>
      <point x="161" y="341" type="curve" smooth="yes"/>
      <point x="161" y="385"/>
      <point x="194" y="414"/>
      <point x="243" y="414" type="curve" smooth="yes"/>
      <point x="283" y="414"/>
      <point x="314" y="401"/>
      <point x="353" y="370" type="curve"/>
      <point x="359" y="322" type="line"/>
      <point x="389" y="322" type="line"/>
      <point x="389" y="346"/>
      <point x="391" y="357"/>
      <point x="400" y="405" type="curve" smooth="yes"/>
      <point x="406" y="438" type="line"/>
      <point x="365" y="460"/>
      <point x="330" y="469"/>
      <point x="284" y="469" type="curve" smooth="yes"/>
      <point x="236" y="469"/>
      <point x="198" y="453"/>
      <point x="131" y="405" type="curve" smooth="yes"/>
      <point x="85" y="372"/>
      <point x="68" y="343"/>
      <point x="68" y="298" type="curve" smooth="yes"/>
      <point x="68" y="239"/>
      <point x="106" y="201"/>
      <point x="182" y="186" type="curve" smooth="yes"/>
      <point x="226" y="177" type="line" smooth="yes"/>
      <point x="272" y="168"/>
      <point x="294" y="146"/>
      <point x="294" y="110" type="curve" smooth="yes"/>
      <point x="294" y="66"/>
      <point x="260" y="38"/>
      <point x="206" y="38" type="curve" smooth="yes"/>
      <point x="156" y="38"/>
      <point x="110" y="58"/>
      <point x="76" y="94" type="curve"/>
    </contour>
  </outline>
</glyph>
<glyph name="t" format="1">
  <advance width="389"/>
  <unicode hex="0074"/>
  <outline>
    <contour>
      <point x="151" y="401" type="line"/>
      <point x="89" y="108" type="line" smooth="yes"/>
      <point x="80" y="64"/>
      <point x="79" y="59"/>
      <point x="79" y="44" type="curve" smooth="yes"/>
      <point x="79" y="5"/>
      <point x="98" y="-17"/>
      <point x="133" y="-17" type="curve" smooth="yes"/>
      <point x="170" y="-17"/>
      <point x="210" y="1"/>
      <point x="266" y="42" type="curve" smooth="yes"/>
      <point x="343" y="99" type="line"/>
      <point x="330" y="125" type="line"/>
      <point x="274" y="85" type="line" smooth="yes"/>
      <point x="252" y="70"/>
      <point x="238" y="64"/>
      <point x="221" y="64" type="curve" smooth="yes"/>
      <point x="202" y="64"/>
      <point x="196" y="71"/>
      <point x="196" y="92" type="curve" smooth="yes"/>
      <point x="196" y="113"/>
      <point x="199" y="136"/>
      <point x="205" y="164" type="curve" smooth="yes"/>
      <point x="256" y="401" type="line"/>
      <point x="303" y="401" type="line" smooth="yes"/>
      <point x="342" y="401"/>
      <point x="363" y="400"/>
      <point x="395" y="396" type="curve"/>
      <point x="409" y="452" type="line"/>
      <point x="409" y="452"/>
      <point x="403" y="457"/>
      <point x="403" y="457" type="curve"/>
      <point x="403" y="457"/>
      <point x="269" y="452"/>
      <point x="269" y="452" type="curve"/>
      <point x="282" y="508" type="line" smooth="yes"/>
      <point x="289" y="538"/>
      <point x="297" y="566"/>
      <point x="313" y="624" type="curve"/>
      <point x="303" y="636" type="line"/>
      <point x="237" y="612" type="line" smooth="yes"/>
      <point x="218" y="605"/>
      <point x="202" y="601"/>
      <point x="180" y="598" type="curve"/>
      <point x="180" y="582" type="line" smooth="yes"/>
      <point x="180" y="556"/>
      <point x="178" y="537"/>
      <point x="164" y="460" type="curve"/>
      <point x="49" y="428" type="line"/>
      <point x="42" y="401" type="line"/>
    </contour>
  </outline>
</glyph>
<glyph name="v" format="1">
  <advance width="556"/>
  <unicode hex="0076"/>
  <outline>
    <contour>
      <point x="19" y="324" type="line"/>
      <point x="47" y="324" type="line"/>
      <point x="75" y="384" type="line"/>
      <point x="77" y="390"/>
      <point x="89" y="392"/>
      <point x="117" y="392" type="curve" smooth="yes"/>
      <point x="184" y="392"/>
      <point x="220" y="395"/>
      <point x="254" y="403" type="curve"/>
      <point x="213" y="362" type="line" smooth="yes"/>
      <point x="119" y="268"/>
      <point x="87" y="207"/>
      <point x="87" y="123" type="curve" smooth="yes"/>
      <point x="87" y="35"/>
      <point x="131" y="-17"/>
      <point x="205" y="-17" type="curve" smooth="yes"/>
      <point x="260" y="-17"/>
      <point x="319" y="12"/>
      <point x="368" y="63" type="curve" smooth="yes"/>
      <point x="452" y="149"/>
      <point x="513" y="279"/>
      <point x="513" y="370" type="curve" smooth="yes"/>
      <point x="513" y="423"/>
      <point x="480" y="469"/>
      <point x="443" y="469" type="curve" smooth="yes"/>
      <point x="435" y="469"/>
      <point x="429" y="468"/>
      <point x="417" y="465" type="curve"/>
      <point x="385" y="428"/>
      <point x="370" y="412"/>
      <point x="351" y="398" type="curve"/>
      <point x="361" y="377" type="line"/>
      <point x="370" y="385"/>
      <point x="383" y="389"/>
      <point x="397" y="389" type="curve" smooth="yes"/>
      <point x="420" y="389"/>
      <point x="436" y="366"/>
      <point x="436" y="334" type="curve" smooth="yes"/>
      <point x="436" y="278"/>
      <point x="412" y="195"/>
      <point x="378" y="135" type="curve" smooth="yes"/>
      <point x="344" y="76"/>
      <point x="306" y="46"/>
      <point x="263" y="46" type="curve" smooth="yes"/>
      <point x="220" y="46"/>
      <point x="197" y="82"/>
      <point x="197" y="147" type="curve" smooth="yes"/>
      <point x="197" y="187"/>
      <point x="204" y="227"/>
      <point x="217" y="269" type="curve" smooth="yes"/>
      <point x="240" y="338"/>
      <point x="265" y="380"/>
      <point x="324" y="450" type="curve"/>
      <point x="310" y="469" type="line"/>
      <point x="298" y="461"/>
      <point x="270" y="455"/>
      <point x="246" y="455" type="curve" smooth="yes"/>
      <point x="243" y="455"/>
      <point x="238" y="455"/>
      <point x="231" y="456" type="curve"/>
      <point x="147" y="460"/>
      <point x="128" y="461"/>
      <point x="111" y="461" type="curve" smooth="yes"/>
      <point x="95" y="461"/>
      <point x="82" y="460"/>
      <point x="60" y="456" type="curve"/>
    </contour>
  </outline>
</glyph>
<glyph name="w" format="1">
  <advance width="833"/>
  <unicode hex="0077"/>
  <outline>
    <contour>
      <point x="27" y="324" type="line"/>
      <point x="55" y="324" type="line"/>
      <point x="83" y="384" type="line"/>
      <point x="85" y="390"/>
      <point x="97" y="392"/>
      <point x="125" y="392" type="curve" smooth="yes"/>
      <point x="192" y="392"/>
      <point x="228" y="395"/>
      <point x="262" y="403" type="curve"/>
      <point x="221" y="362" type="line" smooth="yes"/>
      <point x="124" y="265"/>
      <point x="91" y="204"/>
      <point x="91" y="120" type="curve" smooth="yes"/>
      <point x="91" y="36"/>
      <point x="130" y="-17"/>
      <point x="192" y="-17" type="curve" smooth="yes"/>
      <point x="222" y="-17"/>
      <point x="249" y="-7"/>
      <point x="282" y="17" type="curve" smooth="yes"/>
      <point x="333" y="53"/>
      <point x="365" y="94"/>
      <point x="408" y="177" type="curve"/>
      <point x="401" y="133"/>
      <point x="399" y="115"/>
      <point x="399" y="90" type="curve" smooth="yes"/>
      <point x="399" y="25"/>
      <point x="436" y="-17"/>
      <point x="493" y="-17" type="curve" smooth="yes"/>
      <point x="546" y="-17"/>
      <point x="606" y="13"/>
      <point x="657" y="65" type="curve" smooth="yes"/>
      <point x="741" y="152"/>
      <point x="802" y="281"/>
      <point x="802" y="371" type="curve" smooth="yes"/>
      <point x="802" y="423"/>
      <point x="769" y="469"/>
      <point x="732" y="469" type="curve" smooth="yes"/>
      <point x="724" y="469"/>
      <point x="718" y="468"/>
      <point x="706" y="465" type="curve"/>
      <point x="685" y="441"/>
      <point x="669" y="427"/>
      <point x="635" y="404" type="curve"/>
      <point x="647" y="381" type="line"/>
      <point x="658" y="386"/>
      <point x="670" y="389"/>
      <point x="683" y="389" type="curve" smooth="yes"/>
      <point x="709" y="389"/>
      <point x="725" y="368"/>
      <point x="725" y="335" type="curve" smooth="yes"/>
      <point x="725" y="282"/>
      <point x="700" y="198"/>
      <point x="665" y="137" type="curve" smooth="yes"/>
      <point x="631" y="77"/>
      <point x="593" y="46"/>
      <point x="553" y="46" type="curve" smooth="yes"/>
      <point x="519" y="46"/>
      <point x="496" y="79"/>
      <point x="496" y="127" type="curve" smooth="yes"/>
      <point x="496" y="188"/>
      <point x="519" y="299"/>
      <point x="564" y="460" type="curve"/>
      <point x="552" y="469" type="line"/>
      <point x="511" y="453"/>
      <point x="484" y="447"/>
      <point x="445" y="442" type="curve"/>
      <point x="442" y="413"/>
      <point x="440" y="403"/>
      <point x="435" y="378" type="curve" smooth="yes"/>
      <point x="411" y="269" type="line" smooth="yes"/>
      <point x="386" y="154"/>
      <point x="309" y="46"/>
      <point x="253" y="46" type="curve" smooth="yes"/>
      <point x="224" y="46"/>
      <point x="205" y="85"/>
      <point x="205" y="146" type="curve" smooth="yes"/>
      <point x="205" y="186"/>
      <point x="212" y="227"/>
      <point x="225" y="269" type="curve" smooth="yes"/>
      <point x="248" y="338"/>
      <point x="272" y="380"/>
      <point x="332" y="450" type="curve"/>
      <point x="318" y="469" type="line"/>
      <point x="306" y="461"/>
      <point x="278" y="455"/>
      <point x="254" y="455" type="curve" smooth="yes"/>
      <point x="251" y="455"/>
      <point x="246" y="455"/>
      <point x="239" y="456" type="curve"/>
      <point x="155" y="460"/>
      <point x="136" y="461"/>
      <point x="119" y="461" type="curve" smooth="yes"/>
      <point x="103" y="461"/>
      <point x="90" y="460"/>
      <point x="68" y="456" type="curve"/>
    </contour>
  </outline>
</glyph>
<glyph name="z" format="1">
  <advance width="500"/>
  <unicode hex="007A"/>
  <outline>
    <contour>
      <point x="31" y="25" type="line"/>
      <point x="47" y="-5" type="line"/>
      <point x="72" y="15"/>
      <point x="94" y="22"/>
      <point x="124" y="22" type="curve" smooth="yes"/>
      <point x="149" y="22"/>
      <point x="173" y="19"/>
      <point x="197" y="12" type="curve" smooth="yes"/>
      <point x="273" y="-9"/>
      <point x="321" y="-17"/>
      <point x="365" y="-17" type="curve" smooth="yes"/>
      <point x="407" y="-17"/>
      <point x="416" y="-8"/>
      <point x="422" y="33" type="curve" smooth="yes"/>
      <point x="424" y="51"/>
      <point x="440" y="108"/>
      <point x="451" y="138" type="curve"/>
      <point x="423" y="140" type="line"/>
      <point x="395" y="82" type="line"/>
      <point x="388" y="81"/>
      <point x="384" y="81"/>
      <point x="382" y="81" type="curve" smooth="yes"/>
      <point x="367" y="81"/>
      <point x="351" y="83"/>
      <point x="328" y="87" type="curve" smooth="yes"/>
      <point x="289" y="94"/>
      <point x="256" y="97"/>
      <point x="226" y="97" type="curve" smooth="yes"/>
      <point x="200" y="97"/>
      <point x="176" y="91"/>
      <point x="128" y="74" type="curve"/>
      <point x="456" y="411" type="line"/>
      <point x="470" y="461" type="line"/>
      <point x="450" y="469" type="line"/>
      <point x="441" y="456" type="line" smooth="yes"/>
      <point x="431" y="441"/>
      <point x="408" y="432"/>
      <point x="383" y="432" type="curve" smooth="yes"/>
      <point x="354" y="432"/>
      <point x="321" y="437"/>
      <point x="271" y="450" type="curve" smooth="yes"/>
      <point x="218" y="464"/>
      <point x="193" y="469"/>
      <point x="176" y="469" type="curve" smooth="yes"/>
      <point x="160" y="469"/>
      <point x="140" y="465"/>
      <point x="119" y="459" type="curve"/>
      <point x="74" y="320" type="line"/>
      <point x="103" y="317" type="line"/>
      <point x="126" y="369" type="line"/>
      <point x="138" y="368"/>
      <point x="142" y="367"/>
      <point x="148" y="367" type="curve"/>
      <point x="208" y="360"/>
      <point x="256" y="356"/>
      <point x="288" y="356" type="curve" smooth="yes"/>
      <point x="318" y="356"/>
      <point x="341" y="362"/>
      <point x="377" y="379" type="curve"/>
    </contour>
  </outline>
</glyph>
<glyph name="braceleft" format="1">
  <advance width="333"/>
  <unicode hex="007B"/>
  <outline>
    <contour>
      <point x="242" y="609" type="line" smooth="yes"/>
      <point x="254" y="675"/>
      <point x="275" y="701"/>
      <point x="334" y="718" type="curve"/>
      <point x="334" y="720" type="line"/>
      <point x="266" y="720" type="line" smooth="yes"/>
      <point x="244" y="720"/>
      <point x="209" y="705"/>
      <point x="187" y="686" type="curve" smooth="yes"/>
      <point x="163" y="665"/>
      <point x="152" y="641"/>
      <point x="143" y="591" type="curve" smooth="yes"/>
      <point x="112" y="411" type="line" smooth="yes"/>
      <point x="101" y="344"/>
      <point x="76" y="317"/>
      <point x="18" y="307" type="curve"/>
      <point x="18" y="305" type="line"/>
      <point x="64" y="291"/>
      <point x="79" y="275"/>
      <point x="79" y="238" type="curve" smooth="yes"/>
      <point x="79" y="227"/>
      <point x="77" y="212"/>
      <point x="75" y="198" type="curve" smooth="yes"/>
      <point x="47" y="39" type="line" smooth="yes"/>
      <point x="42" y="13"/>
      <point x="40" y="-9"/>
      <point x="40" y="-23" type="curve" smooth="yes"/>
      <point x="40" y="-63"/>
      <point x="79" y="-105"/>
      <point x="117" y="-105" type="curve" smooth="yes"/>
      <point x="191" y="-105" type="line"/>
      <point x="191" y="-103" type="line"/>
      <point x="149" y="-91"/>
      <point x="134" y="-72"/>
      <point x="134" y="-31" type="curve" smooth="yes"/>
      <point x="134" y="-20"/>
      <point x="135" y="-9"/>
      <point x="137" y="3" type="curve" smooth="yes"/>
      <point x="166" y="171" type="line" smooth="yes"/>
      <point x="170" y="192"/>
      <point x="172" y="214"/>
      <point x="172" y="228" type="curve" smooth="yes"/>
      <point x="172" y="271"/>
      <point x="153" y="293"/>
      <point x="104" y="306" type="curve"/>
      <point x="171" y="319"/>
      <point x="197" y="349"/>
      <point x="211" y="429" type="curve" smooth="yes"/>
    </contour>
  </outline>
</glyph>
<glyph name="braceright" format="1">
  <advance width="333"/>
  <unicode hex="007D"/>
  <outline>
    <contour>
      <point x="91" y="6" type="line" smooth="yes"/>
      <point x="79" y="-60"/>
      <point x="58" y="-86"/>
      <point x="-1" y="-103" type="curve"/>
      <point x="-1" y="-105" type="line"/>
      <point x="67" y="-105" type="line" smooth="yes"/>
      <point x="89" y="-105"/>
      <point x="124" y="-90"/>
      <point x="146" y="-71" type="curve" smooth="yes"/>
      <point x="170" y="-50"/>
      <point x="181" y="-26"/>
      <point x="190" y="24" type="curve" smooth="yes"/>
      <point x="221" y="204" type="line" smooth="yes"/>
      <point x="232" y="270"/>
      <point x="257" y="298"/>
      <point x="315" y="308" type="curve"/>
      <point x="315" y="310" type="line"/>
      <point x="269" y="324"/>
      <point x="254" y="340"/>
      <point x="254" y="377" type="curve" smooth="yes"/>
      <point x="254" y="388"/>
      <point x="256" y="403"/>
      <point x="258" y="417" type="curve" smooth="yes"/>
      <point x="286" y="576" type="line"/>
      <point x="287" y="580" type="line"/>
      <point x="287" y="585" type="line"/>
      <point x="292" y="613"/>
      <point x="293" y="624"/>
      <point x="293" y="635" type="curve" smooth="yes"/>
      <point x="293" y="678"/>
      <point x="255" y="720"/>
      <point x="216" y="720" type="curve" smooth="yes"/>
      <point x="142" y="720" type="line"/>
      <point x="142" y="718" type="line"/>
      <point x="184" y="706"/>
      <point x="199" y="687"/>
      <point x="199" y="646" type="curve" smooth="yes"/>
      <point x="199" y="635"/>
      <point x="198" y="623"/>
      <point x="196" y="612" type="curve" smooth="yes"/>
      <point x="167" y="444" type="line" smooth="yes"/>
      <point x="163" y="422"/>
      <point x="161" y="401"/>
      <point x="161" y="387" type="curve" smooth="yes"/>
      <point x="161" y="344"/>
      <point x="180" y="322"/>
      <point x="229" y="309" type="curve"/>
      <point x="162" y="296"/>
      <point x="136" y="266"/>
      <point x="122" y="186" type="curve" smooth="yes"/>
    </contour>
  </outline>
</glyph>
<glyph name="asciitilde" format="1">
  <advance width="606"/>
  <unicode hex="007E"/>
  <outline>
    <contour>
      <point x="494" y="326" type="line"/>
      <point x="464" y="277"/>
      <point x="443" y="260"/>
      <point x="411" y="260" type="curve" smooth="yes"/>
      <point x="390" y="260"/>
      <point x="369" y="267"/>
      <point x="302" y="296" type="curve" smooth="yes"/>
      <point x="240" y="323"/>
      <point x="221" y="329"/>
      <point x="193" y="329" type="curve" smooth="yes"/>
      <point x="139" y="329"/>
      <point x="98" y="296"/>
      <point x="51" y="216" type="curve"/>
      <point x="112" y="177" type="line"/>
      <point x="142" y="226"/>
      <point x="163" y="243"/>
      <point x="195" y="243" type="curve" smooth="yes"/>
      <point x="216" y="243"/>
      <point x="237" y="236"/>
      <point x="304" y="207" type="curve" smooth="yes"/>
      <point x="366" y="180"/>
      <point x="385" y="174"/>
      <point x="413" y="174" type="curve" smooth="yes"/>
      <point x="467" y="174"/>
      <point x="508" y="207"/>
      <point x="555" y="287" type="curve"/>
    </contour>
  </outline>
</glyph>
<glyph name="exclamdown" format="1">
  <advance width="333"/>
  <unicode hex="00A1"/>
  <outline>
    <contour>
      <point x="196" y="479" type="curve" smooth="yes"/>
      <point x="152" y="479"/>
      <point x="120" y="442"/>
      <point x="120" y="391" type="curve" smooth="yes"/>
      <point x="120" y="353"/>
      <point x="147" y="327"/>
      <point x="185" y="327" type="curve" smooth="yes"/>
      <point x="228" y="327"/>
      <point x="259" y="364"/>
      <point x="259" y="415" type="curve" smooth="yes"/>
      <point x="259" y="455"/>
      <point x="235" y="479"/>
    </contour>
    <contour>
      <point x="145" y="252" type="line"/>
      <point x="131" y="196"/>
      <point x="123" y="164"/>
      <point x="112" y="130" type="curve" smooth="yes"/>
      <point x="2" y="-216" type="line"/>
      <point x="14" y="-225" type="line"/>
      <point x="141" y="-196" type="line"/>
      <point x="154" y="-196" type="line"/>
      <point x="154" y="-163" type="line"/>
      <point x="197" y="267" type="line"/>
      <point x="184" y="276" type="line"/>
    </contour>
  </outline>
</glyph>
<glyph name="cent" format="1">
  <advance width="500"/>
  <unicode hex="00A2"/>
  <outline>
    <contour>
      <point x="369" y="547" type="line"/>
      <point x="340" y="469" type="line"/>
      <point x="292" y="465"/>
      <point x="254" y="453"/>
      <point x="221" y="430" type="curve" smooth="yes"/>
      <point x="143" y="374" type="line" smooth="yes"/>
      <point x="94" y="339"/>
      <point x="52" y="226"/>
      <point x="52" y="129" type="curve" smooth="yes"/>
      <point x="52" y="44"/>
      <point x="79" y="7"/>
      <point x="157" y="-15" type="curve"/>
      <point x="123" y="-105" type="line"/>
      <point x="163" y="-105" type="line"/>
      <point x="196" y="-17" type="line"/>
      <point x="262" y="-7"/>
      <point x="307" y="11"/>
      <point x="361" y="48" type="curve" smooth="yes"/>
      <point x="421" y="90" type="line"/>
      <point x="410" y="121" type="line"/>
      <point x="347" y="69"/>
      <point x="298" y="51"/>
      <point x="222" y="50" type="curve"/>
      <point x="353" y="394" type="line"/>
      <point x="381" y="384"/>
      <point x="391" y="377"/>
      <point x="391" y="367" type="curve" smooth="yes"/>
      <point x="391" y="305" type="line"/>
      <point x="420" y="303" type="line"/>
      <point x="456" y="442" type="line"/>
      <point x="432" y="456"/>
      <point x="415" y="461"/>
      <point x="381" y="465" type="curve"/>
      <point x="411" y="547" type="line"/>
    </contour>
    <contour>
      <point x="190" y="71" type="line"/>
      <point x="173" y="99"/>
      <point x="167" y="119"/>
      <point x="167" y="151" type="curve" smooth="yes"/>
      <point x="167" y="228"/>
      <point x="195" y="331"/>
      <point x="227" y="373" type="curve" smooth="yes"/>
      <point x="246" y="397"/>
      <point x="265" y="404"/>
      <point x="317" y="405" type="curve"/>
    </contour>
  </outline>
</glyph>
<glyph name="sterling" format="1">
  <advance width="500"/>
  <unicode hex="00A3"/>
  <outline>
    <contour>
      <point x="387" y="315" type="line"/>
      <point x="393" y="355" type="line"/>
      <point x="244" y="355" type="line"/>
      <point x="281" y="544" type="line" smooth="yes"/>
      <point x="291" y="597"/>
      <point x="324" y="627"/>
      <point x="373" y="627" type="curve" smooth="yes"/>
      <point x="415" y="627"/>
      <point x="444" y="606"/>
      <point x="444" y="574" type="curve" smooth="yes"/>
      <point x="444" y="535" type="line"/>
      <point x="467" y="529" type="line"/>
      <point x="501" y="658" type="line"/>
      <point x="463" y="675"/>
      <point x="433" y="683"/>
      <point x="403" y="683" type="curve" smooth="yes"/>
      <point x="361" y="683"/>
      <point x="283" y="646"/>
      <point x="229" y="601" type="curve" smooth="yes"/>
      <point x="171" y="551"/>
      <point x="146" y="491"/>
      <point x="130" y="355" type="curve"/>
      <point x="45" y="355" type="line"/>
      <point x="39" y="315" type="line"/>
      <point x="127" y="315" type="line"/>
      <point x="115" y="115"/>
      <point x="107" y="97"/>
      <point x="21" y="54" type="curve"/>
      <point x="21" y="32"/>
      <point x="23" y="17"/>
      <point x="30" y="-5" type="curve"/>
      <point x="41" y="-5" type="line" smooth="yes"/>
      <point x="47" y="-5"/>
      <point x="58" y="2"/>
      <point x="71" y="13" type="curve" smooth="yes"/>
      <point x="94" y="33"/>
      <point x="111" y="42"/>
      <point x="126" y="42" type="curve" smooth="yes"/>
      <point x="136" y="42"/>
      <point x="169" y="37"/>
      <point x="196" y="31" type="curve" smooth="yes"/>
      <point x="356" y="-4"/>
      <point x="356" y="-4"/>
      <point x="400" y="-4" type="curve" smooth="yes"/>
      <point x="427" y="-4"/>
      <point x="445" y="4"/>
      <point x="449" y="18" type="curve" smooth="yes"/>
      <point x="496" y="192" type="line"/>
      <point x="465" y="192" type="line"/>
      <point x="442" y="134" type="line" smooth="yes"/>
      <point x="433" y="111"/>
      <point x="417" y="103"/>
      <point x="382" y="103" type="curve" smooth="yes"/>
      <point x="363" y="103"/>
      <point x="337" y="105"/>
      <point x="318" y="107" type="curve" smooth="yes"/>
      <point x="287" y="111"/>
      <point x="268" y="112"/>
      <point x="242" y="112" type="curve" smooth="yes"/>
      <point x="192" y="112"/>
      <point x="168" y="109"/>
      <point x="129" y="99" type="curve"/>
      <point x="185" y="157"/>
      <point x="204" y="195"/>
      <point x="236" y="315" type="curve"/>
    </contour>
  </outline>
</glyph>
<glyph name="yen" format="1">
  <advance width="500"/>
  <unicode hex="00A5"/>
  <outline>
    <contour>
      <point x="538" y="681" type="line"/>
      <point x="467" y="684"/>
      <point x="357" y="520"/>
      <point x="279" y="296" type="curve"/>
      <point x="249" y="466" type="line" smooth="yes"/>
      <point x="239" y="524"/>
      <point x="216" y="598"/>
      <point x="197" y="633" type="curve" smooth="yes"/>
      <point x="175" y="673"/>
      <point x="144" y="695"/>
      <point x="110" y="695" type="curve" smooth="yes"/>
      <point x="105" y="695"/>
      <point x="99" y="694"/>
      <point x="87" y="690" type="curve"/>
      <point x="49" y="652"/>
      <point x="32" y="637"/>
      <point x="11" y="620" type="curve"/>
      <point x="13" y="587" type="line"/>
      <point x="22" y="593"/>
      <point x="37" y="597"/>
      <point x="52" y="597" type="curve" smooth="yes"/>
      <point x="85" y="597"/>
      <point x="123" y="539"/>
      <point x="144" y="456" type="curve" smooth="yes"/>
      <point x="171" y="350" type="line"/>
      <point x="88" y="350" type="line"/>
      <point x="80" y="310" type="line"/>
      <point x="182" y="310" type="line"/>
      <point x="189" y="266"/>
      <point x="190" y="258"/>
      <point x="191" y="235" type="curve"/>
      <point x="76" y="235" type="line"/>
      <point x="68" y="195" type="line"/>
      <point x="184" y="195" type="line"/>
      <point x="174" y="132" type="line" smooth="yes"/>
      <point x="158" y="44"/>
      <point x="155" y="38"/>
      <point x="127" y="35" type="curve" smooth="yes"/>
      <point x="85" y="32" type="line"/>
      <point x="82" y="-3" type="line"/>
      <point x="201" y="0"/>
      <point x="201" y="0"/>
      <point x="217" y="0" type="curve" smooth="yes"/>
      <point x="232" y="0"/>
      <point x="232" y="0"/>
      <point x="354" y="-3" type="curve"/>
      <point x="357" y="32" type="line"/>
      <point x="307" y="35" type="line" smooth="yes"/>
      <point x="284" y="36"/>
      <point x="276" y="45"/>
      <point x="276" y="67" type="curve" smooth="yes"/>
      <point x="276" y="74"/>
      <point x="277" y="95"/>
      <point x="278" y="100" type="curve" smooth="yes"/>
      <point x="293" y="195" type="line"/>
      <point x="412" y="195" type="line"/>
      <point x="419" y="235" type="line"/>
      <point x="300" y="235" type="line"/>
      <point x="325" y="310" type="line"/>
      <point x="424" y="310" type="line"/>
      <point x="431" y="350" type="line"/>
      <point x="344" y="350" type="line"/>
      <point x="397" y="485"/>
      <point x="471" y="581"/>
      <point x="533" y="593" type="curve"/>
    </contour>
  </outline>
</glyph>
<glyph name="brokenbar" format="1">
  <advance width="606"/>
  <unicode hex="00A6"/>
  <outline>
    <contour>
      <point x="259" y="720" type="line"/>
      <point x="259" y="432" type="line"/>
      <point x="347" y="432" type="line"/>
      <point x="347" y="720" type="line"/>
    </contour>
    <contour>
      <point x="259" y="0" type="line"/>
      <point x="347" y="0" type="line"/>
      <point x="347" y="288" type="line"/>
      <point x="259" y="288" type="line"/>
    </contour>
  </outline>
</glyph>
<glyph name="section" format="1">
  <advance width="556"/>
  <unicode hex="00A7"/>
  <outline>
    <contour>
      <point x="109" y="48" type="line"/>
      <point x="76" y="48" type="line"/>
      <point x="47" y="-87" type="line"/>
      <point x="98" y="-132"/>
      <point x="147" y="-151"/>
      <point x="207" y="-151" type="curve" smooth="yes"/>
      <point x="263" y="-151"/>
      <point x="319" y="-131"/>
      <point x="360" y="-96" type="curve" smooth="yes"/>
      <point x="409" y="-54"/>
      <point x="438" y="-2"/>
      <point x="438" y="44" type="curve" smooth="yes"/>
      <point x="438" y="80"/>
      <point x="424" y="110"/>
      <point x="392" y="138" type="curve"/>
      <point x="456" y="182"/>
      <point x="486" y="231"/>
      <point x="486" y="291" type="curve" smooth="yes"/>
      <point x="486" y="338"/>
      <point x="457" y="380"/>
      <point x="403" y="412" type="curve" smooth="yes"/>
      <point x="286" y="481" type="line" smooth="yes"/>
      <point x="235" y="511"/>
      <point x="215" y="536"/>
      <point x="215" y="569" type="curve" smooth="yes"/>
      <point x="215" y="614"/>
      <point x="255" y="646"/>
      <point x="311" y="646" type="curve" smooth="yes"/>
      <point x="356" y="646"/>
      <point x="393" y="630"/>
      <point x="439" y="591" type="curve"/>
      <point x="436" y="518" type="line"/>
      <point x="470" y="518" type="line"/>
      <point x="497" y="646" type="line"/>
      <point x="440" y="681"/>
      <point x="394" y="695"/>
      <point x="336" y="695" type="curve" smooth="yes"/>
      <point x="294" y="695"/>
      <point x="257" y="683"/>
      <point x="221" y="659" type="curve" smooth="yes"/>
      <point x="172" y="625"/>
      <point x="136" y="563"/>
      <point x="136" y="512" type="curve" smooth="yes"/>
      <point x="136" y="486"/>
      <point x="149" y="461"/>
      <point x="177" y="435" type="curve"/>
      <point x="105" y="380"/>
      <point x="81" y="343"/>
      <point x="81" y="286" type="curve" smooth="yes"/>
      <point x="81" y="231"/>
      <point x="106" y="192"/>
      <point x="163" y="159" type="curve" smooth="yes"/>
      <point x="298" y="81" type="line" smooth="yes"/>
      <point x="330" y="62"/>
      <point x="354" y="28"/>
      <point x="354" y="-1" type="curve" smooth="yes"/>
      <point x="354" y="-56"/>
      <point x="294" y="-107"/>
      <point x="230" y="-107" type="curve" smooth="yes"/>
      <point x="183" y="-107"/>
      <point x="143" y="-85"/>
      <point x="104" y="-37" type="curve"/>
    </contour>
    <contour>
      <point x="238" y="227" type="line" smooth="yes"/>
      <point x="190" y="254"/>
      <point x="164" y="288"/>
      <point x="164" y="325" type="curve" smooth="yes"/>
      <point x="164" y="354"/>
      <point x="178" y="379"/>
      <point x="211" y="409" type="curve"/>
      <point x="327" y="342" type="line" smooth="yes"/>
      <point x="354" y="326"/>
      <point x="371" y="315"/>
      <point x="379" y="309" type="curve"/>
      <point x="398" y="291"/>
      <point x="411" y="266"/>
      <point x="411" y="243" type="curve" smooth="yes"/>
      <point x="411" y="208"/>
      <point x="386" y="172"/>
      <point x="355" y="161" type="curve"/>
    </contour>
  </outline>
</glyph>
<glyph name="dieresis" format="1">
  <advance width="333"/>
  <unicode hex="00A8"/>
  <outline>
    <contour>
      <point x="370" y="668" type="curve" smooth="yes"/>
      <point x="333" y="668"/>
      <point x="303" y="635"/>
      <point x="303" y="594" type="curve" smooth="yes"/>
      <point x="303" y="559"/>
      <point x="324" y="537"/>
      <point x="357" y="537" type="curve" smooth="yes"/>
      <point x="397" y="537"/>
      <point x="426" y="567"/>
      <point x="426" y="608" type="curve" smooth="yes"/>
      <point x="426" y="643"/>
      <point x="403" y="668"/>
    </contour>
    <contour>
      <point x="157" y="668" type="curve" smooth="yes"/>
      <point x="120" y="668"/>
      <point x="90" y="635"/>
      <point x="90" y="594" type="curve" smooth="yes"/>
      <point x="90" y="559"/>
      <point x="111" y="537"/>
      <point x="144" y="537" type="curve" smooth="yes"/>
      <point x="184" y="537"/>
      <point x="213" y="567"/>
      <point x="213" y="608" type="curve" smooth="yes"/>
      <point x="213" y="643"/>
      <point x="190" y="668"/>
    </contour>
  </outline>
</glyph>
<glyph name="ordfeminine" format="1">
  <advance width="333"/>
  <unicode hex="00AA"/>
  <outline>
    <contour>
      <point x="307" y="667" type="line"/>
      <point x="277" y="679"/>
      <point x="262" y="683"/>
      <point x="239" y="683" type="curve" smooth="yes"/>
      <point x="217" y="683"/>
      <point x="201" y="679"/>
      <point x="186" y="671" type="curve" smooth="yes"/>
      <point x="141" y="645"/>
      <point x="113" y="625"/>
      <point x="100" y="613" type="curve"/>
      <point x="77" y="589"/>
      <point x="47" y="495"/>
      <point x="47" y="443" type="curve" smooth="yes"/>
      <point x="47" y="411"/>
      <point x="60" y="391"/>
      <point x="80" y="391" type="curve" smooth="yes"/>
      <point x="133" y="391"/>
      <point x="191" y="445"/>
      <point x="252" y="548" type="curve"/>
      <point x="226" y="451" type="line" smooth="yes"/>
      <point x="224" y="444"/>
      <point x="222" y="427"/>
      <point x="222" y="418" type="curve" smooth="yes"/>
      <point x="222" y="401"/>
      <point x="230" y="391"/>
      <point x="242" y="391" type="curve" smooth="yes"/>
      <point x="270" y="391"/>
      <point x="307" y="411"/>
      <point x="355" y="451" type="curve"/>
      <point x="348" y="469" type="line"/>
      <point x="335" y="459" type="line" smooth="yes"/>
      <point x="323" y="450"/>
      <point x="305" y="441"/>
      <point x="299" y="441" type="curve"/>
      <point x="290" y="454" type="line"/>
      <point x="290" y="459"/>
      <point x="291" y="463"/>
      <point x="293" y="473" type="curve" smooth="yes"/>
      <point x="294" y="477"/>
      <point x="295" y="480"/>
      <point x="295" y="482" type="curve"/>
      <point x="296" y="485" type="line"/>
      <point x="326" y="613" type="line" smooth="yes"/>
      <point x="328" y="622"/>
      <point x="330" y="628"/>
      <point x="330" y="630" type="curve"/>
      <point x="331" y="634"/>
      <point x="334" y="642"/>
      <point x="337" y="651" type="curve" smooth="yes"/>
      <point x="346" y="676" type="line"/>
      <point x="336" y="684" type="line"/>
    </contour>
    <contour>
      <point x="263" y="639" type="curve"/>
      <point x="255" y="594"/>
      <point x="242" y="562"/>
      <point x="216" y="522" type="curve" smooth="yes"/>
      <point x="188" y="478"/>
      <point x="149" y="441"/>
      <point x="131" y="441" type="curve" smooth="yes"/>
      <point x="125" y="441"/>
      <point x="120" y="451"/>
      <point x="120" y="463" type="curve" smooth="yes"/>
      <point x="120" y="489"/>
      <point x="140" y="569"/>
      <point x="155" y="604" type="curve" smooth="yes"/>
      <point x="170" y="639"/>
      <point x="185" y="652"/>
      <point x="211" y="652" type="curve" smooth="yes"/>
      <point x="227" y="652"/>
      <point x="241" y="648"/>
    </contour>
  </outline>
</glyph>
<glyph name="guillemotleft" format="1">
  <advance width="500"/>
  <unicode hex="00AB"/>
  <outline>
    <contour>
      <point x="267" y="426" type="line"/>
      <point x="245" y="446" type="line"/>
      <point x="126" y="337" type="line"/>
      <point x="35" y="256" type="line"/>
      <point x="35" y="235" type="line"/>
      <point x="104" y="159" type="line" smooth="yes"/>
      <point x="110" y="153"/>
      <point x="105" y="159"/>
      <point x="119" y="142" type="curve" smooth="yes"/>
      <point x="134" y="124" type="line"/>
      <point x="179" y="71" type="line"/>
      <point x="203" y="43" type="line"/>
      <point x="228" y="57" type="line"/>
      <point x="141" y="243" type="line"/>
    </contour>
    <contour>
      <point x="458" y="426" type="line"/>
      <point x="436" y="446" type="line"/>
      <point x="317" y="337" type="line"/>
      <point x="226" y="256" type="line"/>
      <point x="226" y="235" type="line"/>
      <point x="295" y="159" type="line" smooth="yes"/>
      <point x="301" y="153"/>
      <point x="296" y="159"/>
      <point x="310" y="142" type="curve" smooth="yes"/>
      <point x="325" y="124" type="line"/>
      <point x="370" y="71" type="line"/>
      <point x="394" y="43" type="line"/>
      <point x="419" y="57" type="line"/>
      <point x="332" y="243" type="line"/>
    </contour>
  </outline>
</glyph>
<glyph name="logicalnot" format="1">
  <advance width="606"/>
  <unicode hex="00AC"/>
  <outline>
    <contour>
      <point x="467" y="302" type="line"/>
      <point x="467" y="107" type="line"/>
      <point x="555" y="107" type="line"/>
      <point x="555" y="390" type="line"/>
      <point x="51" y="390" type="line"/>
      <point x="51" y="302" type="line"/>
    </contour>
  </outline>
</glyph>
<glyph name="macron" format="1">
  <advance width="333"/>
  <unicode hex="00AF"/>
  <outline>
    <contour>
      <point x="418" y="608" type="line"/>
      <point x="93" y="608" type="line"/>
      <point x="76" y="538" type="line"/>
      <point x="402" y="538" type="line"/>
    </contour>
  </outline>
</glyph>
<glyph name="degree" format="1">
  <advance width="400"/>
  <unicode hex="00B0"/>
  <outline>
    <contour>
      <point x="202" y="683" type="curve" smooth="yes"/>
      <point x="117" y="683"/>
      <point x="50" y="617"/>
      <point x="50" y="533" type="curve" smooth="yes"/>
      <point x="50" y="450"/>
      <point x="117" y="383"/>
      <point x="200" y="383" type="curve" smooth="yes"/>
      <point x="282" y="383"/>
      <point x="350" y="450"/>
      <point x="350" y="533" type="curve" smooth="yes"/>
      <point x="350" y="614"/>
      <point x="282" y="683"/>
    </contour>
    <contour>
      <point x="200" y="622" type="curve" smooth="yes"/>
      <point x="248" y="622"/>
      <point x="289" y="581"/>
      <point x="289" y="533" type="curve" smooth="yes"/>
      <point x="289" y="484"/>
      <point x="249" y="444"/>
      <point x="200" y="444" type="curve" smooth="yes"/>
      <point x="151" y="444"/>
      <point x="111" y="484"/>
      <point x="111" y="534" type="curve" smooth="yes"/>
      <point x="111" y="583"/>
      <point x="150" y="622"/>
    </contour>
  </outline>
</glyph>
<glyph name="plusminus" format="1">
  <advance width="606"/>
  <unicode hex="00B1"/>
  <outline>
    <contour>
      <point x="51" y="0" type="line"/>
      <point x="555" y="0" type="line"/>
      <point x="555" y="88" type="line"/>
      <point x="51" y="88" type="line"/>
    </contour>
    <contour>
      <point x="259" y="359" type="line"/>
      <point x="50" y="359" type="line"/>
      <point x="50" y="271" type="line"/>
      <point x="259" y="271" type="line"/>
      <point x="259" y="125" type="line"/>
      <point x="347" y="125" type="line"/>
      <point x="347" y="271" type="line"/>
      <point x="556" y="271" type="line"/>
      <point x="556" y="359" type="line"/>
      <point x="347" y="359" type="line"/>
      <point x="347" y="568" type="line"/>
      <point x="259" y="568" type="line"/>
    </contour>
  </outline>
</glyph>
<glyph name="acute" format="1">
  <advance width="333"/>
  <unicode hex="00B4"/>
  <outline>
    <contour>
      <point x="153" y="518" type="line"/>
      <point x="202" y="518" type="line"/>
      <point x="356" y="607" type="line" smooth="yes"/>
      <point x="384" y="623"/>
      <point x="392" y="634"/>
      <point x="392" y="654" type="curve" smooth="yes"/>
      <point x="392" y="679"/>
      <point x="371" y="699"/>
      <point x="345" y="699" type="curve" smooth="yes"/>
      <point x="329" y="699"/>
      <point x="314" y="690"/>
      <point x="294" y="669" type="curve" smooth="yes"/>
    </contour>
  </outline>
</glyph>
<glyph name="paragraph" format="1">
  <advance width="556"/>
  <unicode hex="00B6"/>
  <outline>
    <contour>
      <point x="80" y="-204" type="line"/>
      <point x="152" y="-203"/>
      <point x="267" y="-201"/>
      <point x="303" y="-201" type="curve"/>
      <point x="303" y="-201"/>
      <point x="492" y="-204"/>
      <point x="492" y="-204" type="curve"/>
      <point x="495" y="-169" type="line"/>
      <point x="466" y="-169" type="line" smooth="yes"/>
      <point x="422" y="-169"/>
      <point x="399" y="-157"/>
      <point x="399" y="-133" type="curve" smooth="yes"/>
      <point x="399" y="-126"/>
      <point x="400" y="-118"/>
      <point x="401" y="-108" type="curve"/>
      <point x="402" y="-105" type="line"/>
      <point x="402" y="-103" type="line"/>
      <point x="528" y="606" type="line" smooth="yes"/>
      <point x="533" y="634"/>
      <point x="539" y="641"/>
      <point x="558" y="642" type="curve" smooth="yes"/>
      <point x="622" y="645" type="line"/>
      <point x="629" y="681" type="line"/>
      <point x="419" y="678" type="line"/>
      <point x="400" y="678" type="line" smooth="yes"/>
      <point x="373" y="678"/>
      <point x="273" y="679"/>
      <point x="251" y="680" type="curve" smooth="yes"/>
      <point x="225" y="681"/>
      <point x="206" y="681"/>
      <point x="198" y="681" type="curve" smooth="yes"/>
      <point x="77" y="681"/>
      <point x="14" y="621"/>
      <point x="14" y="505" type="curve" smooth="yes"/>
      <point x="14" y="412"/>
      <point x="57" y="328"/>
      <point x="130" y="279" type="curve" smooth="yes"/>
      <point x="166" y="255"/>
      <point x="192" y="246"/>
      <point x="244" y="239" type="curve"/>
      <point x="192" y="-59" type="line" smooth="yes"/>
      <point x="181" y="-123"/>
      <point x="178" y="-135"/>
      <point x="168" y="-150" type="curve" smooth="yes"/>
      <point x="160" y="-162"/>
      <point x="141" y="-169"/>
      <point x="116" y="-169" type="curve" smooth="yes"/>
      <point x="83" y="-169" type="line"/>
    </contour>
    <contour>
      <point x="457" y="634" type="line"/>
      <point x="317" y="-159" type="line"/>
      <point x="249" y="-159" type="line"/>
      <point x="389" y="634" type="line"/>
    </contour>
    <contour>
      <point x="251" y="278" type="line"/>
      <point x="193" y="298"/>
      <point x="157" y="374"/>
      <point x="157" y="480" type="curve" smooth="yes"/>
      <point x="157" y="593"/>
      <point x="191" y="647"/>
      <point x="261" y="647" type="curve" smooth="yes"/>
      <point x="277" y="647"/>
      <point x="289" y="646"/>
      <point x="314" y="642" type="curve"/>
    </contour>
  </outline>
</glyph>
<glyph name="periodcentered" format="1">
  <advance width="250"/>
  <unicode hex="00B7"/>
  <outline>
    <contour>
      <point x="144" y="324" type="curve" smooth="yes"/>
      <point x="99" y="324"/>
      <point x="67" y="288"/>
      <point x="67" y="238" type="curve" smooth="yes"/>
      <point x="67" y="198"/>
      <point x="93" y="172"/>
      <point x="132" y="172" type="curve" smooth="yes"/>
      <point x="175" y="172"/>
      <point x="206" y="209"/>
      <point x="206" y="260" type="curve" smooth="yes"/>
      <point x="206" y="299"/>
      <point x="182" y="324"/>
    </contour>
  </outline>
</glyph>
<glyph name="cedilla" format="1">
  <advance width="333"/>
  <unicode hex="00B8"/>
  <outline>
    <contour>
      <point x="12" y="-193" type="line"/>
      <point x="57" y="-212"/>
      <point x="86" y="-218"/>
      <point x="125" y="-218" type="curve" smooth="yes"/>
      <point x="196" y="-218"/>
      <point x="248" y="-182"/>
      <point x="248" y="-131" type="curve" smooth="yes"/>
      <point x="248" y="-89"/>
      <point x="211" y="-59"/>
      <point x="158" y="-59" type="curve" smooth="yes"/>
      <point x="149" y="-59"/>
      <point x="142" y="-60"/>
      <point x="132" y="-62" type="curve"/>
      <point x="178" y="5" type="line"/>
      <point x="134" y="5" type="line"/>
      <point x="66" y="-92" type="line"/>
      <point x="79" y="-104" type="line"/>
      <point x="91" y="-101"/>
      <point x="98" y="-100"/>
      <point x="108" y="-100" type="curve" smooth="yes"/>
      <point x="139" y="-100"/>
      <point x="156" y="-113"/>
      <point x="156" y="-137" type="curve" smooth="yes"/>
      <point x="156" y="-162"/>
      <point x="135" y="-177"/>
      <point x="101" y="-177" type="curve" smooth="yes"/>
      <point x="79" y="-177"/>
      <point x="63" y="-173"/>
      <point x="34" y="-160" type="curve"/>
    </contour>
  </outline>
</glyph>
<glyph name="ordmasculine" format="1">
  <advance width="333"/>
  <unicode hex="00BA"/>
  <outline>
    <contour>
      <point x="247" y="683" type="curve" smooth="yes"/>
      <point x="187" y="683"/>
      <point x="110" y="644"/>
      <point x="83" y="600" type="curve" smooth="yes"/>
      <point x="65" y="571"/>
      <point x="51" y="520"/>
      <point x="51" y="482" type="curve" smooth="yes"/>
      <point x="51" y="422"/>
      <point x="83" y="391"/>
      <point x="146" y="391" type="curve" smooth="yes"/>
      <point x="225" y="391"/>
      <point x="303" y="438"/>
      <point x="327" y="499" type="curve" smooth="yes"/>
      <point x="339" y="531"/>
      <point x="346" y="564"/>
      <point x="346" y="592" type="curve" smooth="yes"/>
      <point x="346" y="650"/>
      <point x="310" y="683"/>
    </contour>
    <contour>
      <point x="220" y="657" type="curve" smooth="yes"/>
      <point x="251" y="657"/>
      <point x="272" y="632"/>
      <point x="272" y="595" type="curve" smooth="yes"/>
      <point x="272" y="556"/>
      <point x="261" y="502"/>
      <point x="247" y="472" type="curve" smooth="yes"/>
      <point x="230" y="436"/>
      <point x="206" y="417"/>
      <point x="177" y="417" type="curve" smooth="yes"/>
      <point x="145" y="417"/>
      <point x="125" y="441"/>
      <point x="125" y="480" type="curve" smooth="yes"/>
      <point x="125" y="525"/>
      <point x="139" y="585"/>
      <point x="157" y="615" type="curve" smooth="yes"/>
      <point x="173" y="643"/>
      <point x="195" y="657"/>
    </contour>
  </outline>
</glyph>
<glyph name="guillemotright" format="1">
  <advance width="500"/>
  <unicode hex="00BB"/>
  <outline>
    <contour>
      <point x="35" y="60" type="line"/>
      <point x="57" y="40" type="line"/>
      <point x="176" y="149" type="line"/>
      <point x="267" y="230" type="line"/>
      <point x="267" y="251" type="line"/>
      <point x="198" y="327" type="line"/>
      <point x="195" y="330" type="line"/>
      <point x="116" y="423" type="line"/>
      <point x="111" y="430"/>
      <point x="105" y="436"/>
      <point x="99" y="443" type="curve"/>
      <point x="74" y="429" type="line"/>
      <point x="161" y="243" type="line"/>
    </contour>
    <contour>
      <point x="226" y="60" type="line"/>
      <point x="248" y="40" type="line"/>
      <point x="367" y="149" type="line"/>
      <point x="458" y="230" type="line"/>
      <point x="458" y="251" type="line"/>
      <point x="389" y="327" type="line"/>
      <point x="386" y="330" type="line"/>
      <point x="307" y="423" type="line"/>
      <point x="302" y="430"/>
      <point x="296" y="436"/>
      <point x="290" y="443" type="curve"/>
      <point x="265" y="429" type="line"/>
      <point x="352" y="243" type="line"/>
    </contour>
  </outline>
</glyph>
<glyph name="onequarter" format="1">
  <advance width="750"/>
  <unicode hex="00BC"/>
  <outline>
    <contour>
      <point x="18" y="271" type="line"/>
      <point x="61" y="272"/>
      <point x="122" y="273"/>
      <point x="144" y="273" type="curve" smooth="yes"/>
      <point x="166" y="273"/>
      <point x="226" y="272"/>
      <point x="269" y="271" type="curve"/>
      <point x="275" y="299" type="line"/>
      <point x="229" y="301" type="line" smooth="yes"/>
      <point x="199" y="302"/>
      <point x="196" y="304"/>
      <point x="192" y="323" type="curve"/>
      <point x="192" y="324"/>
      <point x="193" y="331"/>
      <point x="195" y="341" type="curve" smooth="yes"/>
      <point x="251" y="637" type="line" smooth="yes"/>
      <point x="255" y="657"/>
      <point x="255" y="658"/>
      <point x="259" y="675" type="curve"/>
      <point x="244" y="680" type="line"/>
      <point x="217" y="668"/>
      <point x="196" y="660"/>
      <point x="177" y="654" type="curve" smooth="yes"/>
      <point x="47" y="616" type="line"/>
      <point x="36" y="578" type="line"/>
      <point x="45" y="565" type="line"/>
      <point x="158" y="612" type="line"/>
      <point x="106" y="336" type="line"/>
      <point x="96" y="307"/>
      <point x="92" y="304"/>
      <point x="51" y="301" type="curve" smooth="yes"/>
      <point x="24" y="299" type="line"/>
    </contour>
    <contour>
      <point x="233" y="0" type="line"/>
      <point x="672" y="683" type="line"/>
      <point x="603" y="683" type="line"/>
      <point x="164" y="0" type="line"/>
    </contour>
    <contour>
      <point x="575" y="104" type="line"/>
      <point x="568" y="65" type="line"/>
      <point x="559" y="32"/>
      <point x="555" y="29"/>
      <point x="522" y="28" type="curve" smooth="yes"/>
      <point x="485" y="26" type="line"/>
      <point x="479" y="-2" type="line"/>
      <point x="563" y="0"/>
      <point x="566" y="0"/>
      <point x="595" y="0" type="curve" smooth="yes"/>
      <point x="623" y="0"/>
      <point x="629" y="0"/>
      <point x="711" y="-2" type="curve"/>
      <point x="716" y="26" type="line"/>
      <point x="667" y="28" type="line" smooth="yes"/>
      <point x="652" y="29"/>
      <point x="645" y="37"/>
      <point x="645" y="54" type="curve" smooth="yes"/>
      <point x="645" y="57"/>
      <point x="645" y="60"/>
      <point x="646" y="64" type="curve"/>
      <point x="653" y="104" type="line"/>
      <point x="720" y="104" type="line"/>
      <point x="732" y="146" type="line"/>
      <point x="730" y="153" type="line"/>
      <point x="662" y="153" type="line"/>
      <point x="712" y="404" type="line"/>
      <point x="702" y="410" type="line"/>
      <point x="667" y="399"/>
      <point x="648" y="395"/>
      <point x="622" y="391" type="curve"/>
      <point x="416" y="128" type="line"/>
      <point x="416" y="104" type="line"/>
    </contour>
    <contour>
      <point x="471" y="153" type="line"/>
      <point x="625" y="355" type="line"/>
      <point x="585" y="153" type="line"/>
    </contour>
  </outline>
</glyph>
<glyph name="onehalf" format="1">
  <advance width="750"/>
  <unicode hex="00BD"/>
  <outline>
    <contour>
      <point x="213" y="0" type="line"/>
      <point x="652" y="683" type="line"/>
      <point x="583" y="683" type="line"/>
      <point x="144" y="0" type="line"/>
    </contour>
    <contour>
      <point x="14" y="271" type="line"/>
      <point x="57" y="272"/>
      <point x="118" y="273"/>
      <point x="140" y="273" type="curve" smooth="yes"/>
      <point x="162" y="273"/>
      <point x="222" y="272"/>
      <point x="265" y="271" type="curve"/>
      <point x="271" y="299" type="line"/>
      <point x="225" y="301" type="line" smooth="yes"/>
      <point x="195" y="302"/>
      <point x="191" y="304"/>
      <point x="188" y="323" type="curve"/>
      <point x="188" y="324"/>
      <point x="189" y="331"/>
      <point x="191" y="341" type="curve" smooth="yes"/>
      <point x="247" y="637" type="line" smooth="yes"/>
      <point x="249" y="647"/>
      <point x="250" y="653"/>
      <point x="251" y="656" type="curve"/>
      <point x="251" y="658"/>
      <point x="253" y="666"/>
      <point x="255" y="675" type="curve"/>
      <point x="240" y="680" type="line"/>
      <point x="213" y="668"/>
      <point x="192" y="660"/>
      <point x="173" y="654" type="curve" smooth="yes"/>
      <point x="43" y="616" type="line"/>
      <point x="32" y="578" type="line"/>
      <point x="41" y="565" type="line"/>
      <point x="154" y="612" type="line"/>
      <point x="102" y="336" type="line"/>
      <point x="92" y="307"/>
      <point x="88" y="304"/>
      <point x="47" y="301" type="curve" smooth="yes"/>
      <point x="20" y="299" type="line"/>
    </contour>
    <contour>
      <point x="441" y="-2" type="line"/>
      <point x="545" y="0"/>
      <point x="545" y="0"/>
      <point x="580" y="0" type="curve" smooth="yes"/>
      <point x="615" y="0"/>
      <point x="617" y="0"/>
      <point x="714" y="-2" type="curve"/>
      <point x="721" y="29"/>
      <point x="727" y="45"/>
      <point x="736" y="60" type="curve"/>
      <point x="730" y="68" type="line"/>
      <point x="709" y="64"/>
      <point x="695" y="63"/>
      <point x="677" y="63" type="curve" smooth="yes"/>
      <point x="542" y="63" type="line"/>
      <point x="670" y="184" type="line" smooth="yes"/>
      <point x="713" y="225"/>
      <point x="733" y="264"/>
      <point x="733" y="307" type="curve" smooth="yes"/>
      <point x="733" y="369"/>
      <point x="685" y="410"/>
      <point x="614" y="410" type="curve" smooth="yes"/>
      <point x="580" y="410"/>
      <point x="552" y="401"/>
      <point x="516" y="379" type="curve"/>
      <point x="476" y="294" type="line"/>
      <point x="506" y="285" type="line"/>
      <point x="524" y="315" type="line" smooth="yes"/>
      <point x="538" y="338"/>
      <point x="559" y="350"/>
      <point x="585" y="350" type="curve" smooth="yes"/>
      <point x="620" y="350"/>
      <point x="646" y="326"/>
      <point x="646" y="294" type="curve" smooth="yes"/>
      <point x="646" y="243"/>
      <point x="605" y="177"/>
      <point x="526" y="102" type="curve" smooth="yes"/>
      <point x="441" y="21" type="line"/>
    </contour>
  </outline>
</glyph>
<glyph name="threequarters" format="1">
  <advance width="750"/>
  <unicode hex="00BE"/>
  <outline>
    <contour>
      <point x="18" y="288" type="line"/>
      <point x="59" y="270"/>
      <point x="87" y="263"/>
      <point x="124" y="263" type="curve" smooth="yes"/>
      <point x="225" y="263"/>
      <point x="304" y="326"/>
      <point x="304" y="406" type="curve" smooth="yes"/>
      <point x="304" y="459"/>
      <point x="271" y="488"/>
      <point x="200" y="497" type="curve"/>
      <point x="272" y="523"/>
      <point x="305" y="557"/>
      <point x="305" y="602" type="curve" smooth="yes"/>
      <point x="305" y="652"/>
      <point x="263" y="683"/>
      <point x="197" y="683" type="curve" smooth="yes"/>
      <point x="158" y="683"/>
      <point x="131" y="675"/>
      <point x="102" y="655" type="curve"/>
      <point x="61" y="586" type="line"/>
      <point x="89" y="572" type="line"/>
      <point x="111" y="615"/>
      <point x="132" y="631"/>
      <point x="166" y="631" type="curve" smooth="yes"/>
      <point x="202" y="631"/>
      <point x="224" y="612"/>
      <point x="224" y="582" type="curve" smooth="yes"/>
      <point x="224" y="555"/>
      <point x="210" y="530"/>
      <point x="186" y="516" type="curve" smooth="yes"/>
      <point x="171" y="507"/>
      <point x="155" y="504"/>
      <point x="128" y="504" type="curve" smooth="yes"/>
      <point x="118" y="504"/>
      <point x="113" y="504"/>
      <point x="106" y="506" type="curve"/>
      <point x="93" y="469" type="line"/>
      <point x="102" y="462" type="line"/>
      <point x="128" y="469"/>
      <point x="137" y="471"/>
      <point x="151" y="471" type="curve" smooth="yes"/>
      <point x="192" y="471"/>
      <point x="213" y="447"/>
      <point x="213" y="398" type="curve" smooth="yes"/>
      <point x="213" y="338"/>
      <point x="176" y="293"/>
      <point x="127" y="293" type="curve" smooth="yes"/>
      <point x="88" y="293"/>
      <point x="62" y="317"/>
      <point x="62" y="353" type="curve" smooth="yes"/>
      <point x="62" y="362"/>
      <point x="63" y="369"/>
      <point x="64" y="377" type="curve"/>
      <point x="65" y="381"/>
      <point x="65" y="382"/>
      <point x="65" y="384" type="curve"/>
      <point x="37" y="384" type="line"/>
    </contour>
    <contour>
      <point x="233" y="0" type="line"/>
      <point x="672" y="683" type="line"/>
      <point x="603" y="683" type="line"/>
      <point x="164" y="0" type="line"/>
    </contour>
    <contour>
      <point x="575" y="104" type="line"/>
      <point x="568" y="65" type="line"/>
      <point x="559" y="32"/>
      <point x="555" y="29"/>
      <point x="522" y="28" type="curve" smooth="yes"/>
      <point x="485" y="26" type="line"/>
      <point x="479" y="-2" type="line"/>
      <point x="563" y="0"/>
      <point x="566" y="0"/>
      <point x="595" y="0" type="curve" smooth="yes"/>
      <point x="623" y="0"/>
      <point x="629" y="0"/>
      <point x="711" y="-2" type="curve"/>
      <point x="716" y="26" type="line"/>
      <point x="667" y="28" type="line" smooth="yes"/>
      <point x="652" y="29"/>
      <point x="645" y="37"/>
      <point x="645" y="54" type="curve" smooth="yes"/>
      <point x="645" y="57"/>
      <point x="645" y="60"/>
      <point x="646" y="64" type="curve"/>
      <point x="653" y="104" type="line"/>
      <point x="720" y="104" type="line"/>
      <point x="732" y="146" type="line"/>
      <point x="730" y="153" type="line"/>
      <point x="662" y="153" type="line"/>
      <point x="712" y="404" type="line"/>
      <point x="702" y="410" type="line"/>
      <point x="667" y="399"/>
      <point x="648" y="395"/>
      <point x="622" y="391" type="curve"/>
      <point x="416" y="128" type="line"/>
      <point x="416" y="104" type="line"/>
    </contour>
    <contour>
      <point x="471" y="153" type="line"/>
      <point x="625" y="355" type="line"/>
      <point x="585" y="153" type="line"/>
    </contour>
  </outline>
</glyph>
<glyph name="questiondown" format="1">
  <advance width="444"/>
  <unicode hex="00BF"/>
  <outline>
    <contour>
      <point x="215" y="262" type="line"/>
      <point x="229" y="247"/>
      <point x="235" y="235"/>
      <point x="235" y="220" type="curve" smooth="yes"/>
      <point x="235" y="195"/>
      <point x="220" y="178"/>
      <point x="165" y="137" type="curve" smooth="yes"/>
      <point x="62" y="61" type="line" smooth="yes"/>
      <point x="11" y="24"/>
      <point x="-12" y="-19"/>
      <point x="-12" y="-74" type="curve" smooth="yes"/>
      <point x="-12" y="-167"/>
      <point x="57" y="-226"/>
      <point x="164" y="-226" type="curve" smooth="yes"/>
      <point x="213" y="-226"/>
      <point x="244" y="-216"/>
      <point x="304" y="-183" type="curve"/>
      <point x="316" y="-131"/>
      <point x="327" y="-101"/>
      <point x="347" y="-57" type="curve"/>
      <point x="314" y="-53" type="line"/>
      <point x="307" y="-70" type="line" smooth="yes"/>
      <point x="292" y="-106"/>
      <point x="280" y="-122"/>
      <point x="261" y="-132" type="curve" smooth="yes"/>
      <point x="240" y="-142"/>
      <point x="223" y="-146"/>
      <point x="205" y="-146" type="curve" smooth="yes"/>
      <point x="148" y="-146"/>
      <point x="114" y="-116"/>
      <point x="114" y="-67" type="curve" smooth="yes"/>
      <point x="114" y="-32"/>
      <point x="130" y="1"/>
      <point x="165" y="38" type="curve" smooth="yes"/>
      <point x="228" y="104" type="line" smooth="yes"/>
      <point x="262" y="140"/>
      <point x="279" y="172"/>
      <point x="279" y="203" type="curve" smooth="yes"/>
      <point x="279" y="232"/>
      <point x="267" y="254"/>
      <point x="237" y="280" type="curve"/>
    </contour>
    <contour>
      <point x="280" y="479" type="curve" smooth="yes"/>
      <point x="236" y="479"/>
      <point x="204" y="442"/>
      <point x="204" y="391" type="curve" smooth="yes"/>
      <point x="204" y="353"/>
      <point x="231" y="327"/>
      <point x="269" y="327" type="curve" smooth="yes"/>
      <point x="312" y="327"/>
      <point x="343" y="364"/>
      <point x="343" y="415" type="curve" smooth="yes"/>
      <point x="343" y="455"/>
      <point x="319" y="479"/>
    </contour>
  </outline>
</glyph>
<glyph name="Aacute" format="1">
  <advance width="722"/>
  <unicode hex="00C1"/>
  <outline>
    <contour>
      <point x="414" y="683" type="line"/>
      <point x="51" y="70" type="line" smooth="yes"/>
      <point x="37" y="48"/>
      <point x="22" y="36"/>
      <point x="4" y="35" type="curve" smooth="yes"/>
      <point x="-30" y="32" type="line"/>
      <point x="-35" y="-3" type="line"/>
      <point x="85" y="0" type="line" smooth="yes"/>
      <point x="93" y="0"/>
      <point x="103" y="0"/>
      <point x="143" y="-1" type="curve"/>
      <point x="150" y="-2"/>
      <point x="178" y="-2"/>
      <point x="199" y="-3" type="curve"/>
      <point x="204" y="32" type="line"/>
      <point x="160" y="35" type="line" smooth="yes"/>
      <point x="131" y="37"/>
      <point x="117" y="43"/>
      <point x="117" y="55" type="curve" smooth="yes"/>
      <point x="117" y="72"/>
      <point x="122" y="87"/>
      <point x="136" y="112" type="curve" smooth="yes"/>
      <point x="222" y="264" type="line"/>
      <point x="333" y="267" type="line"/>
      <point x="343" y="267" type="line" smooth="yes"/>
      <point x="354" y="267"/>
      <point x="372" y="266"/>
      <point x="406" y="265" type="curve" smooth="yes"/>
      <point x="443" y="264" type="line"/>
      <point x="468" y="66" type="line"/>
      <point x="469" y="48"/>
      <point x="454" y="37"/>
      <point x="426" y="35" type="curve" smooth="yes"/>
      <point x="384" y="32" type="line"/>
      <point x="384" y="-3" type="line"/>
      <point x="509" y="0"/>
      <point x="509" y="0"/>
      <point x="539" y="0" type="curve" smooth="yes"/>
      <point x="564" y="0"/>
      <point x="600" y="-1"/>
      <point x="685" y="-3" type="curve"/>
      <point x="685" y="32" type="line"/>
      <point x="648" y="35" type="line" smooth="yes"/>
      <point x="616" y="38"/>
      <point x="600" y="54"/>
      <point x="594" y="90" type="curve" smooth="yes"/>
      <point x="518" y="612" type="line"/>
      <point x="518" y="615"/>
      <point x="517" y="618"/>
      <point x="515" y="640" type="curve"/>
      <point x="514" y="647"/>
      <point x="512" y="663"/>
      <point x="510" y="683" type="curve"/>
    </contour>
    <contour>
      <point x="400" y="573" type="line"/>
      <point x="438" y="307" type="line"/>
      <point x="245" y="307" type="line"/>
    </contour>
    <contour>
      <point x="369" y="730" type="line"/>
      <point x="418" y="730" type="line"/>
      <point x="572" y="819" type="line" smooth="yes"/>
      <point x="600" y="835"/>
      <point x="608" y="846"/>
      <point x="608" y="866" type="curve" smooth="yes"/>
      <point x="608" y="891"/>
      <point x="587" y="911"/>
      <point x="561" y="911" type="curve" smooth="yes"/>
      <point x="545" y="911"/>
      <point x="530" y="902"/>
      <point x="510" y="881" type="curve" smooth="yes"/>
    </contour>
  </outline>
</glyph>
<glyph name="Atilde" format="1">
  <advance width="722"/>
  <unicode hex="00C3"/>
  <outline>
    <contour>
      <point x="414" y="683" type="line"/>
      <point x="51" y="70" type="line" smooth="yes"/>
      <point x="37" y="48"/>
      <point x="22" y="36"/>
      <point x="4" y="35" type="curve" smooth="yes"/>
      <point x="-30" y="32" type="line"/>
      <point x="-35" y="-3" type="line"/>
      <point x="85" y="0" type="line" smooth="yes"/>
      <point x="93" y="0"/>
      <point x="103" y="0"/>
      <point x="143" y="-1" type="curve"/>
      <point x="150" y="-2"/>
      <point x="178" y="-2"/>
      <point x="199" y="-3" type="curve"/>
      <point x="204" y="32" type="line"/>
      <point x="160" y="35" type="line" smooth="yes"/>
      <point x="131" y="37"/>
      <point x="117" y="43"/>
      <point x="117" y="55" type="curve" smooth="yes"/>
      <point x="117" y="72"/>
      <point x="122" y="87"/>
      <point x="136" y="112" type="curve" smooth="yes"/>
      <point x="222" y="264" type="line"/>
      <point x="333" y="267" type="line"/>
      <point x="343" y="267" type="line" smooth="yes"/>
      <point x="354" y="267"/>
      <point x="372" y="266"/>
      <point x="406" y="265" type="curve" smooth="yes"/>
      <point x="443" y="264" type="line"/>
      <point x="468" y="66" type="line"/>
      <point x="469" y="48"/>
      <point x="454" y="37"/>
      <point x="426" y="35" type="curve" smooth="yes"/>
      <point x="384" y="32" type="line"/>
      <point x="384" y="-3" type="line"/>
      <point x="509" y="0"/>
      <point x="509" y="0"/>
      <point x="539" y="0" type="curve" smooth="yes"/>
      <point x="564" y="0"/>
      <point x="600" y="-1"/>
      <point x="685" y="-3" type="curve"/>
      <point x="685" y="32" type="line"/>
      <point x="648" y="35" type="line" smooth="yes"/>
      <point x="616" y="38"/>
      <point x="600" y="54"/>
      <point x="594" y="90" type="curve" smooth="yes"/>
      <point x="518" y="612" type="line"/>
      <point x="518" y="615"/>
      <point x="517" y="618"/>
      <point x="515" y="640" type="curve"/>
      <point x="514" y="647"/>
      <point x="512" y="663"/>
      <point x="510" y="683" type="curve"/>
    </contour>
    <contour>
      <point x="400" y="573" type="line"/>
      <point x="438" y="307" type="line"/>
      <point x="245" y="307" type="line"/>
    </contour>
    <contour>
      <point x="329" y="747" type="line"/>
      <point x="344" y="781"/>
      <point x="355" y="791"/>
      <point x="375" y="791" type="curve" smooth="yes"/>
      <point x="392" y="791"/>
      <point x="409" y="786"/>
      <point x="451" y="769" type="curve" smooth="yes"/>
      <point x="497" y="751"/>
      <point x="510" y="747"/>
      <point x="533" y="747" type="curve" smooth="yes"/>
      <point x="590" y="747"/>
      <point x="627" y="785"/>
      <point x="648" y="866" type="curve"/>
      <point x="607" y="866" type="line"/>
      <point x="593" y="835"/>
      <point x="580" y="824"/>
      <point x="558" y="824" type="curve" smooth="yes"/>
      <point x="541" y="824"/>
      <point x="516" y="832"/>
      <point x="483" y="847" type="curve" smooth="yes"/>
      <point x="450" y="862"/>
      <point x="433" y="866"/>
      <point x="407" y="866" type="curve" smooth="yes"/>
      <point x="347" y="866"/>
      <point x="307" y="826"/>
      <point x="289" y="747" type="curve"/>
    </contour>
  </outline>
</glyph>
<glyph name="AE" format="1">
  <advance width="944"/>
  <unicode hex="00C6"/>
  <outline>
    <contour>
      <point x="594" y="330" type="line"/>
      <point x="649" y="330" type="line" smooth="yes"/>
      <point x="681" y="330"/>
      <point x="714" y="329"/>
      <point x="819" y="325" type="curve"/>
      <point x="833" y="372" type="line"/>
      <point x="828" y="381" type="line"/>
      <point x="773" y="379"/>
      <point x="739" y="378"/>
      <point x="688" y="378" type="curve" smooth="yes"/>
      <point x="602" y="378" type="line"/>
      <point x="647" y="630" type="line"/>
      <point x="686" y="633" type="line" smooth="yes"/>
      <point x="713" y="635"/>
      <point x="830" y="626"/>
      <point x="856" y="619" type="curve"/>
      <point x="867" y="617"/>
      <point x="870" y="607"/>
      <point x="870" y="573" type="curve" smooth="yes"/>
      <point x="870" y="520" type="line"/>
      <point x="902" y="520" type="line"/>
      <point x="910" y="575"/>
      <point x="915" y="608"/>
      <point x="927" y="672" type="curve"/>
      <point x="917" y="678" type="line"/>
      <point x="787" y="681"/>
      <point x="787" y="681"/>
      <point x="768" y="681" type="curve" smooth="yes"/>
      <point x="731" y="681" type="line" smooth="yes"/>
      <point x="624" y="678"/>
      <point x="612" y="678"/>
      <point x="572" y="678" type="curve" smooth="yes"/>
      <point x="550" y="678"/>
      <point x="550" y="678"/>
      <point x="316" y="681" type="curve"/>
      <point x="311" y="649" type="line"/>
      <point x="381" y="646" type="line" smooth="yes"/>
      <point x="402" y="645"/>
      <point x="414" y="637"/>
      <point x="414" y="624" type="curve" smooth="yes"/>
      <point x="414" y="617"/>
      <point x="408" y="605"/>
      <point x="387" y="573" type="curve" smooth="yes"/>
      <point x="96" y="122" type="line" smooth="yes"/>
      <point x="59" y="66"/>
      <point x="31" y="40"/>
      <point x="2" y="34" type="curve" smooth="yes"/>
      <point x="-24" y="29" type="line"/>
      <point x="-29" y="-3" type="line"/>
      <point x="88" y="0" type="line"/>
      <point x="88" y="0"/>
      <point x="108" y="1"/>
      <point x="108" y="1" type="curve"/>
      <point x="110" y="1"/>
      <point x="117" y="1"/>
      <point x="126" y="0" type="curve" smooth="yes"/>
      <point x="142" y="-2"/>
      <point x="160" y="-3"/>
      <point x="181" y="-3" type="curve" smooth="yes"/>
      <point x="205" y="-3" type="line"/>
      <point x="210" y="29" type="line"/>
      <point x="160" y="32" type="line" smooth="yes"/>
      <point x="133" y="34"/>
      <point x="124" y="40"/>
      <point x="124" y="57" type="curve" smooth="yes"/>
      <point x="124" y="66"/>
      <point x="127" y="73"/>
      <point x="138" y="90" type="curve"/>
      <point x="139" y="92" type="line"/>
      <point x="239" y="262" type="line"/>
      <point x="350" y="265" type="line"/>
      <point x="360" y="265" type="line" smooth="yes"/>
      <point x="371" y="265"/>
      <point x="389" y="264"/>
      <point x="423" y="263" type="curve" smooth="yes"/>
      <point x="460" y="262" type="line"/>
      <point x="430" y="91" type="line" smooth="yes"/>
      <point x="421" y="45"/>
      <point x="414" y="33"/>
      <point x="394" y="32" type="curve" smooth="yes"/>
      <point x="354" y="29" type="line"/>
      <point x="348" y="-3" type="line"/>
      <point x="447" y="0"/>
      <point x="448" y="0"/>
      <point x="480" y="0" type="curve" smooth="yes"/>
      <point x="496" y="0"/>
      <point x="555" y="-1"/>
      <point x="596" y="-2" type="curve" smooth="yes"/>
      <point x="653" y="-4"/>
      <point x="667" y="-4"/>
      <point x="683" y="-4" type="curve" smooth="yes"/>
      <point x="712" y="-4"/>
      <point x="758" y="-3"/>
      <point x="855" y="0" type="curve"/>
      <point x="871" y="88"/>
      <point x="878" y="123"/>
      <point x="889" y="168" type="curve"/>
      <point x="853" y="168" type="line"/>
      <point x="831" y="98" type="line" smooth="yes"/>
      <point x="817" y="58"/>
      <point x="805" y="54"/>
      <point x="677" y="52" type="curve" smooth="yes"/>
      <point x="645" y="51" type="line"/>
      <point x="634" y="50"/>
      <point x="623" y="50"/>
      <point x="610" y="50" type="curve" smooth="yes"/>
      <point x="584" y="50"/>
      <point x="572" y="51"/>
      <point x="547" y="56" type="curve"/>
    </contour>
    <contour>
      <point x="270" y="308" type="line"/>
      <point x="436" y="570" type="line" smooth="yes"/>
      <point x="466" y="617"/>
      <point x="489" y="639"/>
      <point x="508" y="639" type="curve" smooth="yes"/>
      <point x="516" y="639"/>
      <point x="521" y="633"/>
      <point x="521" y="625" type="curve" smooth="yes"/>
      <point x="521" y="616"/>
      <point x="520" y="603"/>
      <point x="517" y="589" type="curve" smooth="yes"/>
      <point x="467" y="308" type="line"/>
    </contour>
  </outline>
</glyph>
<glyph name="Ccedilla" format="1">
  <advance width="685"/>
  <unicode hex="00C7"/>
  <outline>
    <contour>
      <point x="339" y="-17" type="line"/>
      <point x="432" y="-17"/>
      <point x="514" y="11"/>
      <point x="616" y="77" type="curve"/>
      <point x="629" y="116" type="line"/>
      <point x="619" y="125" type="line"/>
      <point x="597" y="112" type="line" smooth="yes"/>
      <point x="521" y="67"/>
      <point x="462" y="48"/>
      <point x="399" y="48" type="curve" smooth="yes"/>
      <point x="268" y="48"/>
      <point x="207" y="119"/>
      <point x="207" y="272" type="curve" smooth="yes"/>
      <point x="207" y="494"/>
      <point x="303" y="636"/>
      <point x="452" y="636" type="curve" smooth="yes"/>
      <point x="544" y="636"/>
      <point x="629" y="605"/>
      <point x="627" y="572" type="curve" smooth="yes"/>
      <point x="622" y="484" type="line"/>
      <point x="657" y="484" type="line"/>
      <point x="662" y="531"/>
      <point x="669" y="560"/>
      <point x="695" y="652" type="curve"/>
      <point x="630" y="682"/>
      <point x="573" y="695"/>
      <point x="504" y="695" type="curve" smooth="yes"/>
      <point x="263" y="695"/>
      <point x="69" y="497"/>
      <point x="69" y="250" type="curve" smooth="yes"/>
      <point x="69" y="91"/>
      <point x="147" y="0"/>
      <point x="296" y="-15" type="curve"/>
      <point x="242" y="-92" type="line"/>
      <point x="255" y="-104" type="line"/>
      <point x="267" y="-101"/>
      <point x="274" y="-100"/>
      <point x="284" y="-100" type="curve" smooth="yes"/>
      <point x="315" y="-100"/>
      <point x="332" y="-113"/>
      <point x="332" y="-137" type="curve" smooth="yes"/>
      <point x="332" y="-162"/>
      <point x="311" y="-177"/>
      <point x="277" y="-177" type="curve" smooth="yes"/>
      <point x="255" y="-177"/>
      <point x="239" y="-173"/>
      <point x="210" y="-160" type="curve"/>
      <point x="188" y="-193" type="line"/>
      <point x="233" y="-212"/>
      <point x="262" y="-218"/>
      <point x="301" y="-218" type="curve" smooth="yes"/>
      <point x="372" y="-218"/>
      <point x="424" y="-182"/>
      <point x="424" y="-131" type="curve" smooth="yes"/>
      <point x="424" y="-89"/>
      <point x="387" y="-59"/>
      <point x="334" y="-59" type="curve" smooth="yes"/>
      <point x="325" y="-59"/>
      <point x="318" y="-60"/>
      <point x="308" y="-62" type="curve"/>
    </contour>
  </outline>
</glyph>
<glyph name="Egrave" format="1">
  <advance width="611"/>
  <unicode hex="00C8"/>
  <outline>
    <contour>
      <point x="16" y="29" type="line"/>
      <point x="11" y="-3" type="line"/>
      <point x="112" y="0"/>
      <point x="117" y="0"/>
      <point x="150" y="0" type="curve" smooth="yes"/>
      <point x="199" y="0" type="line" smooth="yes"/>
      <point x="312" y="-3"/>
      <point x="336" y="-3"/>
      <point x="355" y="-3" type="curve" smooth="yes"/>
      <point x="378" y="-3"/>
      <point x="378" y="-3"/>
      <point x="522" y="0" type="curve"/>
      <point x="538" y="88"/>
      <point x="545" y="123"/>
      <point x="556" y="168" type="curve"/>
      <point x="520" y="168" type="line"/>
      <point x="498" y="98" type="line" smooth="yes"/>
      <point x="485" y="61"/>
      <point x="473" y="56"/>
      <point x="390" y="53" type="curve" smooth="yes"/>
      <point x="312" y="50" type="line"/>
      <point x="275" y="50" type="line" smooth="yes"/>
      <point x="251" y="50"/>
      <point x="238" y="51"/>
      <point x="214" y="56" type="curve"/>
      <point x="262" y="330" type="line"/>
      <point x="317" y="330" type="line" smooth="yes"/>
      <point x="349" y="330"/>
      <point x="382" y="329"/>
      <point x="487" y="325" type="curve"/>
      <point x="501" y="372" type="line"/>
      <point x="496" y="381" type="line"/>
      <point x="441" y="379"/>
      <point x="407" y="378"/>
      <point x="356" y="378" type="curve" smooth="yes"/>
      <point x="270" y="378" type="line"/>
      <point x="315" y="630" type="line"/>
      <point x="354" y="633" type="line" smooth="yes"/>
      <point x="362" y="634"/>
      <point x="371" y="634"/>
      <point x="377" y="634" type="curve" smooth="yes"/>
      <point x="425" y="634"/>
      <point x="522" y="625"/>
      <point x="537" y="619" type="curve"/>
      <point x="547" y="616"/>
      <point x="549" y="606"/>
      <point x="549" y="573" type="curve" smooth="yes"/>
      <point x="549" y="520" type="line"/>
      <point x="581" y="520" type="line"/>
      <point x="589" y="575"/>
      <point x="594" y="608"/>
      <point x="606" y="672" type="curve"/>
      <point x="596" y="678" type="line"/>
      <point x="451" y="681"/>
      <point x="451" y="681"/>
      <point x="436" y="681" type="curve" smooth="yes"/>
      <point x="406" y="681" type="line" smooth="yes"/>
      <point x="304" y="678"/>
      <point x="275" y="678"/>
      <point x="251" y="678" type="curve" smooth="yes"/>
      <point x="225" y="678"/>
      <point x="225" y="678"/>
      <point x="94" y="681" type="curve"/>
      <point x="89" y="649" type="line"/>
      <point x="135" y="646" type="line" smooth="yes"/>
      <point x="170" y="644"/>
      <point x="181" y="636"/>
      <point x="181" y="614" type="curve" smooth="yes"/>
      <point x="181" y="609"/>
      <point x="180" y="601"/>
      <point x="179" y="594" type="curve" smooth="yes"/>
      <point x="92" y="92" type="line" smooth="yes"/>
      <point x="84" y="47"/>
      <point x="74" y="35"/>
      <point x="44" y="32" type="curve" smooth="yes"/>
    </contour>
    <contour>
      <point x="411" y="730" type="line"/>
      <point x="456" y="730" type="line"/>
      <point x="352" y="867" type="line" smooth="yes"/>
      <point x="329" y="898"/>
      <point x="310" y="911"/>
      <point x="291" y="911" type="curve" smooth="yes"/>
      <point x="267" y="911"/>
      <point x="244" y="890"/>
      <point x="244" y="868" type="curve" smooth="yes"/>
      <point x="244" y="847"/>
      <point x="253" y="835"/>
      <point x="288" y="812" type="curve" smooth="yes"/>
    </contour>
  </outline>
</glyph>
<glyph name="Edieresis" format="1">
  <advance width="611"/>
  <unicode hex="00CB"/>
  <outline>
    <contour>
      <point x="16" y="29" type="line"/>
      <point x="11" y="-3" type="line"/>
      <point x="112" y="0"/>
      <point x="117" y="0"/>
      <point x="150" y="0" type="curve" smooth="yes"/>
      <point x="199" y="0" type="line" smooth="yes"/>
      <point x="312" y="-3"/>
      <point x="336" y="-3"/>
      <point x="355" y="-3" type="curve" smooth="yes"/>
      <point x="378" y="-3"/>
      <point x="378" y="-3"/>
      <point x="522" y="0" type="curve"/>
      <point x="538" y="88"/>
      <point x="545" y="123"/>
      <point x="556" y="168" type="curve"/>
      <point x="520" y="168" type="line"/>
      <point x="498" y="98" type="line" smooth="yes"/>
      <point x="485" y="61"/>
      <point x="473" y="56"/>
      <point x="390" y="53" type="curve" smooth="yes"/>
      <point x="312" y="50" type="line"/>
      <point x="275" y="50" type="line" smooth="yes"/>
      <point x="251" y="50"/>
      <point x="238" y="51"/>
      <point x="214" y="56" type="curve"/>
      <point x="262" y="330" type="line"/>
      <point x="317" y="330" type="line" smooth="yes"/>
      <point x="349" y="330"/>
      <point x="382" y="329"/>
      <point x="487" y="325" type="curve"/>
      <point x="501" y="372" type="line"/>
      <point x="496" y="381" type="line"/>
      <point x="441" y="379"/>
      <point x="407" y="378"/>
      <point x="356" y="378" type="curve" smooth="yes"/>
      <point x="270" y="378" type="line"/>
      <point x="315" y="630" type="line"/>
      <point x="354" y="633" type="line" smooth="yes"/>
      <point x="362" y="634"/>
      <point x="371" y="634"/>
      <point x="377" y="634" type="curve" smooth="yes"/>
      <point x="425" y="634"/>
      <point x="522" y="625"/>
      <point x="537" y="619" type="curve"/>
      <point x="547" y="616"/>
      <point x="549" y="606"/>
      <point x="549" y="573" type="curve" smooth="yes"/>
      <point x="549" y="520" type="line"/>
      <point x="581" y="520" type="line"/>
      <point x="589" y="575"/>
      <point x="594" y="608"/>
      <point x="606" y="672" type="curve"/>
      <point x="596" y="678" type="line"/>
      <point x="451" y="681"/>
      <point x="451" y="681"/>
      <point x="436" y="681" type="curve" smooth="yes"/>
      <point x="406" y="681" type="line" smooth="yes"/>
      <point x="304" y="678"/>
      <point x="275" y="678"/>
      <point x="251" y="678" type="curve" smooth="yes"/>
      <point x="225" y="678"/>
      <point x="225" y="678"/>
      <point x="94" y="681" type="curve"/>
      <point x="89" y="649" type="line"/>
      <point x="135" y="646" type="line" smooth="yes"/>
      <point x="170" y="644"/>
      <point x="181" y="636"/>
      <point x="181" y="614" type="curve" smooth="yes"/>
      <point x="181" y="609"/>
      <point x="180" y="601"/>
      <point x="179" y="594" type="curve" smooth="yes"/>
      <point x="92" y="92" type="line" smooth="yes"/>
      <point x="84" y="47"/>
      <point x="74" y="35"/>
      <point x="44" y="32" type="curve" smooth="yes"/>
    </contour>
    <contour>
      <point x="487" y="880" type="curve" smooth="yes"/>
      <point x="450" y="880"/>
      <point x="420" y="847"/>
      <point x="420" y="806" type="curve" smooth="yes"/>
      <point x="420" y="771"/>
      <point x="441" y="749"/>
      <point x="474" y="749" type="curve" smooth="yes"/>
      <point x="514" y="749"/>
      <point x="543" y="779"/>
      <point x="543" y="820" type="curve" smooth="yes"/>
      <point x="543" y="855"/>
      <point x="520" y="880"/>
    </contour>
    <contour>
      <point x="274" y="880" type="curve" smooth="yes"/>
      <point x="237" y="880"/>
      <point x="207" y="847"/>
      <point x="207" y="806" type="curve" smooth="yes"/>
      <point x="207" y="771"/>
      <point x="228" y="749"/>
      <point x="261" y="749" type="curve" smooth="yes"/>
      <point x="301" y="749"/>
      <point x="330" y="779"/>
      <point x="330" y="820" type="curve" smooth="yes"/>
      <point x="330" y="855"/>
      <point x="307" y="880"/>
    </contour>
  </outline>
</glyph>
<glyph name="Igrave" format="1">
  <advance width="389"/>
  <unicode hex="00CC"/>
  <outline>
    <contour>
      <point x="408" y="646" type="line"/>
      <point x="412" y="681" type="line"/>
      <point x="275" y="678"/>
      <point x="275" y="678"/>
      <point x="253" y="678" type="curve" smooth="yes"/>
      <point x="231" y="678"/>
      <point x="231" y="678"/>
      <point x="101" y="681" type="curve"/>
      <point x="97" y="646" type="line"/>
      <point x="149" y="643" type="line" smooth="yes"/>
      <point x="175" y="641"/>
      <point x="187" y="632"/>
      <point x="187" y="613" type="curve" smooth="yes"/>
      <point x="187" y="599"/>
      <point x="184" y="575"/>
      <point x="178" y="541" type="curve" smooth="yes"/>
      <point x="106" y="132" type="line" smooth="yes"/>
      <point x="90" y="47"/>
      <point x="85" y="37"/>
      <point x="52" y="35" type="curve" smooth="yes"/>
      <point x="3" y="32" type="line"/>
      <point x="-1" y="-3" type="line"/>
      <point x="139" y="0"/>
      <point x="139" y="0"/>
      <point x="156" y="0" type="curve" smooth="yes"/>
      <point x="171" y="0"/>
      <point x="171" y="0"/>
      <point x="319" y="-3" type="curve"/>
      <point x="323" y="32" type="line"/>
      <point x="264" y="35" type="line" smooth="yes"/>
      <point x="237" y="36"/>
      <point x="227" y="45"/>
      <point x="227" y="66" type="curve" smooth="yes"/>
      <point x="227" y="77"/>
      <point x="228" y="89"/>
      <point x="230" y="100" type="curve" smooth="yes"/>
      <point x="317" y="599" type="line" smooth="yes"/>
      <point x="324" y="636"/>
      <point x="330" y="641"/>
      <point x="363" y="643" type="curve" smooth="yes"/>
    </contour>
    <contour>
      <point x="319" y="730" type="line"/>
      <point x="364" y="730" type="line"/>
      <point x="260" y="867" type="line" smooth="yes"/>
      <point x="237" y="898"/>
      <point x="218" y="911"/>
      <point x="199" y="911" type="curve" smooth="yes"/>
      <point x="175" y="911"/>
      <point x="152" y="890"/>
      <point x="152" y="868" type="curve" smooth="yes"/>
      <point x="152" y="847"/>
      <point x="161" y="835"/>
      <point x="196" y="812" type="curve" smooth="yes"/>
    </contour>
  </outline>
</glyph>
<glyph name="Icircumflex" format="1">
  <advance width="389"/>
  <unicode hex="00CE"/>
  <outline>
    <contour>
      <point x="408" y="646" type="line"/>
      <point x="412" y="681" type="line"/>
      <point x="275" y="678"/>
      <point x="275" y="678"/>
      <point x="253" y="678" type="curve" smooth="yes"/>
      <point x="231" y="678"/>
      <point x="231" y="678"/>
      <point x="101" y="681" type="curve"/>
      <point x="97" y="646" type="line"/>
      <point x="149" y="643" type="line" smooth="yes"/>
      <point x="175" y="641"/>
      <point x="187" y="632"/>
      <point x="187" y="613" type="curve" smooth="yes"/>
      <point x="187" y="599"/>
      <point x="184" y="575"/>
      <point x="178" y="541" type="curve" smooth="yes"/>
      <point x="106" y="132" type="line" smooth="yes"/>
      <point x="90" y="47"/>
      <point x="85" y="37"/>
      <point x="52" y="35" type="curve" smooth="yes"/>
      <point x="3" y="32" type="line"/>
      <point x="-1" y="-3" type="line"/>
      <point x="139" y="0"/>
      <point x="139" y="0"/>
      <point x="156" y="0" type="curve" smooth="yes"/>
      <point x="171" y="0"/>
      <point x="171" y="0"/>
      <point x="319" y="-3" type="curve"/>
      <point x="323" y="32" type="line"/>
      <point x="264" y="35" type="line" smooth="yes"/>
      <point x="237" y="36"/>
      <point x="227" y="45"/>
      <point x="227" y="66" type="curve" smooth="yes"/>
      <point x="227" y="77"/>
      <point x="228" y="89"/>
      <point x="230" y="100" type="curve" smooth="yes"/>
      <point x="317" y="599" type="line" smooth="yes"/>
      <point x="324" y="636"/>
      <point x="330" y="641"/>
      <point x="363" y="643" type="curve" smooth="yes"/>
    </contour>
    <contour>
      <point x="357" y="896" type="line"/>
      <point x="276" y="896" type="line"/>
      <point x="116" y="722" type="line"/>
      <point x="173" y="722" type="line"/>
      <point x="304" y="817" type="line"/>
      <point x="392" y="722" type="line"/>
      <point x="443" y="722" type="line"/>
    </contour>
  </outline>
</glyph>
<glyph name="Ntilde" format="1">
  <advance width="778"/>
  <unicode hex="00D1"/>
  <outline>
    <contour>
      <point x="620" y="-3" type="line"/>
      <point x="625" y="37"/>
      <point x="629" y="67"/>
      <point x="636" y="100" type="curve" smooth="yes"/>
      <point x="722" y="528" type="line" smooth="yes"/>
      <point x="739" y="612"/>
      <point x="744" y="629"/>
      <point x="752" y="636" type="curve"/>
      <point x="760" y="642"/>
      <point x="767" y="644"/>
      <point x="786" y="646" type="curve" smooth="yes"/>
      <point x="823" y="649" type="line"/>
      <point x="829" y="681" type="line"/>
      <point x="731" y="678"/>
      <point x="731" y="678"/>
      <point x="711" y="678" type="curve" smooth="yes"/>
      <point x="691" y="678"/>
      <point x="691" y="678"/>
      <point x="593" y="681" type="curve"/>
      <point x="588" y="649" type="line"/>
      <point x="630" y="646" type="line" smooth="yes"/>
      <point x="661" y="644"/>
      <point x="676" y="633"/>
      <point x="676" y="612" type="curve" smooth="yes"/>
      <point x="676" y="590"/>
      <point x="673" y="561"/>
      <point x="670" y="542" type="curve" smooth="yes"/>
      <point x="596" y="142" type="line"/>
      <point x="282" y="681" type="line"/>
      <point x="192" y="678"/>
      <point x="192" y="678"/>
      <point x="174" y="678" type="curve" smooth="yes"/>
      <point x="156" y="678"/>
      <point x="112" y="679"/>
      <point x="67" y="681" type="curve"/>
      <point x="64" y="649" type="line"/>
      <point x="103" y="646" type="line" smooth="yes"/>
      <point x="119" y="645"/>
      <point x="139" y="638"/>
      <point x="153" y="629" type="curve" smooth="yes"/>
      <point x="171" y="617"/>
      <point x="188" y="592"/>
      <point x="186" y="582" type="curve" smooth="yes"/>
      <point x="185" y="578" type="line"/>
      <point x="88" y="91" type="line" smooth="yes"/>
      <point x="80" y="50"/>
      <point x="70" y="36"/>
      <point x="48" y="35" type="curve" smooth="yes"/>
      <point x="0" y="32" type="line"/>
      <point x="-2" y="-3" type="line"/>
      <point x="95" y="0"/>
      <point x="95" y="0"/>
      <point x="114" y="0" type="curve" smooth="yes"/>
      <point x="133" y="0"/>
      <point x="133" y="0"/>
      <point x="226" y="-3" type="curve"/>
      <point x="231" y="32" type="line"/>
      <point x="180" y="35" type="line" smooth="yes"/>
      <point x="156" y="36"/>
      <point x="144" y="50"/>
      <point x="144" y="76" type="curve" smooth="yes"/>
      <point x="144" y="88"/>
      <point x="147" y="111"/>
      <point x="152" y="138" type="curve" smooth="yes"/>
      <point x="225" y="534" type="line"/>
      <point x="535" y="-3" type="line"/>
    </contour>
    <contour>
      <point x="357" y="747" type="line"/>
      <point x="372" y="781"/>
      <point x="383" y="791"/>
      <point x="403" y="791" type="curve" smooth="yes"/>
      <point x="420" y="791"/>
      <point x="437" y="786"/>
      <point x="479" y="769" type="curve" smooth="yes"/>
      <point x="525" y="751"/>
      <point x="538" y="747"/>
      <point x="561" y="747" type="curve" smooth="yes"/>
      <point x="618" y="747"/>
      <point x="655" y="785"/>
      <point x="676" y="866" type="curve"/>
      <point x="635" y="866" type="line"/>
      <point x="621" y="835"/>
      <point x="608" y="824"/>
      <point x="586" y="824" type="curve" smooth="yes"/>
      <point x="569" y="824"/>
      <point x="544" y="832"/>
      <point x="511" y="847" type="curve" smooth="yes"/>
      <point x="478" y="862"/>
      <point x="461" y="866"/>
      <point x="435" y="866" type="curve" smooth="yes"/>
      <point x="375" y="866"/>
      <point x="335" y="826"/>
      <point x="317" y="747" type="curve"/>
    </contour>
  </outline>
</glyph>
<glyph name="Otilde" format="1">
  <advance width="833"/>
  <unicode hex="00D5"/>
  <outline>
    <contour>
      <point x="493" y="695" type="curve" smooth="yes"/>
      <point x="249" y="695"/>
      <point x="76" y="518"/>
      <point x="76" y="268" type="curve" smooth="yes"/>
      <point x="76" y="87"/>
      <point x="182" y="-17"/>
      <point x="365" y="-17" type="curve" smooth="yes"/>
      <point x="608" y="-17"/>
      <point x="794" y="170"/>
      <point x="794" y="414" type="curve" smooth="yes"/>
      <point x="794" y="499"/>
      <point x="770" y="563"/>
      <point x="721" y="612" type="curve" smooth="yes"/>
      <point x="667" y="666"/>
      <point x="588" y="695"/>
    </contour>
    <contour>
      <point x="480" y="652" type="curve" smooth="yes"/>
      <point x="596" y="652"/>
      <point x="656" y="579"/>
      <point x="656" y="435" type="curve" smooth="yes"/>
      <point x="656" y="332"/>
      <point x="631" y="226"/>
      <point x="589" y="153" type="curve" smooth="yes"/>
      <point x="541" y="69"/>
      <point x="473" y="26"/>
      <point x="388" y="26" type="curve" smooth="yes"/>
      <point x="274" y="26"/>
      <point x="214" y="99"/>
      <point x="214" y="239" type="curve" smooth="yes"/>
      <point x="214" y="346"/>
      <point x="243" y="467"/>
      <point x="285" y="537" type="curve" smooth="yes"/>
      <point x="332" y="616"/>
      <point x="394" y="652"/>
    </contour>
    <contour>
      <point x="373" y="747" type="line"/>
      <point x="388" y="781"/>
      <point x="399" y="791"/>
      <point x="419" y="791" type="curve" smooth="yes"/>
      <point x="436" y="791"/>
      <point x="453" y="786"/>
      <point x="495" y="769" type="curve" smooth="yes"/>
      <point x="541" y="751"/>
      <point x="554" y="747"/>
      <point x="577" y="747" type="curve" smooth="yes"/>
      <point x="634" y="747"/>
      <point x="671" y="785"/>
      <point x="692" y="866" type="curve"/>
      <point x="651" y="866" type="line"/>
      <point x="637" y="835"/>
      <point x="624" y="824"/>
      <point x="602" y="824" type="curve" smooth="yes"/>
      <point x="585" y="824"/>
      <point x="560" y="832"/>
      <point x="527" y="847" type="curve" smooth="yes"/>
      <point x="494" y="862"/>
      <point x="477" y="866"/>
      <point x="451" y="866" type="curve" smooth="yes"/>
      <point x="391" y="866"/>
      <point x="351" y="826"/>
      <point x="333" y="747" type="curve"/>
    </contour>
  </outline>
</glyph>
<glyph name="Odieresis" format="1">
  <advance width="833"/>
  <unicode hex="00D6"/>
  <outline>
    <contour>
      <point x="493" y="695" type="curve" smooth="yes"/>
      <point x="249" y="695"/>
      <point x="76" y="518"/>
      <point x="76" y="268" type="curve" smooth="yes"/>
      <point x="76" y="87"/>
      <point x="182" y="-17"/>
      <point x="365" y="-17" type="curve" smooth="yes"/>
      <point x="608" y="-17"/>
      <point x="794" y="170"/>
      <point x="794" y="414" type="curve" smooth="yes"/>
      <point x="794" y="499"/>
      <point x="770" y="563"/>
      <point x="721" y="612" type="curve" smooth="yes"/>
      <point x="667" y="666"/>
      <point x="588" y="695"/>
    </contour>
    <contour>
      <point x="480" y="652" type="curve" smooth="yes"/>
      <point x="596" y="652"/>
      <point x="656" y="579"/>
      <point x="656" y="435" type="curve" smooth="yes"/>
      <point x="656" y="332"/>
      <point x="631" y="226"/>
      <point x="589" y="153" type="curve" smooth="yes"/>
      <point x="541" y="69"/>
      <point x="473" y="26"/>
      <point x="388" y="26" type="curve" smooth="yes"/>
      <point x="274" y="26"/>
      <point x="214" y="99"/>
      <point x="214" y="239" type="curve" smooth="yes"/>
      <point x="214" y="346"/>
      <point x="243" y="467"/>
      <point x="285" y="537" type="curve" smooth="yes"/>
      <point x="332" y="616"/>
      <point x="394" y="652"/>
    </contour>
    <contour>
      <point x="620" y="880" type="curve" smooth="yes"/>
      <point x="583" y="880"/>
      <point x="553" y="847"/>
      <point x="553" y="806" type="curve" smooth="yes"/>
      <point x="553" y="771"/>
      <point x="574" y="749"/>
      <point x="607" y="749" type="curve" smooth="yes"/>
      <point x="647" y="749"/>
      <point x="676" y="779"/>
      <point x="676" y="820" type="curve" smooth="yes"/>
      <point x="676" y="855"/>
      <point x="653" y="880"/>
    </contour>
    <contour>
      <point x="407" y="880" type="curve" smooth="yes"/>
      <point x="370" y="880"/>
      <point x="340" y="847"/>
      <point x="340" y="806" type="curve" smooth="yes"/>
      <point x="340" y="771"/>
      <point x="361" y="749"/>
      <point x="394" y="749" type="curve" smooth="yes"/>
      <point x="434" y="749"/>
      <point x="463" y="779"/>
      <point x="463" y="820" type="curve" smooth="yes"/>
      <point x="463" y="855"/>
      <point x="440" y="880"/>
    </contour>
  </outline>
</glyph>
<glyph name="multiply" format="1">
  <advance width="606"/>
  <unicode hex="00D7"/>
  <outline>
    <contour>
      <point x="241" y="248" type="line"/>
      <point x="72" y="79" type="line"/>
      <point x="134" y="17" type="line"/>
      <point x="303" y="186" type="line"/>
      <point x="472" y="17" type="line"/>
      <point x="534" y="79" type="line"/>
      <point x="365" y="248" type="line"/>
      <point x="534" y="417" type="line"/>
      <point x="472" y="479" type="line"/>
      <point x="303" y="310" type="line"/>
      <point x="134" y="479" type="line"/>
      <point x="72" y="417" type="line"/>
    </contour>
  </outline>
</glyph>
<glyph name="Oslash" format="1">
  <advance width="833"/>
  <unicode hex="00D8"/>
  <outline>
    <contour>
      <point x="763" y="730" type="line"/>
      <point x="680" y="643" type="line"/>
      <point x="612" y="683"/>
      <point x="570" y="695"/>
      <point x="498" y="695" type="curve" smooth="yes"/>
      <point x="246" y="695"/>
      <point x="76" y="520"/>
      <point x="76" y="261" type="curve" smooth="yes"/>
      <point x="76" y="173"/>
      <point x="94" y="118"/>
      <point x="141" y="70" type="curve"/>
      <point x="57" y="-20" type="line"/>
      <point x="89" y="-54" type="line"/>
      <point x="177" y="39" type="line"/>
      <point x="247" y="-4"/>
      <point x="291" y="-17"/>
      <point x="360" y="-17" type="curve" smooth="yes"/>
      <point x="608" y="-17"/>
      <point x="794" y="168"/>
      <point x="794" y="416" type="curve" smooth="yes"/>
      <point x="794" y="501"/>
      <point x="771" y="560"/>
      <point x="718" y="615" type="curve"/>
      <point x="797" y="699" type="line"/>
    </contour>
    <contour>
      <point x="643" y="535" type="line"/>
      <point x="653" y="497"/>
      <point x="656" y="473"/>
      <point x="656" y="435" type="curve" smooth="yes"/>
      <point x="656" y="332"/>
      <point x="631" y="226"/>
      <point x="589" y="153" type="curve" smooth="yes"/>
      <point x="542" y="70"/>
      <point x="473" y="26"/>
      <point x="391" y="26" type="curve" smooth="yes"/>
      <point x="333" y="26"/>
      <point x="291" y="48"/>
      <point x="240" y="106" type="curve"/>
    </contour>
    <contour>
      <point x="219" y="153" type="line"/>
      <point x="215" y="184"/>
      <point x="214" y="206"/>
      <point x="214" y="235" type="curve" smooth="yes"/>
      <point x="214" y="386"/>
      <point x="256" y="519"/>
      <point x="328" y="592" type="curve" smooth="yes"/>
      <point x="366" y="631"/>
      <point x="417" y="652"/>
      <point x="476" y="652" type="curve" smooth="yes"/>
      <point x="540" y="652"/>
      <point x="580" y="633"/>
      <point x="623" y="583" type="curve"/>
    </contour>
  </outline>
</glyph>
<glyph name="Ugrave" format="1">
  <advance width="778"/>
  <unicode hex="00D9"/>
  <outline>
    <contour>
      <point x="497" y="-3" type="line"/>
      <point x="585" y="0"/>
      <point x="585" y="0"/>
      <point x="603" y="0" type="curve" smooth="yes"/>
      <point x="619" y="0"/>
      <point x="619" y="0"/>
      <point x="721" y="-3" type="curve"/>
      <point x="726" y="32" type="line"/>
      <point x="667" y="35" type="line" smooth="yes"/>
      <point x="641" y="36"/>
      <point x="631" y="44"/>
      <point x="631" y="65" type="curve" smooth="yes"/>
      <point x="631" y="74"/>
      <point x="632" y="85"/>
      <point x="635" y="100" type="curve" smooth="yes"/>
      <point x="725" y="599" type="line" smooth="yes"/>
      <point x="732" y="635"/>
      <point x="739" y="641"/>
      <point x="774" y="643" type="curve" smooth="yes"/>
      <point x="820" y="646" type="line"/>
      <point x="825" y="681" type="line"/>
      <point x="688" y="678"/>
      <point x="688" y="678"/>
      <point x="666" y="678" type="curve" smooth="yes"/>
      <point x="644" y="678"/>
      <point x="644" y="678"/>
      <point x="514" y="681" type="curve"/>
      <point x="509" y="646" type="line"/>
      <point x="560" y="643" type="line" smooth="yes"/>
      <point x="585" y="642"/>
      <point x="597" y="633"/>
      <point x="597" y="617" type="curve" smooth="yes"/>
      <point x="597" y="606"/>
      <point x="595" y="590"/>
      <point x="591" y="571" type="curve"/>
      <point x="591" y="568"/>
      <point x="589" y="561"/>
      <point x="588" y="550" type="curve"/>
      <point x="587" y="546"/>
      <point x="586" y="543"/>
      <point x="586" y="541" type="curve"/>
      <point x="521" y="182" type="line" smooth="yes"/>
      <point x="518" y="164"/>
      <point x="469" y="121"/>
      <point x="421" y="93" type="curve" smooth="yes"/>
      <point x="385" y="72"/>
      <point x="356" y="63"/>
      <point x="327" y="63" type="curve" smooth="yes"/>
      <point x="290" y="63"/>
      <point x="255" y="81"/>
      <point x="238" y="110" type="curve" smooth="yes"/>
      <point x="229" y="124"/>
      <point x="224" y="150"/>
      <point x="224" y="178" type="curve" smooth="yes"/>
      <point x="224" y="192"/>
      <point x="225" y="203"/>
      <point x="227" y="214" type="curve" smooth="yes"/>
      <point x="313" y="674" type="line"/>
      <point x="307" y="681" type="line"/>
      <point x="260" y="678"/>
      <point x="246" y="678"/>
      <point x="220" y="678" type="curve" smooth="yes"/>
      <point x="209" y="678"/>
      <point x="182" y="679"/>
      <point x="142" y="680" type="curve" smooth="yes"/>
      <point x="88" y="681" type="line"/>
      <point x="83" y="646" type="line"/>
      <point x="134" y="643" type="line" smooth="yes"/>
      <point x="159" y="642"/>
      <point x="171" y="633"/>
      <point x="171" y="617" type="curve" smooth="yes"/>
      <point x="171" y="605"/>
      <point x="168" y="582"/>
      <point x="162" y="555" type="curve"/>
      <point x="162" y="552"/>
      <point x="162" y="550"/>
      <point x="161" y="548" type="curve"/>
      <point x="160" y="541" type="line"/>
      <point x="102" y="234" type="line" smooth="yes"/>
      <point x="97" y="206"/>
      <point x="94" y="180"/>
      <point x="94" y="156" type="curve" smooth="yes"/>
      <point x="94" y="112"/>
      <point x="104" y="77"/>
      <point x="124" y="51" type="curve" smooth="yes"/>
      <point x="155" y="8"/>
      <point x="209" y="-17"/>
      <point x="271" y="-17" type="curve" smooth="yes"/>
      <point x="317" y="-17"/>
      <point x="364" y="-2"/>
      <point x="403" y="26" type="curve" smooth="yes"/>
      <point x="438" y="50"/>
      <point x="461" y="72"/>
      <point x="519" y="133" type="curve"/>
      <point x="506" y="68"/>
      <point x="501" y="45"/>
      <point x="492" y="5" type="curve"/>
    </contour>
    <contour>
      <point x="500" y="730" type="line"/>
      <point x="545" y="730" type="line"/>
      <point x="441" y="867" type="line" smooth="yes"/>
      <point x="418" y="898"/>
      <point x="399" y="911"/>
      <point x="380" y="911" type="curve" smooth="yes"/>
      <point x="356" y="911"/>
      <point x="333" y="890"/>
      <point x="333" y="868" type="curve" smooth="yes"/>
      <point x="333" y="847"/>
      <point x="342" y="835"/>
      <point x="377" y="812" type="curve" smooth="yes"/>
    </contour>
  </outline>
</glyph>
